<svg width="48" height="48" viewBox="0 0 48 48" fill="none" xmlns="http://www.w3.org/2000/svg">
<path d="M0.016024 10.7496C0.288433 10.0766 0.464697 9.33951 0.865298 8.74662C1.6665 7.54482 2.88433 7.03205 4.31047 7C4.39059 7 4.47071 7 4.55083 7C17.5303 7 30.5098 7 43.4892 7C45.316 7 46.7421 7.72108 47.5433 9.40361C47.8157 9.9965 47.976 10.6855 47.976 11.3425C48.008 19.7071 48.008 28.0556 47.976 36.4201C47.976 38.984 46.1172 40.7466 43.5053 40.7626C32.7371 40.7626 21.985 40.7626 11.2168 40.7626C9.03756 40.7626 6.84226 40.7146 4.66299 40.7626C2.25939 40.8267 0.384577 39.3525 0.0320481 37.0931C0.0320481 37.0611 0 37.029 0 37.013C0.016024 28.2318 0.016024 19.4827 0.016024 10.7496ZM4.87131 9.82023C4.98347 9.9324 5.03155 9.9965 5.07962 10.0606C10.3676 15.3165 15.6395 20.5724 20.9434 25.8122C21.3921 26.2609 21.985 26.6455 22.5779 26.8698C24.3405 27.5268 25.8788 27.0461 27.1928 25.7321C32.4006 20.5403 37.6244 15.3485 42.8322 10.1728C42.9284 10.0766 43.0085 9.98047 43.1527 9.83625H4.87131V9.82023ZM5.12769 37.8943H42.8643C39.0025 33.9524 35.0446 29.9144 31.0386 25.8282C30.3495 26.5333 29.7246 27.2063 29.0516 27.8473C27.0646 29.7702 24.7251 30.4111 22.033 29.7061C20.7992 29.3856 19.7576 28.6965 18.8763 27.7832C18.2514 27.1582 17.6425 26.5173 16.9695 25.8282C12.9634 29.9144 9.00551 33.9524 5.12769 37.9104V37.8943ZM2.8683 11.7912V35.9554C6.90636 31.8373 10.8803 27.7992 14.7421 23.8573C10.8643 19.9154 6.90636 15.8933 2.8683 11.7912ZM45.1718 11.8393C41.1497 15.9254 37.1758 19.9474 33.346 23.8413C37.2078 27.7672 41.1657 31.8052 45.1718 35.8913V11.8393Z" fill="white"/>
</svg>
