<svg width="48" height="48" viewBox="0 0 48 48" fill="none" xmlns="http://www.w3.org/2000/svg">
<path d="M0 43.0301C0 30.3487 0 17.6513 0 4.96994C0.0320641 4.88978 0.0641331 4.79359 0.0801652 4.71343C0.336678 3.15832 1.13827 1.95591 2.38877 1.02605C3.17435 0.46493 4.05611 0.208417 4.96994 0C17.6513 0 30.3487 0 43.0301 0C43.1102 0.0320641 43.1744 0.0641283 43.2545 0.0801603C46.0762 0.561122 48 2.83768 48 5.72345C48 17.9078 48 30.0922 48 42.2766C48 42.9178 47.8878 43.5912 47.6954 44.2004C46.9098 46.5571 44.7936 48 42.1964 48C30.0761 48 17.9559 48 5.83567 48C5.70741 48 5.57916 48 5.46694 48C3.68738 47.9038 2.26053 47.1663 1.17035 45.7715C0.529063 44.9699 0.240476 44.024 0.0320587 43.0461L0 43.0301ZM31.7114 44.2485H32.2244C35.511 44.2485 38.7816 44.2485 42.0681 44.2485C43.527 44.2485 44.2485 43.5271 44.2485 42.0521C44.2485 30.0281 44.2485 17.988 44.2485 5.96393C44.2485 4.47295 43.5271 3.7515 42.0521 3.7515C30.0281 3.7515 17.988 3.7515 5.96393 3.7515C4.47295 3.7515 3.7515 4.47295 3.7515 5.96393C3.7515 17.988 3.7515 30.0281 3.7515 42.0521C3.7515 43.511 4.47294 44.2485 5.93186 44.2485C12.4088 44.2485 18.9018 44.2485 25.3788 44.2485C25.523 44.2485 25.6834 44.2485 25.8437 44.2325V28.9539H20.2806V23.1503H25.8757C25.8757 22.9259 25.8757 22.7655 25.8757 22.5892C25.8757 21.2906 25.8437 19.992 25.9078 18.6934C26.0681 14.9259 28.7134 11.7034 32.3848 10.7735C34.3246 10.2926 36.2966 10.5491 38.2685 10.517C38.2846 10.517 38.3166 10.5491 38.3327 10.5651V16.3046C38.1563 16.3046 37.996 16.3046 37.8517 16.3046C36.7455 16.3046 35.6393 16.2886 34.517 16.3046C33.0421 16.3367 31.8717 17.2665 31.7595 18.6613C31.6473 20.1363 31.7275 21.6112 31.7275 23.1503H38.4289C38.1082 25.1062 37.7876 27.014 37.4669 28.9699H31.6954V44.2485H31.7114Z" fill="white"/>
</svg>
