<svg width="48" height="48" viewBox="0 0 48 48" fill="none" xmlns="http://www.w3.org/2000/svg">
<g clip-path="url(#clip0_593_117)">
<path d="M12.2724 0C20.0748 0 27.8932 0 35.6956 0C35.8398 0.0320534 36 0.0641068 36.1442 0.0801336C37.4579 0.224374 38.7397 0.512855 39.9252 1.07379C45.0841 3.50985 47.8558 7.59666 47.9359 13.3022C48.032 20.418 47.968 27.5499 47.9519 34.6658C47.9519 37.4224 47.1989 39.9866 45.5968 42.2304C42.8732 46.0447 39.1402 47.9519 34.4459 47.9679C27.4446 47.984 20.4593 47.9679 13.4579 47.9679C12.5607 47.9679 11.6315 47.9199 10.7664 47.7275C5.33511 46.5255 1.85848 43.224 0.368491 37.8551C0.192256 37.1659 0.128171 36.4287 0 35.7075C0 27.9025 0 20.0815 0 12.2765C0.0801068 11.7796 0.128171 11.2828 0.24032 10.802C1.45794 5.36895 4.74232 1.89115 10.1255 0.400668C10.8144 0.192321 11.5514 0.128214 12.2724 0ZM43.7223 24.0401C43.7223 20.5623 43.7223 17.0684 43.7223 13.5906C43.7223 12.5008 43.6101 11.411 43.2417 10.3693C41.8959 6.57095 38.6115 4.26311 34.494 4.26311C27.4927 4.26311 20.5073 4.24708 13.506 4.27913C12.4646 4.27913 11.3752 4.42337 10.3818 4.75993C6.55274 6.0581 4.26168 9.37562 4.24566 13.5265C4.24566 20.5142 4.22964 27.4858 4.26168 34.4735C4.26168 35.5152 4.40587 36.605 4.74232 37.5987C6.02403 41.413 9.34046 43.7209 13.4419 43.7369C20.4593 43.7529 27.4927 43.7369 34.51 43.7369C37.6342 43.7369 40.1656 42.4868 42.024 39.9546C43.2256 38.3199 43.7063 36.4608 43.7063 34.4574C43.7063 30.9957 43.7063 27.5179 43.7063 24.0561L43.7223 24.0401Z" fill="white"/>
<path d="M23.984 36.3645C17.1909 36.3645 11.5994 30.7552 11.6315 23.9759C11.6475 17.1645 17.255 11.5872 24.016 11.6193C30.8091 11.6513 36.3364 17.1966 36.3524 23.9759C36.3524 30.7712 30.777 36.3485 23.984 36.3485V36.3645ZM32.0747 24.0079C32.1068 19.5525 28.4699 15.9144 24 15.8824C19.546 15.8503 15.9092 19.4884 15.8771 23.9598C15.8451 28.4153 19.482 32.0533 23.9519 32.0854C28.4059 32.1174 32.0427 28.4794 32.0747 24.0079Z" fill="white"/>
<path d="M36.865 8.0293C38.5793 8.0293 40.0052 9.45567 39.9892 11.1545C39.9732 12.8533 38.5633 14.2477 36.865 14.2477C35.1507 14.2477 33.7248 12.8213 33.7409 11.1225C33.7569 9.42362 35.1507 8.0293 36.865 8.0293Z" fill="white"/>
</g>
<defs>
<clipPath id="clip0_593_117">
<rect width="48" height="48" fill="white"/>
</clipPath>
</defs>
</svg>
