<?xml version="1.0" encoding="UTF-8"?>
<svg id="_圖層_2" data-name="圖層_2" xmlns="http://www.w3.org/2000/svg" viewBox="0 0 58.47 63.97">
  <defs>
    <style>
      .cls-1 {
        fill: #fff;
      }
    </style>
  </defs>
  <g id="_圖層_1-2" data-name="圖層_1">
    <g>
      <g>
        <path class="cls-1" d="M7.09,31.43c2.64,2.07,5.67,3.53,8.71,4.93,3.88,1.78,7.81,3.44,11.62,5.34,3.47,1.74,6.71,3.98,8.85,7.32.09.13.13.2.27.46.16-.29.3-.51.41-.74,2.27-4.62,1.64-8.94-1.58-12.82-2.76-3.32-6.4-5.5-10.27-7.32-3.43-1.61-6.92-3.1-10.31-4.8-2.4-1.2-4.52-2.84-5.84-5.27-2.33-4.28-.69-10.32,3.55-13.34,3.16-2.25,6.73-3.2,10.53-3.37,3.41-.15,6.74.29,9.84,1.83,4.03,2,6.7,5.28,8.56,9.28,2.38,5.14,3.16,10.63,3.42,16.2.22,4.75-.08,9.47-1.14,14.13-.5,2.18-1.14,4.3-2,6.33h8.4c2.53-4.02,4.08-8.62,4.66-13.76.88-7.83-.63-15.22-4.8-21.97C45.39,6.42,38.67,2.05,30.1.5c-3.65-.66-7.34-.64-11.02-.14-4.21.57-8.14,1.86-11.71,4.23C1.15,8.71-1.53,16.58.88,23.64c1.14,3.35,3.55,5.69,6.21,7.78Z"/>
        <path class="cls-1" d="M34.65,58.69c-2.95,1.79-6.49,2.4-10.75,2.43l-8.41-.14c0-4.21,0-11.22,0-16.84,0-.58-.11-.95-.7-1.24-2.86-1.39-5.69-2.85-8.54-4.28-.15-.08-.32-.11-.57-.19-.02.31-.04.54-.04.77,0,4.61.04,9.22-.02,13.83-.02,1.44-.19,2.9-.5,4.3-.55,2.47-1.77,4.49-4.29,5.48-.25.1-.65.38-.55.83.04.11.06.25.25.3.31.01.66,0,.99,0,7.12.01,14.23.05,21.35,0,2.21-.02,4.43-.15,6.61-.46,4.21-.61,8.1-2.17,11.59-4.57.1-.07.2-.15.3-.22h-6.73Z"/>
      </g>
      <g>
        <path class="cls-1" d="M26.44,56.92v-1.02c.62.28,1.3.42,1.78.42.62,0,.98-.18.98-.71,0-.6-.65-.73-1.13-.94-.79-.34-1.81-.67-1.81-1.74s.82-1.64,2.11-1.64c.5,0,1.06.11,1.38.24.36.14.49.29.49.54,0,.29-.16.49-.46.49-.12,0-.24-.04-.38-.08-.25-.08-.61-.19-1.03-.19-.53,0-.84.2-.84.65,0,.47.47.56,1,.79,1.14.5,1.94.82,1.94,1.88s-.65,1.7-2.25,1.7c-.61,0-1.28-.16-1.78-.4Z"/>
        <path class="cls-1" d="M33.11,52.41h-1.26c-.42,0-.64-.18-.64-.53s.22-.53.64-.53h4.37v1.06h-1.83v4.81h-1.27v-4.81Z"/>
        <path class="cls-1" d="M37.18,54.82v-2.83c0-.37.19-.7.64-.7s.64.32.64.7v2.83c0,1.07.36,1.44,1.22,1.44s1.22-.37,1.22-1.44v-3.47h1.27v3.47c0,1.61-.83,2.5-2.49,2.5s-2.49-.89-2.49-2.5Z"/>
        <path class="cls-1" d="M43.72,52.46c0-.76.22-1.1.98-1.1h1.04c1.87,0,2.89,1.09,2.89,2.91s-1.02,2.95-2.89,2.95h-2.03v-4.76ZM45.74,56.18c1.06,0,1.63-.59,1.63-1.91s-.58-1.86-1.63-1.86h-.74v3.77h.74Z"/>
        <path class="cls-1" d="M49.96,51.99c0-.37.19-.7.64-.7s.64.32.64.7v5.23h-1.27v-5.23Z"/>
        <path class="cls-1" d="M52.52,54.3c0-1.76,1.1-3,2.97-3s2.97,1.24,2.97,3-1.09,3.02-2.97,3.02-2.97-1.22-2.97-3.02ZM57.19,54.3c0-1.14-.6-1.94-1.7-1.94s-1.7.8-1.7,1.94.59,1.98,1.7,1.98,1.7-.88,1.7-1.98Z"/>
      </g>
    </g>
  </g>
</svg>