<?xml version="1.0" encoding="UTF-8"?>
<svg id="_圖層_2" data-name="圖層_2" xmlns="http://www.w3.org/2000/svg" viewBox="0 0 72.44 84.21">
  <g id="_圖層_1-2" data-name="圖層_1">
    <path d="M31.46,80.47c8.79-.07,15.28-1.98,20.06-8.9,3.07-4.43,4.85-9.38,6.04-14.61,1.39-6.14,1.79-12.35,1.5-18.6-.35-7.34-1.37-14.57-4.51-21.33-2.45-5.27-5.96-9.58-11.27-12.22-4.09-2.03-8.47-2.61-12.96-2.41-5.01.22-9.71,1.47-13.87,4.43-5.59,3.98-7.74,11.93-4.68,17.56,1.74,3.2,4.53,5.36,7.69,6.94,4.46,2.23,9.06,4.19,13.57,6.32,5.09,2.39,9.89,5.27,13.52,9.64,4.24,5.11,5.08,10.79,2.09,16.87-.15.3-.33.59-.54.97-.18-.34-.24-.43-.36-.61-2.82-4.4-7.08-7.35-11.65-9.64-5.02-2.51-10.2-4.7-15.3-7.03-4.01-1.84-7.99-3.75-11.47-6.49-3.5-2.75-6.68-5.83-8.18-10.25-3.18-9.3.35-19.65,8.54-25.08C14.4,2.93,19.58,1.22,25.11.48c4.84-.65,9.7-.68,14.51.19,11.28,2.03,20.13,7.79,26.19,17.6,5.49,8.88,7.48,18.61,6.32,28.92-1.44,12.79-7.4,23.03-18.05,30.37-4.59,3.16-9.72,5.22-15.26,6.02-2.87.41-5.8.59-8.7.61-9.37.07-18.74,0-28.11,0-.44,0-.9.02-1.31,0-.25-.07-.28-.25-.33-.4-.14-.59.39-.96.72-1.09,3.32-1.3,4.93-3.96,5.65-7.21.41-1.85.64-3.77.66-5.66.08-6.07.03-12.14.03-18.21,0-.3.03-.6.06-1.01.33.11.56.15.76.25,3.74,1.88,7.47,3.8,11.24,5.63.79.38.93.87.93,1.63-.02,7.39,0,16.62,0,22.16"/>
  </g>
</svg>