<svg width="190" height="156" viewBox="0 0 190 156" fill="none" xmlns="http://www.w3.org/2000/svg">
<g clip-path="url(#clip0_219_34)">
<path d="M22.8541 153.005C22.8541 153.771 23.028 154.294 23.3411 154.572C23.6541 154.851 24.2107 154.99 24.976 154.99V155.582C23.2715 155.513 22.1583 155.478 21.6018 155.478C21.0452 155.478 19.932 155.513 18.2275 155.582V154.99C18.9928 154.99 19.5494 154.851 19.8625 154.572C20.1755 154.294 20.3495 153.771 20.3495 153.005V144.3C20.3495 143.429 20.2103 142.838 19.8625 142.42C19.5146 142.002 18.9928 141.828 18.2275 141.828V141.236C18.8189 141.305 19.4103 141.305 19.9668 141.305C21.1495 141.305 22.0888 141.166 22.8541 140.922V152.971V153.005ZM22.6801 134.829C23.028 135.177 23.2019 135.595 23.2019 136.082C23.2019 136.57 23.028 136.988 22.6801 137.336C22.3323 137.684 21.9148 137.858 21.4278 137.858C20.9408 137.858 20.5234 137.684 20.1755 137.336C19.8277 136.988 19.6538 136.57 19.6538 136.082C19.6538 135.595 19.8277 135.177 20.1755 134.829C20.5234 134.48 20.9408 134.306 21.4278 134.306C21.9148 134.306 22.3323 134.48 22.6801 134.829Z" fill="#49342E"/>
<path d="M58.0222 135.873V136.43C56.9786 136.674 56.2481 137.475 55.8307 138.868L50.578 155.756H50.1258L45.2906 141.41L40.8728 155.756H40.4206L34.507 138.241C34.1243 137.092 33.4634 136.5 32.5938 136.465V135.908C33.359 135.978 34.333 135.978 35.5853 135.978C36.9072 135.978 37.916 135.978 38.5769 135.908V136.465C38.0899 136.5 37.7073 136.605 37.5333 136.744C37.3246 136.883 37.2203 137.127 37.2203 137.44C37.2203 137.719 37.3246 138.206 37.5333 138.798L41.6033 151.23L45.0123 140.435L44.247 138.241C43.8643 137.092 43.3426 136.5 42.6121 136.465V135.908C43.273 135.978 44.1774 135.978 45.3253 135.978C46.9255 135.978 48.1082 135.978 48.8735 135.908V136.465C48.1778 136.5 47.6908 136.57 47.4125 136.709C47.1342 136.813 46.9951 137.092 46.9951 137.475C46.9951 137.823 47.0994 138.241 47.2734 138.798L51.2737 151.195L54.6827 140.4C54.961 139.495 55.1349 138.729 55.1349 138.137C55.1349 137.545 54.961 137.092 54.5784 136.848C54.1957 136.605 53.6044 136.465 52.7695 136.43V135.873C53.8131 135.943 54.8914 135.943 55.9698 135.943C56.8047 135.943 57.5004 135.943 58.057 135.873H58.0222Z" fill="#49342E"/>
<path d="M64.3882 153.005C64.3882 153.771 64.5622 154.294 64.8752 154.572C65.1883 154.851 65.7449 154.99 66.5102 154.99V155.582C64.8057 155.513 63.6925 155.478 63.1359 155.478C62.5794 155.478 61.4662 155.513 59.7617 155.582V154.99C60.527 154.99 61.0836 154.851 61.3966 154.572C61.7097 154.294 61.8837 153.771 61.8837 153.005V144.3C61.8837 143.429 61.7445 142.838 61.3966 142.42C61.0488 142.002 60.527 141.828 59.7617 141.828V141.236C60.3531 141.305 60.9444 141.305 61.501 141.305C62.6837 141.305 63.6229 141.166 64.3882 140.922V152.971V153.005ZM64.1795 134.829C64.5274 135.177 64.7013 135.595 64.7013 136.082C64.7013 136.57 64.5274 136.988 64.1795 137.336C63.8317 137.684 63.4142 137.858 62.9272 137.858C62.4402 137.858 62.0228 137.684 61.6749 137.336C61.3271 136.988 61.1531 136.57 61.1531 136.082C61.1531 135.595 61.3271 135.177 61.6749 134.829C62.0228 134.48 62.4402 134.306 62.9272 134.306C63.4142 134.306 63.8317 134.48 64.1795 134.829Z" fill="#49342E"/>
<path d="M75.5193 141.166C76.0411 141.375 76.4585 141.619 76.7716 141.897C76.9803 142.037 77.1542 142.106 77.2586 142.106C77.6064 142.106 77.8152 141.688 77.8847 140.888H78.5109C78.4413 141.793 78.4065 143.36 78.4065 145.623H77.7804C77.5717 144.404 77.189 143.395 76.5977 142.594C76.0063 141.793 75.1366 141.41 73.9887 141.41C73.3278 141.41 72.7712 141.584 72.3538 141.967C71.9364 142.35 71.7276 142.872 71.7276 143.534C71.7276 144.196 71.9364 144.718 72.3886 145.171C72.8408 145.588 73.5365 146.146 74.5453 146.738C74.7192 146.842 74.9627 146.981 75.3106 147.225C76.1802 147.782 76.8411 148.27 77.3629 148.688C77.8847 149.105 78.3022 149.593 78.6152 150.15C78.9283 150.707 79.1022 151.334 79.1022 152.065C79.1022 153.284 78.65 154.259 77.7108 154.921C76.8064 155.617 75.6584 155.965 74.3366 155.965C73.5017 155.965 72.7712 155.826 72.1451 155.582C71.7276 155.373 71.345 155.129 70.9971 154.816C70.9276 154.746 70.8232 154.712 70.7536 154.712C70.6145 154.712 70.5101 154.816 70.4058 154.99C70.3014 155.164 70.2318 155.443 70.1623 155.756H69.5361C69.6057 154.712 69.6405 152.831 69.6405 150.185H70.2666C70.4754 151.926 70.858 153.249 71.3798 154.085C71.9016 154.955 72.8408 155.373 74.1279 155.373C74.7888 155.373 75.3454 155.164 75.8671 154.746C76.3541 154.329 76.6324 153.667 76.6324 152.727C76.6324 151.996 76.3889 151.404 75.9019 150.881C75.4149 150.394 74.6149 149.767 73.5017 149.071C72.5973 148.479 71.9016 148.026 71.4146 147.643C70.9276 147.26 70.5101 146.807 70.1623 146.285C69.8144 145.763 69.6753 145.101 69.6753 144.404C69.6753 143.221 70.0579 142.35 70.858 141.723C71.6233 141.096 72.6321 140.818 73.8148 140.818C74.4757 140.818 75.0671 140.922 75.5889 141.131L75.5193 141.166Z" fill="#49342E"/>
<path d="M86.1646 144.196C86.6168 143.012 87.2777 142.176 88.1126 141.654C88.9475 141.131 89.8519 140.853 90.8955 140.853C92.1825 140.853 93.1913 141.201 93.8523 141.897C94.2001 142.28 94.4436 142.733 94.6175 143.29C94.7915 143.847 94.8263 144.613 94.8263 145.554V153.005C94.8263 153.771 95.0002 154.294 95.3133 154.572C95.6263 154.851 96.1829 154.99 96.9482 154.99V155.582C95.2437 155.513 94.1305 155.478 93.6088 155.478C93.087 155.478 92.0434 155.513 90.478 155.582V154.99C91.1737 154.99 91.626 154.851 91.9043 154.572C92.1825 154.294 92.3217 153.771 92.3217 153.005V144.962C92.3217 143.917 92.1825 143.116 91.8695 142.594C91.5564 142.071 90.965 141.758 90.0606 141.758C89.2953 141.758 88.6344 141.967 88.043 142.385C87.4517 142.803 86.9995 143.395 86.6516 144.196C86.3037 144.962 86.1646 145.832 86.1646 146.807V153.005C86.1646 153.771 86.3037 154.294 86.582 154.572C86.8603 154.851 87.3125 154.99 88.0082 154.99V155.582C86.4429 155.513 85.3993 155.478 84.8775 155.478C84.3557 155.478 83.2426 155.513 81.5381 155.582V154.99C82.3034 154.99 82.8599 154.851 83.173 154.572C83.4861 154.294 83.66 153.771 83.66 153.005V137.127C83.66 136.256 83.5209 135.664 83.173 135.246C82.8252 134.829 82.3034 134.654 81.5381 134.654V134.063C82.1294 134.132 82.7208 134.132 83.2774 134.132C84.4601 134.132 85.3993 133.993 86.1646 133.749V144.161V144.196Z" fill="#49342E"/>
<path d="M117.715 135.978C118.481 136.291 119.246 136.744 120.011 137.301C120.22 137.475 120.394 137.545 120.533 137.545C120.916 137.545 121.159 136.988 121.264 135.873H121.89C121.82 137.092 121.785 139.216 121.785 142.28H121.159C120.95 141.062 120.777 140.191 120.603 139.669C120.429 139.146 120.15 138.624 119.768 138.137C119.211 137.405 118.515 136.883 117.646 136.5C116.776 136.152 115.837 135.943 114.863 135.943C113.645 135.943 112.602 136.326 111.697 137.127C110.793 137.928 110.097 139.077 109.61 140.539C109.123 142.002 108.845 143.743 108.845 145.728C108.845 147.713 109.123 149.488 109.645 150.951C110.167 152.413 110.932 153.493 111.871 154.259C112.845 155.025 113.924 155.373 115.106 155.373C116.046 155.373 116.95 155.199 117.82 154.851C118.689 154.503 119.385 153.98 119.872 153.249C120.255 152.727 120.498 152.17 120.672 151.578C120.846 150.986 120.985 150.08 121.159 148.862H121.785C121.785 152.065 121.82 154.294 121.89 155.547H121.264C121.194 154.955 121.124 154.538 121.02 154.294C120.916 154.05 120.777 153.911 120.603 153.911C120.463 153.911 120.255 153.98 120.011 154.12C119.176 154.712 118.376 155.164 117.611 155.478C116.846 155.791 115.941 155.93 114.863 155.93C113.089 155.93 111.558 155.513 110.236 154.746C108.915 153.946 107.871 152.796 107.14 151.264C106.41 149.732 106.027 147.956 106.027 145.832C106.027 143.708 106.41 141.967 107.14 140.4C107.871 138.833 108.949 137.579 110.271 136.709C111.628 135.838 113.158 135.386 114.863 135.386C115.976 135.386 116.915 135.56 117.715 135.873V135.978Z" fill="#49342E"/>
<path d="M126.307 154.921C125.75 154.329 125.472 153.528 125.472 152.483C125.472 151.647 125.715 150.951 126.167 150.429C126.62 149.906 127.176 149.454 127.768 149.14C128.394 148.827 129.229 148.479 130.237 148.13C131.281 147.782 132.046 147.434 132.533 147.155C133.02 146.877 133.298 146.459 133.298 145.971V144.23C133.298 143.151 133.055 142.42 132.603 142.002C132.151 141.619 131.524 141.41 130.69 141.41C129.402 141.41 128.463 141.758 127.941 142.42C128.324 142.524 128.637 142.698 128.881 143.012C129.124 143.325 129.263 143.673 129.263 144.126C129.263 144.579 129.124 144.962 128.811 145.24C128.498 145.519 128.115 145.658 127.663 145.658C127.141 145.658 126.759 145.484 126.48 145.171C126.202 144.857 126.098 144.439 126.098 143.987C126.098 143.534 126.202 143.151 126.411 142.872C126.62 142.594 126.933 142.28 127.385 141.967C127.837 141.654 128.394 141.375 129.089 141.201C129.785 141.027 130.516 140.888 131.35 140.888C132.811 140.888 133.89 141.236 134.62 141.932C135.073 142.35 135.386 142.872 135.56 143.464C135.699 144.056 135.803 144.857 135.803 145.832V153.563C135.803 154.015 135.873 154.363 136.012 154.572C136.151 154.781 136.36 154.886 136.673 154.886C136.881 154.886 137.09 154.851 137.299 154.747C137.508 154.642 137.716 154.503 137.925 154.329L138.238 154.816C137.751 155.199 137.334 155.443 136.986 155.617C136.638 155.756 136.22 155.861 135.699 155.861C134.794 155.861 134.203 155.652 133.82 155.199C133.438 154.747 133.298 154.155 133.298 153.388C132.742 154.329 132.116 154.955 131.385 155.338C130.655 155.687 129.855 155.896 128.95 155.896C127.768 155.896 126.933 155.617 126.341 155.025L126.307 154.921ZM133.264 152.553V147.086C133.09 147.364 132.881 147.573 132.568 147.713C132.255 147.887 131.803 148.096 131.211 148.374C130.516 148.688 129.924 148.966 129.507 149.21C129.089 149.488 128.707 149.837 128.394 150.324C128.081 150.777 127.907 151.369 127.907 152.1C127.907 152.936 128.115 153.563 128.533 153.98C128.95 154.398 129.472 154.607 130.133 154.607C131.35 154.607 132.394 153.911 133.264 152.483V152.553Z" fill="#49342E"/>
<path d="M149.787 134.585C150.378 135.038 150.657 135.629 150.657 136.326C150.657 136.744 150.518 137.092 150.239 137.371C149.961 137.649 149.613 137.788 149.196 137.788C148.778 137.788 148.396 137.649 148.117 137.371C147.839 137.092 147.665 136.744 147.665 136.256C147.665 135.873 147.769 135.56 147.978 135.316C148.187 135.072 148.465 134.933 148.813 134.829C148.743 134.654 148.604 134.48 148.361 134.376C148.117 134.271 147.804 134.202 147.456 134.202C147.039 134.202 146.691 134.306 146.378 134.48C146.065 134.654 145.821 134.898 145.648 135.246C145.439 135.629 145.3 136.152 145.23 136.883C145.161 137.614 145.126 138.833 145.126 140.539V141.271H148.117V141.828H145.126V152.727C145.126 153.597 145.369 154.189 145.856 154.503C146.343 154.851 147.074 154.99 148.083 154.99V155.582H147.422C145.543 155.513 144.326 155.478 143.804 155.478C143.317 155.478 142.239 155.513 140.534 155.582V154.99C141.299 154.99 141.856 154.851 142.169 154.572C142.482 154.294 142.656 153.771 142.656 153.005V141.828H140.43V141.271H142.656C142.656 139.634 142.76 138.38 142.969 137.475C143.178 136.57 143.56 135.838 144.082 135.177C144.465 134.759 144.917 134.411 145.508 134.167C146.1 133.923 146.726 133.784 147.387 133.784C148.361 133.784 149.161 134.028 149.822 134.55L149.787 134.585Z" fill="#49342E"/>
<path d="M161.684 152.274C161.336 153.284 160.71 154.155 159.805 154.921C158.901 155.687 157.788 156.035 156.466 156.035C155.144 156.035 153.996 155.722 153.057 155.13C152.083 154.538 151.353 153.667 150.831 152.588C150.309 151.508 150.065 150.255 150.065 148.827C150.065 147.225 150.309 145.797 150.831 144.613C151.353 143.43 152.083 142.524 153.022 141.863C153.961 141.236 155.075 140.888 156.327 140.888C157.997 140.888 159.284 141.41 160.188 142.42C161.093 143.43 161.545 144.962 161.545 147.016H152.848C152.779 147.538 152.779 148.13 152.779 148.792C152.779 150.011 152.987 151.09 153.37 151.996C153.753 152.901 154.309 153.597 154.97 154.085C155.631 154.572 156.327 154.816 157.057 154.816C157.962 154.816 158.727 154.607 159.423 154.189C160.119 153.772 160.675 153.04 161.162 152.03L161.719 152.239L161.684 152.274ZM153.996 142.663C153.37 143.534 152.987 144.788 152.814 146.459H158.866C158.901 144.997 158.692 143.813 158.24 142.838C157.788 141.863 157.127 141.375 156.223 141.375C155.318 141.375 154.588 141.793 153.961 142.663H153.996Z" fill="#49342E"/>
<path d="M80.0073 22.5295C51.2395 6.9991 27.6895 25.0714 24.2109 27.9964C24.35 28.0661 24.4892 28.1357 24.6283 28.2402C25.2893 28.7625 25.9154 29.3196 26.5416 29.842C27.0981 30.3295 27.6547 30.817 28.2461 31.2696C28.4896 31.4786 28.8722 31.583 29.2201 31.6527C29.2896 31.6527 29.394 31.6875 29.4636 31.7223C29.4983 31.7223 29.5679 31.7223 29.6027 31.7223C29.7071 31.7223 29.7766 31.7223 29.881 31.7223C29.9158 31.7223 29.9506 31.7223 29.9853 31.7223C31.6551 31.8964 32.803 31.4089 33.7074 30.9214C35.3076 30.0161 37.4295 29.4589 40.0037 29.2152C42.1952 29.0062 44.3867 29.0411 46.4738 29.3196C48.6653 29.5982 50.7872 30.1553 52.8744 30.9911C54.0571 31.4437 55.1703 32.0357 56.2834 32.6625C56.4226 32.7321 56.4921 32.8366 56.5269 32.9411C56.5269 33.0804 56.3878 33.3241 56.0051 33.533C53.6397 34.9259 51.0307 35.7268 48.074 35.9705C45.952 36.1446 43.8997 36.075 41.8821 35.8312C39.2036 35.483 36.5599 34.717 34.0553 33.5679C33.9161 33.4982 33.8118 33.4286 33.6726 33.3589C33.3248 33.15 32.9421 32.9062 32.4203 32.8366C32.1421 32.8018 31.8986 32.8366 31.5855 32.8366C31.4116 32.8366 31.2376 33.0107 31.2028 33.1848C31.1681 33.3589 31.2028 33.533 31.3768 33.6723C31.6551 33.8812 31.9333 34.0902 32.2116 34.2991C32.803 34.7518 33.3944 35.1696 34.0205 35.5875L34.4031 35.8312C35.8641 36.8062 37.3947 37.8161 38.9601 38.7562C40.6646 39.7661 42.4387 40.7759 44.1432 41.7161C44.8389 42.0991 45.5694 42.517 46.2651 42.9C46.3347 42.9 46.3695 42.9696 46.439 42.9696C47.0652 43.4571 47.7609 43.7357 48.561 43.8402C49.2915 43.9446 50.1263 43.875 51.1699 43.6312C51.5873 43.5268 51.9352 43.492 52.2483 43.492C53.1527 43.492 53.5353 43.1089 53.8484 42.7607C55.1355 41.4027 56.8748 40.4277 58.9967 39.8009C62.3361 38.7911 65.8147 38.5125 69.3977 39C69.8151 39.0696 70.2673 39.1393 70.6847 39.2089C72.4936 39.5223 74.3024 40.0795 76.0417 40.6366L76.7722 40.8455C77.3288 41.0196 77.4332 41.1937 77.468 41.2286C77.5027 41.333 77.4332 41.542 77.2592 41.7509C76.6331 42.5866 75.7287 43.3179 74.5459 44.0143C72.3892 45.2679 69.7107 45.9643 66.4061 46.1732C64.5276 46.2777 62.6492 46.208 60.8056 45.9643C58.8576 45.7205 56.9095 45.233 54.9963 44.5714C54.8572 44.5366 54.6833 44.5018 54.5093 44.467C54.3006 44.467 54.0571 44.4321 53.8136 44.467C53.3962 44.467 52.944 44.5714 52.457 44.6062C52.2483 44.6062 52.0048 44.6759 51.7613 44.7107C51.5525 44.7107 51.3786 44.8848 51.3438 45.0937C51.3438 45.3027 51.4482 45.5116 51.6221 45.5812C52.3874 45.8946 53.1179 46.2429 53.8484 46.5562C55.4833 47.2875 57.0139 47.9491 58.6141 48.5411C62.0926 49.8295 65.6756 51.0482 69.1541 52.267L71.8327 53.1723C72.6327 53.4509 73.6763 53.7991 74.7894 54.008C74.859 54.008 74.8938 54.008 74.9634 54.008C75.4852 54.0777 76.0417 54.008 76.5983 53.9036C77.8158 53.6598 78.9985 53.3812 80.0421 53.1375C80.3204 53.0679 80.7378 52.8589 80.877 52.5455C81.3292 51.6054 82.1988 50.7 83.6598 49.7598C85.0165 48.8545 86.6862 48.2277 88.6342 47.8098C91.6606 47.183 94.7565 47.0786 97.8524 47.4964C99.4526 47.7054 101.088 48.0536 102.722 48.5759C103.349 48.75 103.488 48.9241 103.523 49.0286C103.557 49.133 103.523 49.2723 103.453 49.4464C102.096 52.3366 98.8612 54.1125 93.6433 54.8786C91.3127 55.2268 88.9125 55.192 86.3383 54.8786C85.1208 54.7045 83.8338 54.4607 82.5119 54.1473C82.4423 54.1473 82.3727 54.1473 82.2684 54.1125C81.7814 54.0429 81.2596 54.1125 80.7378 54.217C80.4943 54.2518 80.2508 54.2866 80.0421 54.3214C79.903 54.3214 79.7986 54.3911 79.6942 54.4955C79.6247 54.6 79.5899 54.7045 79.5899 54.8437V55.0527C79.6595 55.2268 79.7986 55.4009 80.0073 55.4357C80.5639 55.575 81.0857 55.6795 81.6422 55.8187C82.825 56.0973 84.0425 56.3759 85.26 56.6196C87.3123 57.0027 89.3995 57.3857 91.4518 57.7687C93.052 58.0473 94.6521 58.3607 96.2523 58.6393C96.4262 58.6393 96.6001 58.7089 96.7393 58.7089C97.8176 58.8482 98.8264 58.7786 99.8352 58.4652C103.279 57.4205 106.897 57.1071 110.584 57.5946C113.054 57.908 115.628 58.6045 118.167 59.6491C120.498 60.5893 122.168 61.6687 123.35 62.992C123.35 62.992 123.35 62.992 123.35 63.0268C123.35 63.0268 123.35 63.0268 123.316 63.0268C121.924 63.8973 120.046 64.4545 117.437 64.7679C115.037 65.0464 112.636 65.0464 110.271 64.7679C108.01 64.4545 105.749 63.8625 103.523 63.0268C101.609 62.2955 99.9744 61.3554 98.6177 60.3107C98.3394 60.1018 97.8872 59.8929 97.4698 59.858C91.6953 59.0571 85.9557 57.9429 80.4943 56.6196C78.7898 56.2018 77.0853 55.7491 75.4156 55.2964C74.6851 55.0875 73.9198 54.8786 73.1893 54.7045C73.0154 54.6696 72.8067 54.6 72.6327 54.5304L72.3197 54.4607C72.3197 54.4607 72.2849 54.4607 72.2501 54.4607C72.0762 54.4607 71.937 54.4955 71.8327 54.6C71.6935 54.7393 71.6935 54.9134 71.7631 55.0875C72.424 56.3759 72.9458 56.7937 74.6155 57.2812C78.1985 58.3607 81.0857 59.9277 83.2076 61.9821C83.7642 62.5393 84.1816 63.1312 84.599 63.8277C85.7818 65.708 85.8165 67.5884 84.7034 69.7473C84.5295 70.1304 83.9381 70.4437 83.0685 70.3393C82.9641 70.3393 82.8597 70.3393 82.7902 70.2696C79.0681 69.3991 76.1461 68.1107 73.8502 66.3696C70.2673 63.6536 69.2237 60.7982 70.6499 57.6643C70.7891 57.3509 70.8587 56.8982 70.5804 56.5848L70.3716 56.3062C69.5368 55.2616 68.6671 54.1821 67.6584 53.1723C67.3801 52.8589 66.8583 52.7196 66.3713 52.5804C66.1626 52.5107 65.9886 52.4759 65.8147 52.4062C64.5972 51.9187 63.3797 51.4661 62.1622 50.9786C59.0315 49.7598 55.7964 48.5411 52.6657 47.2527C51.2743 46.6955 49.8828 46.0339 48.561 45.3723C47.9348 45.0937 47.3435 44.7804 46.7173 44.5018C46.6825 44.5018 46.613 44.467 46.5782 44.467C46.4738 44.467 46.4042 44.467 46.3347 44.467C46.1955 44.5366 46.0912 44.6411 46.0564 44.7455C45.6042 46.1732 47.1347 46.9741 47.8305 47.3571C49.5697 48.2625 50.9612 49.4464 52.1091 50.9437C53.744 53.0679 53.9875 55.1571 52.8396 57.3509C52.2135 58.5348 51.1003 59.5446 49.4654 60.3455C49.2219 60.4848 48.9088 60.5196 48.5957 60.4848C48.3175 60.45 48.0392 60.3455 47.7609 60.2062C45.6737 59.2313 44.0736 58.1866 42.8561 57.0375C39.9689 54.3562 39.3775 51.6054 41.1168 48.7152C41.3603 48.2973 41.7777 47.9491 42.2647 47.5661C42.543 47.3223 42.8213 47.0786 43.0996 46.8348C43.4127 46.5214 43.7257 46.1036 43.6562 45.6509C43.517 44.7455 43.3431 43.7357 42.9257 42.7607C42.7169 42.308 42.1952 42.0295 41.6734 41.7161C41.5342 41.6464 41.3951 41.5768 41.2559 41.4723C40.4211 40.95 39.5862 40.4625 38.7514 39.975C37.1164 39 35.3771 37.9902 33.8118 36.9107C31.0637 35.0652 28.4548 33.0455 25.8806 31.1303L25.6023 30.9214C25.011 30.4687 24.4544 29.9812 23.9326 29.5286C24.9066 40.4625 35.6902 88.9339 85.5035 87.6107C144.535 86.0437 144.535 28.9714 144.535 28.9714C122.098 43.2482 109.993 38.5473 80.1117 22.425L80.0073 22.5295Z" fill="#8C6B4D"/>
<path d="M24.2111 28.0313C24.0371 27.9616 23.8632 27.892 23.6545 27.8572C23.411 27.8572 23.1675 27.8572 22.924 27.892C22.4718 27.9965 22.2979 28.1706 22.2979 28.2402C22.2979 28.2402 22.2979 28.3099 22.3674 28.3447C22.6109 28.5536 22.8544 28.7974 23.0979 29.0063C23.3414 29.2152 23.5849 29.459 23.8632 29.7027C23.8284 29.1804 23.7936 28.7625 23.7936 28.4143C23.7936 28.4143 23.9328 28.275 24.2459 28.0313H24.2111Z" fill="white"/>
<path d="M86.0596 19.2214C86.0596 19.2214 118.967 10.725 144.152 21.833C144.152 21.833 134.76 33.9509 115.245 31.5482C100.287 29.7375 86.0596 19.1866 86.0596 19.1866V19.2214Z" fill="#E4BD74"/>
<path d="M128.499 90.3615C141.23 81.8999 150.483 69.5383 155.771 53.7642C162.519 33.6026 161.023 13.6151 160.536 7.03381C160.502 6.44185 160.432 5.74542 160.432 5.50167C160.502 2.57667 158.206 0.13917 155.284 -0.000115493C152.327 -0.10458 149.822 2.19363 149.683 5.15346C149.683 5.74542 149.683 6.44185 149.822 7.79988C152.257 40.6017 145.265 81.6561 98.0611 91.1624C89.9561 92.799 81.4683 92.8686 72.911 91.441C53.5701 88.1677 38.9949 79.7061 29.6027 66.3347C12.0707 41.3677 17.9843 6.92935 18.0886 6.37221C18.6104 3.44721 16.6972 0.661492 13.7752 0.104349C10.8532 -0.417973 8.03552 1.49721 7.51373 4.42221C7.23545 6.02399 0.626144 43.666 20.7671 72.4633C25.7763 79.6365 32.0029 85.591 39.3775 90.3267C15.7232 92.4856 0 96.3508 0 100.738C0 107.528 37.5339 113.03 83.8338 113.03C130.134 113.03 167.668 107.528 167.668 100.738C167.668 96.3508 152.049 92.5204 128.499 90.3615Z" fill="#A88F78"/>
<path d="M165.998 48.6804C165.302 48.6804 164.606 48.6804 163.911 48.6108C161.858 48.4715 160.328 46.6608 160.467 44.6063C160.606 42.5518 162.484 41.0545 164.467 41.159C169.128 41.5072 173.616 40.2884 177.06 37.7813C180.329 35.3786 182.277 32.0706 182.556 28.484C182.834 24.8625 181.373 21.3108 178.486 18.4554C175.425 15.4608 171.181 13.6152 166.52 13.267C164.467 13.1277 162.937 11.317 163.076 9.26254C163.215 7.20808 165.059 5.64111 167.076 5.81522C173.511 6.30272 179.425 8.87951 183.738 13.1277C188.226 17.55 190.452 23.1563 190 29.0063C189.548 34.8563 186.556 40.0795 181.477 43.8054C177.129 46.9742 171.703 48.6804 166.033 48.6804H165.998Z" fill="#A88F78"/>
</g>
<defs>
<clipPath id="clip0_219_34">
<rect width="190" height="156" fill="white"/>
</clipPath>
</defs>
</svg>
