<svg width="798" height="195" viewBox="0 0 798 195" fill="none" xmlns="http://www.w3.org/2000/svg">
<g filter="url(#filter0_d_299_62)">
<rect x="1.5" width="147" height="144" fill="#E4BD74"/>
<rect x="1.5" y="144" width="147" height="39" fill="white"/>
<path d="M47.3722 168L49.0426 157.818H50.0369L48.3665 168H47.3722ZM42.7386 165.176L42.8977 164.182H50.4943L50.3352 165.176H42.7386ZM43.7926 168L45.4631 157.818H46.4574L44.7869 168H43.7926ZM43.3352 161.636L43.4943 160.642H51.0909L50.9318 161.636H43.3352ZM52.565 168V157.818H58.7099V158.912H53.7979V162.352H58.3917V163.446H53.7979V166.906H58.7894V168H52.565ZM60.5146 165.912V164.898L64.989 157.818H65.7248V159.389H65.2276L61.8469 164.739V164.818H67.8725V165.912H60.5146ZM65.3072 168V165.604V165.131V157.818H66.4805V168H65.3072ZM69.9146 168V157.818H73.4743C74.1835 157.818 74.7685 157.941 75.2292 158.186C75.6899 158.428 76.033 158.754 76.2583 159.165C76.4837 159.573 76.5964 160.026 76.5964 160.523C76.5964 160.96 76.5185 161.321 76.3627 161.607C76.2103 161.892 76.0081 162.117 75.7562 162.283C75.5076 162.448 75.2375 162.571 74.9458 162.651V162.75C75.2574 162.77 75.5706 162.879 75.8855 163.078C76.2003 163.277 76.4638 163.562 76.676 163.933C76.8881 164.304 76.9941 164.759 76.9941 165.295C76.9941 165.806 76.8781 166.265 76.6461 166.673C76.4141 167.08 76.0479 167.403 75.5474 167.642C75.0469 167.881 74.3957 168 73.5936 168H69.9146ZM71.1475 166.906H73.5936C74.399 166.906 74.9707 166.75 75.3088 166.439C75.6502 166.124 75.8208 165.743 75.8208 165.295C75.8208 164.951 75.733 164.633 75.5574 164.341C75.3817 164.046 75.1315 163.811 74.8066 163.635C74.4818 163.456 74.0974 163.366 73.6532 163.366H71.1475V166.906ZM71.1475 162.293H73.4345C73.8057 162.293 74.1404 162.22 74.4387 162.074C74.7404 161.928 74.979 161.723 75.1547 161.457C75.3336 161.192 75.4231 160.881 75.4231 160.523C75.4231 160.075 75.2673 159.696 74.9558 159.384C74.6442 159.069 74.1504 158.912 73.4743 158.912H71.1475V162.293ZM82.1621 168H79.0201V157.818H82.3013C83.289 157.818 84.1342 158.022 84.8368 158.43C85.5395 158.834 86.0781 159.416 86.4526 160.175C86.8271 160.93 87.0144 161.835 87.0144 162.889C87.0144 163.95 86.8255 164.863 86.4476 165.629C86.0698 166.391 85.5196 166.978 84.7971 167.388C84.0745 167.796 83.1962 168 82.1621 168ZM80.253 166.906H82.0826C82.9244 166.906 83.6221 166.744 84.1756 166.419C84.7291 166.094 85.1417 165.632 85.4135 165.032C85.6853 164.432 85.8212 163.718 85.8212 162.889C85.8212 162.067 85.687 161.36 85.4185 160.766C85.15 160.17 84.749 159.712 84.2154 159.394C83.6818 159.073 83.0172 158.912 82.2218 158.912H80.253V166.906ZM89.2218 168L93.7757 158.991V158.912H88.5257V157.818H95.0485V158.972L90.5144 168H89.2218ZM95.8427 165.912V164.898L100.317 157.818H101.053V159.389H100.556L97.1751 164.739V164.818H103.201V165.912H95.8427ZM100.635 168V165.604V165.131V157.818H101.809V168H100.635Z" fill="black"/>
</g>
<g filter="url(#filter1_d_299_62)">
<rect x="215.5" width="147" height="144" fill="#A88F78"/>
<rect x="215.5" y="144" width="147" height="39" fill="white"/>
<path d="M261.372 168L263.043 157.818H264.037L262.366 168H261.372ZM256.739 165.176L256.898 164.182H264.494L264.335 165.176H256.739ZM257.793 168L259.463 157.818H260.457L258.787 168H257.793ZM257.335 161.636L257.494 160.642H265.091L264.932 161.636H257.335ZM266.983 168H265.69L269.429 157.818H270.701L274.44 168H273.147L270.105 159.429H270.025L266.983 168ZM267.46 164.023H272.67V165.116H267.46V164.023ZM279.108 168.139C278.426 168.139 277.822 168.018 277.299 167.776C276.778 167.531 276.372 167.195 276.081 166.767C275.789 166.336 275.645 165.846 275.648 165.295C275.645 164.865 275.729 164.467 275.902 164.102C276.074 163.734 276.309 163.428 276.608 163.183C276.909 162.934 277.246 162.777 277.617 162.71V162.651C277.13 162.525 276.742 162.251 276.453 161.83C276.165 161.406 276.023 160.924 276.026 160.384C276.023 159.866 276.154 159.404 276.419 158.996C276.684 158.589 277.048 158.267 277.512 158.032C277.98 157.797 278.512 157.679 279.108 157.679C279.698 157.679 280.225 157.797 280.689 158.032C281.153 158.267 281.518 158.589 281.783 158.996C282.051 159.404 282.187 159.866 282.191 160.384C282.187 160.924 282.04 161.406 281.748 161.83C281.46 162.251 281.077 162.525 280.6 162.651V162.71C280.968 162.777 281.299 162.934 281.594 163.183C281.889 163.428 282.124 163.734 282.3 164.102C282.476 164.467 282.565 164.865 282.569 165.295C282.565 165.846 282.416 166.336 282.121 166.767C281.829 167.195 281.423 167.531 280.903 167.776C280.386 168.018 279.788 168.139 279.108 168.139ZM279.108 167.045C279.569 167.045 279.967 166.971 280.301 166.822C280.636 166.673 280.895 166.462 281.077 166.19C281.259 165.919 281.352 165.6 281.355 165.236C281.352 164.851 281.253 164.512 281.057 164.217C280.862 163.922 280.595 163.69 280.257 163.521C279.922 163.352 279.539 163.267 279.108 163.267C278.674 163.267 278.286 163.352 277.945 163.521C277.607 163.69 277.34 163.922 277.145 164.217C276.952 164.512 276.858 164.851 276.861 165.236C276.858 165.6 276.946 165.919 277.125 166.19C277.307 166.462 277.567 166.673 277.905 166.822C278.243 166.971 278.644 167.045 279.108 167.045ZM279.108 162.213C279.473 162.213 279.796 162.14 280.078 161.994C280.363 161.848 280.587 161.645 280.749 161.383C280.911 161.121 280.994 160.814 280.998 160.463C280.994 160.118 280.913 159.818 280.754 159.563C280.595 159.305 280.374 159.106 280.093 158.967C279.811 158.824 279.483 158.753 279.108 158.753C278.727 158.753 278.394 158.824 278.109 158.967C277.824 159.106 277.604 159.305 277.448 159.563C277.292 159.818 277.216 160.118 277.219 160.463C277.216 160.814 277.294 161.121 277.453 161.383C277.615 161.645 277.839 161.848 278.124 161.994C278.409 162.14 278.737 162.213 279.108 162.213ZM287.735 168.139C287.052 168.139 286.449 168.018 285.926 167.776C285.405 167.531 284.999 167.195 284.708 166.767C284.416 166.336 284.272 165.846 284.275 165.295C284.272 164.865 284.356 164.467 284.529 164.102C284.701 163.734 284.936 163.428 285.235 163.183C285.536 162.934 285.873 162.777 286.244 162.71V162.651C285.757 162.525 285.369 162.251 285.08 161.83C284.792 161.406 284.65 160.924 284.653 160.384C284.65 159.866 284.78 159.404 285.046 158.996C285.311 158.589 285.675 158.267 286.139 158.032C286.607 157.797 287.139 157.679 287.735 157.679C288.325 157.679 288.852 157.797 289.316 158.032C289.78 158.267 290.145 158.589 290.41 158.996C290.678 159.404 290.814 159.866 290.818 160.384C290.814 160.924 290.667 161.406 290.375 161.83C290.087 162.251 289.704 162.525 289.227 162.651V162.71C289.595 162.777 289.926 162.934 290.221 163.183C290.516 163.428 290.751 163.734 290.927 164.102C291.103 164.467 291.192 164.865 291.195 165.295C291.192 165.846 291.043 166.336 290.748 166.767C290.456 167.195 290.05 167.531 289.53 167.776C289.013 168.018 288.415 168.139 287.735 168.139ZM287.735 167.045C288.196 167.045 288.594 166.971 288.928 166.822C289.263 166.673 289.522 166.462 289.704 166.19C289.886 165.919 289.979 165.6 289.982 165.236C289.979 164.851 289.88 164.512 289.684 164.217C289.489 163.922 289.222 163.69 288.884 163.521C288.549 163.352 288.166 163.267 287.735 163.267C287.301 163.267 286.913 163.352 286.572 163.521C286.234 163.69 285.967 163.922 285.771 164.217C285.579 164.512 285.485 164.851 285.488 165.236C285.485 165.6 285.573 165.919 285.752 166.19C285.934 166.462 286.194 166.673 286.532 166.822C286.87 166.971 287.271 167.045 287.735 167.045ZM287.735 162.213C288.1 162.213 288.423 162.14 288.705 161.994C288.99 161.848 289.213 161.645 289.376 161.383C289.538 161.121 289.621 160.814 289.624 160.463C289.621 160.118 289.54 159.818 289.381 159.563C289.222 159.305 289.001 159.106 288.72 158.967C288.438 158.824 288.11 158.753 287.735 158.753C287.354 158.753 287.021 158.824 286.736 158.967C286.451 159.106 286.231 159.305 286.075 159.563C285.919 159.818 285.843 160.118 285.846 160.463C285.843 160.814 285.921 161.121 286.08 161.383C286.242 161.645 286.466 161.848 286.751 161.994C287.036 162.14 287.364 162.213 287.735 162.213ZM293.28 168V157.818H299.385V158.912H294.513V162.352H298.928V163.446H294.513V168H293.28ZM301.636 168L306.19 158.991V158.912H300.94V157.818H307.463V158.972L302.928 168H301.636ZM312.372 168.139C311.689 168.139 311.086 168.018 310.562 167.776C310.042 167.531 309.636 167.195 309.344 166.767C309.053 166.336 308.908 165.846 308.912 165.295C308.908 164.865 308.993 164.467 309.165 164.102C309.338 163.734 309.573 163.428 309.871 163.183C310.173 162.934 310.509 162.777 310.881 162.71V162.651C310.393 162.525 310.006 162.251 309.717 161.83C309.429 161.406 309.286 160.924 309.29 160.384C309.286 159.866 309.417 159.404 309.682 158.996C309.948 158.589 310.312 158.267 310.776 158.032C311.243 157.797 311.775 157.679 312.372 157.679C312.962 157.679 313.489 157.797 313.953 158.032C314.417 158.267 314.782 158.589 315.047 158.996C315.315 159.404 315.451 159.866 315.454 160.384C315.451 160.924 315.304 161.406 315.012 161.83C314.724 162.251 314.341 162.525 313.863 162.651V162.71C314.231 162.777 314.563 162.934 314.858 163.183C315.153 163.428 315.388 163.734 315.564 164.102C315.739 164.467 315.829 164.865 315.832 165.295C315.829 165.846 315.68 166.336 315.385 166.767C315.093 167.195 314.687 167.531 314.167 167.776C313.65 168.018 313.051 168.139 312.372 168.139ZM312.372 167.045C312.833 167.045 313.23 166.971 313.565 166.822C313.9 166.673 314.158 166.462 314.341 166.19C314.523 165.919 314.616 165.6 314.619 165.236C314.616 164.851 314.516 164.512 314.321 164.217C314.125 163.922 313.858 163.69 313.52 163.521C313.186 163.352 312.803 163.267 312.372 163.267C311.938 163.267 311.55 163.352 311.209 163.521C310.871 163.69 310.604 163.922 310.408 164.217C310.216 164.512 310.122 164.851 310.125 165.236C310.122 165.6 310.209 165.919 310.388 166.19C310.571 166.462 310.831 166.673 311.169 166.822C311.507 166.971 311.908 167.045 312.372 167.045ZM312.372 162.213C312.737 162.213 313.06 162.14 313.341 161.994C313.626 161.848 313.85 161.645 314.013 161.383C314.175 161.121 314.258 160.814 314.261 160.463C314.258 160.118 314.177 159.818 314.018 159.563C313.858 159.305 313.638 159.106 313.356 158.967C313.075 158.824 312.747 158.753 312.372 158.753C311.991 158.753 311.658 158.824 311.373 158.967C311.088 159.106 310.867 159.305 310.711 159.563C310.556 159.818 310.479 160.118 310.483 160.463C310.479 160.814 310.557 161.121 310.716 161.383C310.879 161.645 311.103 161.848 311.388 161.994C311.673 162.14 312.001 162.213 312.372 162.213Z" fill="black"/>
</g>
<g filter="url(#filter2_d_299_62)">
<rect x="429.5" width="147" height="144" fill="#8C6B4D"/>
<rect x="429.5" y="144" width="147" height="39" fill="white"/>
<path d="M475.372 168L477.043 157.818H478.037L476.366 168H475.372ZM470.739 165.176L470.898 164.182H478.494L478.335 165.176H470.739ZM471.793 168L473.463 157.818H474.457L472.787 168H471.793ZM471.335 161.636L471.494 160.642H479.091L478.932 161.636H471.335ZM483.647 168.139C482.965 168.139 482.361 168.018 481.838 167.776C481.317 167.531 480.911 167.195 480.62 166.767C480.328 166.336 480.184 165.846 480.187 165.295C480.184 164.865 480.268 164.467 480.441 164.102C480.613 163.734 480.848 163.428 481.147 163.183C481.448 162.934 481.785 162.777 482.156 162.71V162.651C481.669 162.525 481.281 162.251 480.993 161.83C480.704 161.406 480.562 160.924 480.565 160.384C480.562 159.866 480.693 159.404 480.958 158.996C481.223 158.589 481.587 158.267 482.051 158.032C482.519 157.797 483.051 157.679 483.647 157.679C484.237 157.679 484.764 157.797 485.228 158.032C485.692 158.267 486.057 158.589 486.322 158.996C486.591 159.404 486.726 159.866 486.73 160.384C486.726 160.924 486.579 161.406 486.287 161.83C485.999 162.251 485.616 162.525 485.139 162.651V162.71C485.507 162.777 485.838 162.934 486.133 163.183C486.428 163.428 486.663 163.734 486.839 164.102C487.015 164.467 487.104 164.865 487.108 165.295C487.104 165.846 486.955 166.336 486.66 166.767C486.368 167.195 485.962 167.531 485.442 167.776C484.925 168.018 484.327 168.139 483.647 168.139ZM483.647 167.045C484.108 167.045 484.506 166.971 484.841 166.822C485.175 166.673 485.434 166.462 485.616 166.19C485.798 165.919 485.891 165.6 485.895 165.236C485.891 164.851 485.792 164.512 485.596 164.217C485.401 163.922 485.134 163.69 484.796 163.521C484.461 163.352 484.078 163.267 483.647 163.267C483.213 163.267 482.825 163.352 482.484 163.521C482.146 163.69 481.879 163.922 481.684 164.217C481.491 164.512 481.397 164.851 481.4 165.236C481.397 165.6 481.485 165.919 481.664 166.19C481.846 166.462 482.106 166.673 482.444 166.822C482.782 166.971 483.183 167.045 483.647 167.045ZM483.647 162.213C484.012 162.213 484.335 162.14 484.617 161.994C484.902 161.848 485.126 161.645 485.288 161.383C485.45 161.121 485.533 160.814 485.537 160.463C485.533 160.118 485.452 159.818 485.293 159.563C485.134 159.305 484.913 159.106 484.632 158.967C484.35 158.824 484.022 158.753 483.647 158.753C483.266 158.753 482.933 158.824 482.648 158.967C482.363 159.106 482.143 159.305 481.987 159.563C481.831 159.818 481.755 160.118 481.758 160.463C481.755 160.814 481.833 161.121 481.992 161.383C482.154 161.645 482.378 161.848 482.663 161.994C482.948 162.14 483.276 162.213 483.647 162.213ZM497.385 161H496.152C496.079 160.645 495.952 160.334 495.769 160.065C495.59 159.797 495.372 159.571 495.113 159.389C494.858 159.204 494.575 159.064 494.263 158.972C493.951 158.879 493.627 158.832 493.289 158.832C492.672 158.832 492.114 158.988 491.613 159.3C491.116 159.611 490.72 160.07 490.425 160.677C490.133 161.283 489.987 162.027 489.987 162.909C489.987 163.791 490.133 164.535 490.425 165.141C490.72 165.748 491.116 166.207 491.613 166.518C492.114 166.83 492.672 166.986 493.289 166.986C493.627 166.986 493.951 166.939 494.263 166.847C494.575 166.754 494.858 166.616 495.113 166.434C495.372 166.248 495.59 166.021 495.769 165.753C495.952 165.481 496.079 165.17 496.152 164.818H497.385C497.292 165.339 497.123 165.804 496.878 166.215C496.633 166.626 496.328 166.976 495.963 167.264C495.599 167.549 495.189 167.766 494.735 167.915C494.285 168.065 493.802 168.139 493.289 168.139C492.42 168.139 491.648 167.927 490.972 167.503C490.296 167.079 489.764 166.475 489.376 165.693C488.988 164.911 488.794 163.983 488.794 162.909C488.794 161.835 488.988 160.907 489.376 160.125C489.764 159.343 490.296 158.74 490.972 158.315C491.648 157.891 492.42 157.679 493.289 157.679C493.802 157.679 494.285 157.754 494.735 157.903C495.189 158.052 495.599 158.271 495.963 158.559C496.328 158.844 496.633 159.192 496.878 159.603C497.123 160.011 497.292 160.476 497.385 161ZM502.579 168.139C502.162 168.133 501.744 168.053 501.326 167.901C500.909 167.748 500.528 167.491 500.183 167.13C499.838 166.765 499.561 166.273 499.353 165.653C499.144 165.03 499.039 164.248 499.039 163.307C499.039 162.405 499.124 161.607 499.293 160.911C499.462 160.211 499.707 159.623 500.029 159.146C500.35 158.665 500.738 158.3 501.192 158.052C501.65 157.803 502.165 157.679 502.738 157.679C503.308 157.679 503.815 157.793 504.26 158.022C504.707 158.247 505.072 158.562 505.353 158.967C505.635 159.371 505.817 159.837 505.9 160.364H504.687C504.574 159.906 504.356 159.527 504.031 159.225C503.706 158.924 503.275 158.773 502.738 158.773C501.949 158.773 501.328 159.116 500.874 159.802C500.423 160.488 500.196 161.451 500.193 162.69H500.272C500.458 162.409 500.678 162.168 500.934 161.969C501.192 161.767 501.477 161.612 501.789 161.502C502.1 161.393 502.43 161.338 502.778 161.338C503.361 161.338 503.895 161.484 504.379 161.776C504.863 162.064 505.251 162.463 505.542 162.974C505.834 163.481 505.98 164.062 505.98 164.719C505.98 165.348 505.839 165.925 505.557 166.449C505.275 166.969 504.879 167.384 504.369 167.692C503.862 167.997 503.265 168.146 502.579 168.139ZM502.579 167.045C502.997 167.045 503.371 166.941 503.703 166.732C504.038 166.523 504.301 166.243 504.493 165.892C504.689 165.541 504.787 165.15 504.787 164.719C504.787 164.298 504.692 163.915 504.503 163.57C504.318 163.222 504.061 162.946 503.733 162.74C503.408 162.535 503.037 162.432 502.619 162.432C502.304 162.432 502.011 162.495 501.739 162.621C501.467 162.743 501.229 162.912 501.023 163.128C500.821 163.343 500.662 163.59 500.546 163.869C500.43 164.144 500.372 164.434 500.372 164.739C500.372 165.143 500.466 165.521 500.655 165.872C500.847 166.223 501.109 166.507 501.441 166.722C501.775 166.938 502.155 167.045 502.579 167.045ZM508.114 168V157.818H511.673C512.383 157.818 512.968 157.941 513.428 158.186C513.889 158.428 514.232 158.754 514.458 159.165C514.683 159.573 514.796 160.026 514.796 160.523C514.796 160.96 514.718 161.321 514.562 161.607C514.41 161.892 514.207 162.117 513.955 162.283C513.707 162.448 513.437 162.571 513.145 162.651V162.75C513.457 162.77 513.77 162.879 514.085 163.078C514.4 163.277 514.663 163.562 514.875 163.933C515.087 164.304 515.193 164.759 515.193 165.295C515.193 165.806 515.077 166.265 514.845 166.673C514.613 167.08 514.247 167.403 513.747 167.642C513.246 167.881 512.595 168 511.793 168H508.114ZM509.347 166.906H511.793C512.598 166.906 513.17 166.75 513.508 166.439C513.849 166.124 514.02 165.743 514.02 165.295C514.02 164.951 513.932 164.633 513.757 164.341C513.581 164.046 513.331 163.811 513.006 163.635C512.681 163.456 512.297 163.366 511.852 163.366H509.347V166.906ZM509.347 162.293H511.634C512.005 162.293 512.34 162.22 512.638 162.074C512.94 161.928 513.178 161.723 513.354 161.457C513.533 161.192 513.622 160.881 513.622 160.523C513.622 160.075 513.467 159.696 513.155 159.384C512.843 159.069 512.35 158.912 511.673 158.912H509.347V162.293ZM516.802 165.912V164.898L521.276 157.818H522.012V159.389H521.515L518.134 164.739V164.818H524.16V165.912H516.802ZM521.594 168V165.604V165.131V157.818H522.768V168H521.594ZM529.344 168H526.202V157.818H529.483C530.471 157.818 531.316 158.022 532.018 158.43C532.721 158.834 533.26 159.416 533.634 160.175C534.009 160.93 534.196 161.835 534.196 162.889C534.196 163.95 534.007 164.863 533.629 165.629C533.251 166.391 532.701 166.978 531.979 167.388C531.256 167.796 530.378 168 529.344 168ZM527.435 166.906H529.264C530.106 166.906 530.804 166.744 531.357 166.419C531.911 166.094 532.323 165.632 532.595 165.032C532.867 164.432 533.003 163.718 533.003 162.889C533.003 162.067 532.869 161.36 532.6 160.766C532.332 160.17 531.931 159.712 531.397 159.394C530.863 159.073 530.199 158.912 529.403 158.912H527.435V166.906Z" fill="black"/>
</g>
<g filter="url(#filter3_d_299_62)">
<rect x="643.5" width="147" height="144" fill="#49342E"/>
<rect x="643.5" y="144" width="147" height="39" fill="white"/>
<path d="M689.372 168L691.043 157.818H692.037L690.366 168H689.372ZM684.739 165.176L684.898 164.182H692.494L692.335 165.176H684.739ZM685.793 168L687.463 157.818H688.457L686.787 168H685.793ZM685.335 161.636L685.494 160.642H693.091L692.932 161.636H685.335ZM694.147 165.912V164.898L698.622 157.818H699.358V159.389H698.86L695.48 164.739V164.818H701.505V165.912H694.147ZM698.94 168V165.604V165.131V157.818H700.113V168H698.94ZM706.61 157.679C707.028 157.682 707.445 157.762 707.863 157.918C708.28 158.073 708.662 158.332 709.006 158.693C709.351 159.051 709.628 159.54 709.836 160.16C710.045 160.78 710.15 161.557 710.15 162.491C710.15 163.396 710.064 164.2 709.891 164.903C709.722 165.602 709.477 166.192 709.155 166.673C708.837 167.153 708.449 167.518 707.992 167.766C707.538 168.015 707.024 168.139 706.451 168.139C705.881 168.139 705.372 168.027 704.925 167.801C704.48 167.572 704.116 167.256 703.831 166.852C703.549 166.444 703.368 165.972 703.289 165.435H704.502C704.611 165.902 704.828 166.288 705.153 166.593C705.481 166.895 705.914 167.045 706.451 167.045C707.236 167.045 707.856 166.702 708.31 166.016C708.768 165.33 708.996 164.361 708.996 163.108H708.917C708.731 163.386 708.511 163.627 708.256 163.829C708 164.031 707.717 164.187 707.405 164.296C707.094 164.406 706.762 164.46 706.411 164.46C705.828 164.46 705.292 164.316 704.805 164.028C704.321 163.736 703.934 163.337 703.642 162.83C703.354 162.319 703.209 161.736 703.209 161.08C703.209 160.456 703.349 159.886 703.627 159.369C703.909 158.849 704.303 158.435 704.81 158.126C705.321 157.818 705.921 157.669 706.61 157.679ZM706.61 158.773C706.192 158.773 705.816 158.877 705.481 159.086C705.15 159.291 704.886 159.57 704.691 159.921C704.499 160.269 704.403 160.655 704.403 161.08C704.403 161.504 704.495 161.89 704.681 162.238C704.87 162.583 705.127 162.858 705.452 163.063C705.78 163.265 706.153 163.366 706.57 163.366C706.885 163.366 707.178 163.305 707.45 163.183C707.722 163.057 707.959 162.886 708.161 162.67C708.367 162.452 708.527 162.205 708.643 161.93C708.759 161.651 708.817 161.361 708.817 161.06C708.817 160.662 708.721 160.289 708.529 159.941C708.34 159.593 708.078 159.311 707.743 159.096C707.412 158.88 707.034 158.773 706.61 158.773ZM715.545 168.139C714.889 168.139 714.304 168.027 713.79 167.801C713.28 167.576 712.874 167.263 712.572 166.862C712.274 166.457 712.111 165.988 712.085 165.455H713.338C713.364 165.783 713.477 166.066 713.676 166.305C713.875 166.54 714.135 166.722 714.456 166.852C714.778 166.981 715.134 167.045 715.525 167.045C715.963 167.045 716.35 166.969 716.689 166.817C717.027 166.664 717.292 166.452 717.484 166.18C717.676 165.909 717.772 165.594 717.772 165.236C717.772 164.861 717.68 164.531 717.494 164.246C717.308 163.958 717.037 163.733 716.679 163.57C716.321 163.408 715.883 163.327 715.366 163.327H714.551V162.233H715.366C715.77 162.233 716.125 162.16 716.43 162.014C716.738 161.868 716.979 161.663 717.151 161.398C717.327 161.133 717.414 160.821 717.414 160.463C717.414 160.118 717.338 159.818 717.186 159.563C717.033 159.308 716.818 159.109 716.539 158.967C716.264 158.824 715.94 158.753 715.565 158.753C715.214 158.753 714.882 158.817 714.571 158.947C714.262 159.073 714.011 159.257 713.815 159.499C713.619 159.737 713.513 160.026 713.497 160.364H712.304C712.324 159.83 712.484 159.363 712.786 158.962C713.087 158.557 713.482 158.242 713.969 158.017C714.46 157.792 714.998 157.679 715.585 157.679C716.215 157.679 716.755 157.807 717.206 158.062C717.656 158.314 718.003 158.647 718.245 159.061C718.487 159.475 718.608 159.923 718.608 160.403C718.608 160.977 718.457 161.466 718.155 161.87C717.857 162.274 717.451 162.554 716.937 162.71V162.79C717.58 162.896 718.082 163.169 718.444 163.61C718.805 164.048 718.985 164.589 718.985 165.236C718.985 165.789 718.835 166.286 718.533 166.727C718.235 167.165 717.827 167.509 717.31 167.761C716.793 168.013 716.205 168.139 715.545 168.139ZM720.78 165.912V164.898L725.255 157.818H725.99V159.389H725.493L722.113 164.739V164.818H728.138V165.912H720.78ZM725.573 168V165.604V165.131V157.818H726.746V168H725.573ZM730.001 168V167.105L733.362 163.426C733.756 162.995 734.081 162.621 734.336 162.303C734.592 161.981 734.781 161.679 734.903 161.398C735.029 161.113 735.092 160.814 735.092 160.503C735.092 160.145 735.006 159.835 734.834 159.573C734.665 159.311 734.433 159.109 734.138 158.967C733.843 158.824 733.511 158.753 733.143 158.753C732.752 158.753 732.411 158.834 732.119 158.996C731.831 159.156 731.607 159.379 731.448 159.668C731.292 159.956 731.214 160.294 731.214 160.682H730.041C730.041 160.085 730.179 159.562 730.454 159.111C730.729 158.66 731.103 158.309 731.577 158.057C732.055 157.805 732.59 157.679 733.183 157.679C733.78 157.679 734.308 157.805 734.769 158.057C735.23 158.309 735.591 158.648 735.853 159.076C736.115 159.504 736.246 159.979 736.246 160.503C736.246 160.877 736.178 161.244 736.042 161.602C735.909 161.956 735.677 162.352 735.346 162.79C735.018 163.224 734.562 163.754 733.979 164.381L731.692 166.827V166.906H736.425V168H730.001ZM738.657 168V157.818H744.802V158.912H739.89V162.352H744.483V163.446H739.89V166.906H744.881V168H738.657Z" fill="black"/>
</g>
<defs>
<filter id="filter0_d_299_62" x="0.3" y="0" width="157.4" height="194.2" filterUnits="userSpaceOnUse" color-interpolation-filters="sRGB">
<feFlood flood-opacity="0" result="BackgroundImageFix"/>
<feColorMatrix in="SourceAlpha" type="matrix" values="0 0 0 0 0 0 0 0 0 0 0 0 0 0 0 0 0 0 127 0" result="hardAlpha"/>
<feOffset dx="4" dy="6"/>
<feGaussianBlur stdDeviation="2.6"/>
<feComposite in2="hardAlpha" operator="out"/>
<feColorMatrix type="matrix" values="0 0 0 0 0 0 0 0 0 0 0 0 0 0 0 0 0 0 0.25 0"/>
<feBlend mode="normal" in2="BackgroundImageFix" result="effect1_dropShadow_299_62"/>
<feBlend mode="normal" in="SourceGraphic" in2="effect1_dropShadow_299_62" result="shape"/>
</filter>
<filter id="filter1_d_299_62" x="213.5" y="0" width="159" height="195" filterUnits="userSpaceOnUse" color-interpolation-filters="sRGB">
<feFlood flood-opacity="0" result="BackgroundImageFix"/>
<feColorMatrix in="SourceAlpha" type="matrix" values="0 0 0 0 0 0 0 0 0 0 0 0 0 0 0 0 0 0 127 0" result="hardAlpha"/>
<feOffset dx="4" dy="6"/>
<feGaussianBlur stdDeviation="3"/>
<feComposite in2="hardAlpha" operator="out"/>
<feColorMatrix type="matrix" values="0 0 0 0 0 0 0 0 0 0 0 0 0 0 0 0 0 0 0.25 0"/>
<feBlend mode="normal" in2="BackgroundImageFix" result="effect1_dropShadow_299_62"/>
<feBlend mode="normal" in="SourceGraphic" in2="effect1_dropShadow_299_62" result="shape"/>
</filter>
<filter id="filter2_d_299_62" x="428.3" y="0" width="155.4" height="192.2" filterUnits="userSpaceOnUse" color-interpolation-filters="sRGB">
<feFlood flood-opacity="0" result="BackgroundImageFix"/>
<feColorMatrix in="SourceAlpha" type="matrix" values="0 0 0 0 0 0 0 0 0 0 0 0 0 0 0 0 0 0 127 0" result="hardAlpha"/>
<feOffset dx="3" dy="5"/>
<feGaussianBlur stdDeviation="2.1"/>
<feComposite in2="hardAlpha" operator="out"/>
<feColorMatrix type="matrix" values="0 0 0 0 0 0 0 0 0 0 0 0 0 0 0 0 0 0 0.25 0"/>
<feBlend mode="normal" in2="BackgroundImageFix" result="effect1_dropShadow_299_62"/>
<feBlend mode="normal" in="SourceGraphic" in2="effect1_dropShadow_299_62" result="shape"/>
</filter>
<filter id="filter3_d_299_62" x="642.3" y="0" width="155.4" height="192.2" filterUnits="userSpaceOnUse" color-interpolation-filters="sRGB">
<feFlood flood-opacity="0" result="BackgroundImageFix"/>
<feColorMatrix in="SourceAlpha" type="matrix" values="0 0 0 0 0 0 0 0 0 0 0 0 0 0 0 0 0 0 127 0" result="hardAlpha"/>
<feOffset dx="3" dy="5"/>
<feGaussianBlur stdDeviation="2.1"/>
<feComposite in2="hardAlpha" operator="out"/>
<feColorMatrix type="matrix" values="0 0 0 0 0 0 0 0 0 0 0 0 0 0 0 0 0 0 0.25 0"/>
<feBlend mode="normal" in2="BackgroundImageFix" result="effect1_dropShadow_299_62"/>
<feBlend mode="normal" in="SourceGraphic" in2="effect1_dropShadow_299_62" result="shape"/>
</filter>
</defs>
</svg>
