<svg width="698" height="76" viewBox="0 0 698 76" fill="none" xmlns="http://www.w3.org/2000/svg">
<g clip-path="url(#clip0_296_19)">
<path d="M85.2158 60.7522C93.6471 55.0547 99.7914 46.7595 103.302 36.1426C107.778 22.589 106.789 9.13595 106.467 4.71851C106.442 4.31692 106.405 3.85259 106.393 3.68945C106.43 1.71917 104.922 0.075179 102.981 -0.000118212C101.015 -0.087965 99.3587 1.46818 99.2721 3.46355C99.2598 3.87769 99.2845 4.32947 99.3587 5.24559C100.978 27.2951 96.3422 54.9167 65.04 61.3044C59.6499 62.3962 54.0372 62.4589 48.3628 61.4926C35.5304 59.2839 25.8628 53.6115 19.6444 44.6135C8.01115 27.8097 11.9301 4.65576 11.9919 4.27927C12.3504 2.309 11.0647 0.426566 9.12378 0.0626295C7.18285 -0.301307 5.32845 1.00384 4.96994 2.97412C4.77213 4.04083 0.39576 29.3533 13.7474 48.7297C17.073 53.5613 21.2021 57.5646 26.0977 60.7396C10.4095 62.1954 -0.012207 64.7931 -0.012207 67.7423C-0.012207 72.2978 24.8738 75.9999 55.5826 75.9999C86.2914 75.9999 111.177 72.2978 111.177 67.7423C111.177 64.8057 100.805 62.2205 85.2035 60.7522H85.2158Z" fill="#A88F78"/>
<path d="M110.065 32.7417C109.607 32.7417 109.137 32.7291 108.668 32.6915C107.308 32.5911 106.282 31.3863 106.381 30.0059C106.48 28.6254 107.642 27.5713 109.026 27.6842C112.117 27.9227 115.096 27.1069 117.383 25.4002C119.547 23.7939 120.845 21.5726 121.018 19.138C121.191 16.7034 120.239 14.319 118.323 12.3989C116.295 10.3784 113.477 9.13601 110.386 8.91012C109.026 8.80972 108 7.60496 108.099 6.22452C108.198 4.84407 109.36 3.82755 110.745 3.90285C115.01 4.21659 118.929 5.97352 121.797 8.82227C124.764 11.784 126.235 15.5739 125.951 19.5019C125.666 23.4174 123.664 26.9564 120.301 29.4537C117.42 31.5871 113.823 32.7417 110.052 32.7417H110.065Z" fill="#A88F78"/>
</g>
<g clip-path="url(#clip1_296_19)">
<path d="M222 21.2366C222 21.2366 239.862 5.07161 262.093 17.0658C284.324 29.06 292.002 31.8981 308 21.7302C308 21.7302 308 62.3525 265.944 63.4631C228.789 64.4626 222.074 26.6414 222 21.2366Z" fill="#8C6B4D"/>
<path d="M266.413 14.7087C266.413 14.7087 289.867 8.6499 307.802 16.5843C307.802 16.5843 301.099 25.1974 287.2 23.5069C276.535 22.2112 266.413 14.7087 266.413 14.7087Z" fill="#E4BD74"/>
</g>
<g clip-path="url(#clip2_296_19)">
<path d="M447.275 52.9754C447.212 52.9754 447.138 52.9508 447.063 52.9385C444.425 52.3235 442.334 51.4256 440.691 50.1956C438.127 48.2768 437.38 46.2595 438.413 44.0578C438.513 43.8364 438.55 43.5289 438.363 43.2952L438.202 43.0984C437.604 42.3604 436.982 41.5978 436.272 40.8844C436.061 40.6753 435.712 40.5646 435.364 40.4662C435.227 40.4293 435.09 40.3924 434.966 40.3432C434.094 40.0111 433.223 39.679 432.352 39.3469C430.124 38.4982 427.822 37.6248 425.594 36.7392C424.586 36.3333 423.615 35.8782 422.669 35.4231C422.233 35.214 421.798 35.0049 421.35 34.8081C421.312 34.7958 421.275 34.7835 421.25 34.7835C421.188 34.7835 421.126 34.7835 421.063 34.8081C420.976 34.845 420.902 34.9188 420.877 35.0172C420.566 36.0258 421.636 36.5916 422.146 36.8622C423.378 37.5141 424.374 38.3383 425.208 39.3961C426.39 40.8967 426.552 42.3727 425.743 43.9102C425.295 44.7466 424.486 45.46 423.354 46.0258C423.167 46.1119 422.955 46.1488 422.719 46.1119C422.532 46.0873 422.32 46.0258 422.109 45.9274C420.628 45.2386 419.483 44.5006 418.612 43.7011C416.546 41.8069 416.147 39.8881 417.379 37.8462C417.554 37.5633 417.865 37.305 418.188 37.0344C418.388 36.8745 418.587 36.7023 418.773 36.5178C418.985 36.2964 419.234 36.0012 419.184 35.6814C419.085 35.0541 418.973 34.3284 418.649 33.6396C418.512 33.3321 418.126 33.1107 417.753 32.9139C417.653 32.8647 417.554 32.8032 417.467 32.754C416.882 32.3973 416.272 32.0406 415.674 31.6962C414.492 31.0074 413.285 30.294 412.165 29.5437C410.211 28.2399 408.331 26.8376 406.514 25.4846L406.315 25.337C405.693 24.8696 405.133 24.3653 404.585 23.8733C404.398 23.6642 404.224 23.5043 404.05 23.3567C404.025 23.3321 404 23.2952 404 23.2829C404.012 23.2337 404.137 23.1107 404.448 23.0369C404.635 23 404.809 23 404.983 23C405.232 23.0369 405.469 23.1353 405.668 23.2829C406.128 23.6519 406.589 24.0332 407.024 24.4145C407.423 24.7589 407.821 25.091 408.232 25.4231C408.418 25.5707 408.667 25.6322 408.916 25.706C408.978 25.7183 409.041 25.7429 409.09 25.7552C409.128 25.7552 409.153 25.7675 409.19 25.7798C409.252 25.7798 409.314 25.7798 409.389 25.7798C409.414 25.7798 409.439 25.7798 409.464 25.7798C410.659 25.9151 411.468 25.5707 412.115 25.214C413.247 24.5867 414.753 24.1808 416.595 24.0086C418.164 23.861 419.707 23.8856 421.213 24.0824C422.719 24.2792 424.299 24.6851 425.768 25.2509C426.614 25.583 427.398 26.0012 428.195 26.4317C428.307 26.4932 428.357 26.5547 428.357 26.6162C428.357 26.7146 428.245 26.8991 427.996 27.0467C426.303 28.0308 424.461 28.5966 422.345 28.7688C420.839 28.8918 419.358 28.8549 417.939 28.6704C416.023 28.4244 414.143 27.8831 412.364 27.0713C412.264 27.0344 412.177 26.9729 412.09 26.9237C411.841 26.7761 411.567 26.6162 411.181 26.567C410.995 26.5424 410.796 26.5424 410.584 26.5793C410.447 26.6039 410.347 26.7023 410.31 26.8253C410.285 26.9483 410.335 27.0836 410.435 27.1574C410.634 27.305 410.833 27.4526 411.032 27.6002C411.468 27.92 411.878 28.2276 412.314 28.5105L412.588 28.6827C413.633 29.3715 414.716 30.0849 415.836 30.7491C417.043 31.4625 418.3 32.1636 419.52 32.8401C420.03 33.123 420.528 33.4059 421.026 33.6888C421.063 33.7134 421.113 33.7257 421.138 33.738C421.586 34.0824 422.084 34.2792 422.644 34.353C423.179 34.4268 423.752 34.3776 424.511 34.2177C424.81 34.1562 425.059 34.1193 425.283 34.1193C425.917 34.1193 426.191 33.8487 426.428 33.6027C427.361 32.6556 428.581 31.9668 430.099 31.5117C432.476 30.8106 434.966 30.6138 437.505 30.9459C437.803 30.9828 438.114 31.032 438.413 31.0935C439.708 31.3272 440.989 31.7208 442.234 32.0898L442.757 32.2497C443.155 32.3727 443.23 32.4834 443.242 32.5203C443.267 32.5941 443.205 32.7294 443.08 32.9016C442.632 33.492 441.998 34.0086 441.151 34.5006C439.608 35.3739 437.704 35.8782 435.339 36.0135C433.995 36.0996 432.651 36.0504 431.356 35.8782C429.962 35.6937 428.568 35.3616 427.224 34.8819C427.125 34.845 427.013 34.8204 426.888 34.8081C426.726 34.7835 426.565 34.7835 426.403 34.7958C426.092 34.8204 425.793 34.8573 425.444 34.9065C425.295 34.9311 425.121 34.9557 424.934 34.968C424.785 34.9926 424.66 35.1033 424.648 35.2386C424.635 35.3739 424.71 35.5215 424.847 35.583C425.395 35.8167 425.917 36.0504 426.44 36.2718C427.598 36.7761 428.693 37.2558 429.838 37.674C432.327 38.5843 434.878 39.4453 437.355 40.294L439.259 40.9459C439.832 41.1427 440.579 41.3887 441.375 41.5486C441.413 41.5486 441.45 41.5609 441.5 41.5732C441.873 41.6224 442.271 41.5732 442.657 41.4871C443.528 41.3272 444.375 41.1181 445.109 40.9459C445.321 40.8967 445.594 40.7614 445.706 40.54C446.03 39.8758 446.665 39.2485 447.698 38.572C448.669 37.9446 449.851 37.4895 451.233 37.2066C453.386 36.7638 455.589 36.69 457.792 36.9729C458.937 37.1205 460.106 37.3788 461.264 37.7232C461.7 37.8585 461.812 37.9692 461.836 38.0308C461.861 38.0923 461.836 38.1907 461.787 38.3383C460.816 40.3801 458.526 41.6224 454.78 42.1513C453.112 42.385 451.407 42.385 449.565 42.139C448.694 42.0283 447.785 41.8561 446.852 41.6347C446.802 41.6224 446.739 41.6101 446.69 41.6101C446.329 41.5609 445.968 41.6224 445.607 41.6839C445.433 41.7085 445.271 41.7454 445.109 41.7577C445.01 41.7577 444.935 41.8069 444.873 41.8807C444.81 41.9545 444.798 42.0406 444.81 42.1267L444.835 42.2866C444.86 42.4219 444.96 42.5203 445.097 42.5572C445.482 42.6433 445.868 42.7417 446.254 42.8278C447.088 43.0246 447.959 43.2337 448.83 43.3936C450.299 43.6765 451.793 43.9348 453.236 44.1931C454.381 44.4022 455.514 44.599 456.659 44.8081C456.783 44.8327 456.895 44.845 457.007 44.8696C457.779 44.968 458.489 44.9188 459.223 44.6974C461.687 43.9471 464.263 43.7503 466.877 44.0947C468.644 44.3284 470.462 44.8081 472.279 45.5338C473.934 46.198 475.141 46.9606 475.963 47.8708C475.963 47.8708 475.975 47.8831 475.988 47.8954C475.988 47.8954 475.963 47.9077 475.95 47.92C474.955 48.5228 473.623 48.9164 471.756 49.1378C470.051 49.3469 468.333 49.3346 466.653 49.1132C464.973 48.8918 463.417 48.4859 461.849 47.8831C460.492 47.3665 459.322 46.7146 458.364 45.9643C458.165 45.8044 457.841 45.6814 457.543 45.6322C453.411 45.0541 449.341 44.2915 445.433 43.3444C444.225 43.0492 442.993 42.7294 441.811 42.4096C441.276 42.262 440.741 42.1267 440.218 41.9914C440.081 41.9545 439.944 41.9176 439.807 41.8807L439.596 41.8192C439.596 41.8192 439.558 41.8192 439.546 41.8192C439.434 41.8069 439.309 41.8438 439.235 41.9299C439.147 42.0283 439.135 42.1636 439.185 42.2743C439.645 43.1722 440.031 43.4674 441.226 43.8118C443.777 44.5621 445.843 45.6814 447.349 47.1205C447.748 47.5018 448.034 47.9323 448.345 48.4121C449.179 49.7282 449.204 51.0443 448.42 52.5818C448.283 52.8524 447.872 53.0861 447.25 53L447.275 52.9754Z" fill="#333333"/>
</g>
<path d="M624.757 15.6243C605.787 5.39881 590.259 17.298 587.965 19.2239C588.057 19.2698 588.148 19.3156 588.24 19.3844C588.676 19.7283 589.089 20.0951 589.502 20.439C589.869 20.76 590.236 21.081 590.626 21.3791C590.786 21.5166 591.038 21.5854 591.268 21.6313C591.314 21.6313 591.383 21.6542 591.428 21.6771C591.451 21.6771 591.497 21.6771 591.52 21.6771C591.589 21.6771 591.635 21.6771 591.704 21.6771C591.727 21.6771 591.75 21.6771 591.772 21.6771C592.873 21.7917 593.63 21.4708 594.227 21.1498C595.282 20.5537 596.681 20.1868 598.379 20.0264C599.824 19.8888 601.269 19.9117 602.645 20.0951C604.09 20.2786 605.489 20.6454 606.866 21.1956C607.645 21.4937 608.379 21.8835 609.113 22.2961C609.205 22.342 609.251 22.4108 609.274 22.4796C609.274 22.5713 609.182 22.7318 608.93 22.8693C607.37 23.7864 605.65 24.3137 603.7 24.4742C602.301 24.5889 600.948 24.543 599.617 24.3825C597.851 24.1532 596.108 23.6488 594.456 22.8922C594.364 22.8464 594.296 22.8005 594.204 22.7547C593.974 22.6171 593.722 22.4566 593.378 22.4108C593.195 22.3879 593.034 22.4108 592.828 22.4108C592.713 22.4108 592.598 22.5254 592.575 22.64C592.552 22.7547 592.575 22.8693 592.69 22.961C592.873 23.0986 593.057 23.2362 593.24 23.3737C593.63 23.6718 594.02 23.9469 594.433 24.222L594.686 24.3825C595.649 25.0245 596.658 25.6894 597.69 26.3084C598.814 26.9733 599.984 27.6382 601.108 28.2572C601.567 28.5094 602.049 28.7845 602.507 29.0367C602.553 29.0367 602.576 29.0826 602.622 29.0826C603.035 29.4036 603.494 29.587 604.021 29.6558C604.503 29.7245 605.053 29.6787 605.742 29.5182C606.017 29.4494 606.246 29.4265 606.453 29.4265C607.049 29.4265 607.301 29.1743 607.508 28.945C608.357 28.0509 609.503 27.4089 610.903 26.9962C613.105 26.3313 615.398 26.1479 617.761 26.4689C618.036 26.5147 618.335 26.5606 618.61 26.6065C619.803 26.8128 620.995 27.1796 622.142 27.5465L622.624 27.684C622.991 27.7987 623.06 27.9133 623.083 27.9362C623.106 28.005 623.06 28.1426 622.945 28.2801C622.532 28.8304 621.936 29.3119 621.156 29.7704C619.734 30.5958 617.968 31.0543 615.788 31.1919C614.55 31.2607 613.311 31.2148 612.095 31.0543C610.811 30.8938 609.526 30.5729 608.265 30.1372C608.173 30.1143 608.058 30.0914 607.944 30.0685C607.806 30.0685 607.645 30.0455 607.485 30.0685C607.21 30.0685 606.911 30.1372 606.59 30.1602C606.453 30.1602 606.292 30.206 606.132 30.2289C605.994 30.2289 605.879 30.3436 605.856 30.4811C605.856 30.6187 605.925 30.7563 606.04 30.8021C606.544 31.0085 607.026 31.2377 607.508 31.4441C608.586 31.9256 609.595 32.3612 610.65 32.7509C612.944 33.5992 615.307 34.4017 617.601 35.2041L619.367 35.8003C619.894 35.9837 620.582 36.2129 621.316 36.3505C621.362 36.3505 621.385 36.3505 621.431 36.3505C621.775 36.3964 622.142 36.3505 622.509 36.2817C623.312 36.1212 624.092 35.9378 624.78 35.7773C624.964 35.7315 625.239 35.5939 625.331 35.3876C625.629 34.7685 626.202 34.1724 627.166 33.5534C628.06 32.9573 629.161 32.5446 630.446 32.2695C632.441 31.8568 634.483 31.788 636.524 32.0631C637.579 32.2007 638.658 32.43 639.736 32.7739C640.148 32.8885 640.24 33.0031 640.263 33.0719C640.286 33.1407 640.263 33.2324 640.217 33.347C639.323 35.25 637.189 36.4193 633.749 36.9237C632.212 37.153 630.629 37.13 628.932 36.9237C628.129 36.809 627.28 36.6486 626.409 36.4422C626.363 36.4422 626.317 36.4422 626.248 36.4193C625.927 36.3734 625.583 36.4193 625.239 36.4881C625.078 36.511 624.918 36.5339 624.78 36.5568C624.688 36.5568 624.62 36.6027 624.551 36.6715C624.505 36.7403 624.482 36.809 624.482 36.9008V37.0383C624.528 37.153 624.62 37.2676 624.757 37.2905C625.124 37.3822 625.468 37.451 625.835 37.5427C626.615 37.7261 627.418 37.9096 628.221 38.07C629.574 38.3222 630.95 38.5744 632.304 38.8266C633.359 39.0101 634.414 39.2164 635.469 39.3998C635.584 39.3998 635.699 39.4457 635.79 39.4457C636.501 39.5374 637.167 39.4915 637.832 39.2852C640.103 38.5974 642.488 38.391 644.92 38.712C646.548 38.9183 648.246 39.3769 649.92 40.0647C651.457 40.6837 652.558 41.3945 653.338 42.2657C653.338 42.2657 653.338 42.2657 653.338 42.2886C653.338 42.2886 653.338 42.2886 653.315 42.2886C652.397 42.8618 651.159 43.2287 649.438 43.435C647.856 43.6184 646.273 43.6184 644.713 43.435C643.222 43.2287 641.731 42.8389 640.263 42.2886C639.002 41.8072 637.924 41.1881 637.029 40.5003C636.845 40.3628 636.547 40.2252 636.272 40.2023C632.464 39.6749 628.68 38.9413 625.078 38.07C623.954 37.7949 622.83 37.4969 621.729 37.1988C621.248 37.0612 620.743 36.9237 620.261 36.809C620.147 36.7861 620.009 36.7403 619.894 36.6944L619.688 36.6486C619.688 36.6486 619.665 36.6486 619.642 36.6486C619.527 36.6486 619.436 36.6715 619.367 36.7403C619.275 36.832 619.275 36.9466 619.321 37.0612C619.757 37.9095 620.101 38.1847 621.202 38.5057C623.564 39.2164 625.468 40.2481 626.867 41.6008C627.234 41.9677 627.51 42.3574 627.785 42.816C628.565 44.054 628.588 45.2921 627.854 46.7136C627.739 46.9658 627.349 47.1721 626.776 47.1034C626.707 47.1034 626.638 47.1033 626.592 47.0575C624.138 46.4843 622.211 45.636 620.697 44.4897C618.335 42.7013 617.646 40.8213 618.587 38.7579C618.679 38.5515 618.724 38.2535 618.541 38.0471L618.403 37.8637C617.853 37.1759 617.279 36.4651 616.614 35.8003C616.431 35.5939 616.087 35.5022 615.765 35.4105C615.628 35.3646 615.513 35.3417 615.398 35.2959C614.596 34.9749 613.793 34.6768 612.99 34.3558C610.926 33.5534 608.792 32.7509 606.728 31.9026C605.81 31.5358 604.893 31.1002 604.021 30.6646C603.608 30.4811 603.218 30.2748 602.806 30.0914C602.783 30.0914 602.737 30.0685 602.714 30.0685C602.645 30.0685 602.599 30.0685 602.553 30.0685C602.462 30.1143 602.393 30.1831 602.37 30.2519C602.072 31.1919 603.081 31.7192 603.54 31.9714C604.686 32.5675 605.604 33.347 606.361 34.3329C607.439 35.7315 607.6 37.1071 606.843 38.5515C606.43 39.331 605.696 39.9959 604.618 40.5232C604.457 40.615 604.251 40.6379 604.044 40.615C603.861 40.592 603.677 40.5233 603.494 40.4315C602.117 39.7896 601.062 39.1018 600.259 38.3452C598.356 36.5798 597.966 34.7685 599.113 32.8656C599.273 32.5904 599.548 32.3612 599.87 32.109C600.053 31.9485 600.237 31.788 600.42 31.6275C600.626 31.4212 600.833 31.146 600.787 30.848C600.695 30.2519 600.581 29.587 600.305 28.945C600.168 28.647 599.824 28.4636 599.48 28.2572C599.388 28.2114 599.296 28.1655 599.204 28.0967C598.654 27.7528 598.103 27.4318 597.553 27.1108C596.475 26.4689 595.328 25.804 594.296 25.0933C592.484 23.8781 590.763 22.5483 589.066 21.2873L588.882 21.1498C588.492 20.8517 588.125 20.5307 587.781 20.2327C588.424 27.4318 595.534 59.3465 628.381 58.4752C667.307 57.4435 667.307 19.8659 667.307 19.8659C652.512 29.266 644.53 26.1708 624.826 15.5556L624.757 15.6243Z" fill="#8C6B4D"/>
<path d="M587.965 19.247C587.85 19.2011 587.735 19.1553 587.598 19.1323C587.437 19.1323 587.277 19.1323 587.116 19.1553C586.818 19.224 586.703 19.3387 586.703 19.3845C586.703 19.3845 586.703 19.4304 586.749 19.4533C586.91 19.5909 587.07 19.7514 587.231 19.8889C587.391 20.0265 587.552 20.187 587.735 20.3475C587.712 20.0036 587.689 19.7284 587.689 19.4992C587.689 19.4992 587.781 19.4075 587.988 19.247H587.965Z" fill="white"/>
<path d="M628.748 13.4463C628.748 13.4463 650.447 7.85206 667.054 15.1658C667.054 15.1658 660.861 23.1445 647.993 21.5625C638.13 20.3703 628.748 13.4234 628.748 13.4234V13.4463Z" fill="#E4BD74"/>
<path d="M656.733 60.2864C665.128 54.7151 671.229 46.5759 674.716 36.1899C679.166 22.9151 678.18 9.75487 677.858 5.42163C677.835 5.03187 677.79 4.57333 677.79 4.41283C677.835 2.48695 676.322 0.882049 674.395 0.790341C672.445 0.721559 670.794 2.23475 670.702 4.18356C670.702 4.57332 670.702 5.03187 670.794 5.92603C672.399 27.5234 667.789 54.5546 636.662 60.8137C631.317 61.8913 625.721 61.9371 620.078 60.9971C607.324 58.842 597.713 53.2706 591.52 44.4666C579.959 28.0278 583.859 5.35285 583.928 4.98601C584.272 3.06013 583.01 1.22596 581.083 0.859122C579.157 0.515215 577.299 1.77621 576.955 3.70209C576.771 4.75674 572.413 29.541 585.694 48.5018C588.997 53.2248 593.103 57.1453 597.966 60.2634C582.368 61.6849 572 64.2298 572 67.1187C572 71.5895 596.75 75.212 627.28 75.212C657.811 75.212 682.561 71.5895 682.561 67.1187C682.561 64.2298 672.262 61.7079 656.733 60.2864Z" fill="#A88F78"/>
<path d="M681.437 32.8426C680.978 32.8426 680.52 32.8426 680.061 32.7968C678.707 32.7051 677.698 31.5129 677.79 30.1602C677.882 28.8075 679.12 27.7757 680.428 27.8904C686.644 28.3718 691.989 24.5889 692.356 19.522C692.723 14.4551 687.974 9.96132 681.781 9.50278C680.428 9.41107 679.419 8.21886 679.51 6.86615C679.602 5.51345 680.818 4.50466 682.148 4.59636C691.048 5.26125 697.838 12.0936 697.264 19.8659C696.714 27.2255 689.764 32.8197 681.437 32.8197V32.8426Z" fill="#A88F78"/>
<path d="M166 34.5H181" stroke="#8C6B4D" stroke-width="3" stroke-linecap="round"/>
<path d="M173.5 42L173.5 27" stroke="#8C6B4D" stroke-width="3" stroke-linecap="round"/>
<path d="M357 34.5H372" stroke="#8C6B4D" stroke-width="3" stroke-linecap="round"/>
<path d="M364.5 42L364.5 27" stroke="#8C6B4D" stroke-width="3" stroke-linecap="round"/>
<path d="M517 30H532" stroke="#8C6B4D" stroke-width="3" stroke-linecap="round"/>
<path d="M517 39.5H532" stroke="#8C6B4D" stroke-width="3" stroke-linecap="round"/>
<defs>
<clipPath id="clip0_296_19">
<rect width="126" height="76" fill="white"/>
</clipPath>
<clipPath id="clip1_296_19">
<rect width="86" height="51" fill="white" transform="translate(222 12.5)"/>
</clipPath>
<clipPath id="clip2_296_19">
<rect width="72" height="30" fill="white" transform="translate(404 23)"/>
</clipPath>
</defs>
</svg>
