<svg width="559" height="83" viewBox="0 0 559 83" fill="none" xmlns="http://www.w3.org/2000/svg">
<path d="M373.588 9.24701L374.898 9.6159V10.4064C374.898 11.9873 374.164 12.7778 372.698 12.7778H367.617C367.407 12.7778 367.224 12.7778 367.067 12.7778L367.538 13.1994L366.202 14.5695H377.124V15.7816C375.736 17.1781 373.955 18.3374 371.755 19.3123C374.4 20.1028 377.438 20.5244 380.921 20.5507L380.529 21.9472C376.417 21.8945 372.855 21.2885 369.79 20.0501C366.936 20.9987 363.452 21.631 359.419 21.9472L359 20.6298C362.431 20.3663 365.417 19.8656 367.957 19.2069C366.464 18.4165 365.102 17.4679 363.924 16.3612C362.771 17.1517 361.567 17.8631 360.257 18.4955L359.602 17.3888C362.405 16.1241 364.683 14.5432 366.464 12.646C365.757 12.3298 365.417 11.6448 365.417 10.6435V8.69368H366.7V10.7489C366.7 11.3286 366.988 11.6184 367.564 11.6184H372.619C373.248 11.6184 373.562 11.3022 373.562 10.6699V9.29971L373.588 9.24701ZM378.538 7.42893H361.279V9.69494H359.969V6.21688H363.819C363.557 5.66355 363.217 5.00483 362.798 4.24071L364.002 3.95087C364.474 4.76769 364.867 5.50546 365.181 6.21688H369.712C369.45 5.55816 369.083 4.84673 368.664 4.08261L369.869 3.79277C370.34 4.63594 370.76 5.47911 371.074 6.24323H374.531L376.233 3.37119L377.543 3.58198L375.867 6.24323H379.874V9.72129H378.564V7.45528L378.538 7.42893ZM360.179 2.00104C366.621 2.00104 372.829 1.55311 378.774 0.683594L379.35 1.89565C373.143 2.84421 366.883 3.29214 360.493 3.29214L360.179 2.00104ZM360.283 12.5143C361.357 11.5921 362.352 10.5645 363.243 9.40511L364.238 10.1692C363.374 11.3549 362.379 12.4352 361.279 13.3838L360.283 12.5406V12.5143ZM365.05 15.7289C366.412 16.8882 368.01 17.8368 369.869 18.6009C372.095 17.8368 373.876 16.8619 375.29 15.7289H365.05ZM369.712 7.90322C370.55 8.58829 371.283 9.29971 371.86 9.95844L370.838 10.6962C370.367 10.0902 369.633 9.40511 368.717 8.58829L369.738 7.90322H369.712ZM376.705 8.82543C377.831 10.0111 378.8 11.1441 379.586 12.3298L378.512 12.9886C377.752 11.8292 376.81 10.6699 375.657 9.48415L376.679 8.82543H376.705Z" fill="#49342E"/>
<path d="M388.491 21.8679H387.207V14.701C386.631 15.3598 386.003 15.9658 385.322 16.5718L384.641 15.4124C386.683 13.6734 388.203 11.7763 389.172 9.72107L390.219 10.2217C389.722 11.223 389.145 12.1979 388.464 13.1201V21.8416L388.491 21.8679ZM384.772 9.08869C386.553 7.79759 387.914 6.3484 388.857 4.71476L389.879 5.26809C388.779 7.16522 387.286 8.8252 385.374 10.2744L384.745 9.06234L384.772 9.08869ZM398.862 4.74111V3.13382H392.341V4.74111H391.057V3.13382H385.138V1.92177H391.057V0.709717H392.341V1.92177H398.862V0.709717H400.145V1.92177H406.117V3.13382H400.145V4.74111H398.862ZM393.179 14.9118V16.4664C393.179 18.7061 392.341 20.5505 390.691 21.947L389.8 20.893C391.188 19.76 391.869 18.2845 391.869 16.4664V14.9118H393.179ZM390.691 12.2506H398.05V13.4626H390.691V12.2506ZM390.743 10.5115V6.3484H391.948V9.27314H393.886V5.08365H395.091V9.27314H397.029V6.243H398.233V10.4852H390.743V10.5115ZM397.107 14.9118V18.4953L399.412 17.4677L399.595 18.7588C397.867 19.6019 396.662 20.2343 395.929 20.7086L395.274 19.3384C395.641 19.1277 395.824 18.7851 395.85 18.3108V14.9382H397.133L397.107 14.9118ZM405.122 9.69472C405.122 12.3296 404.572 14.7274 403.498 16.8616C404.31 18.2581 405.279 19.5756 406.405 20.814L405.462 21.8152C404.441 20.6295 403.55 19.3648 402.791 18.0473C401.9 19.4438 400.774 20.7349 399.36 21.8679L398.469 20.7876C399.988 19.5756 401.167 18.2318 402.083 16.7299C401.245 15.0172 400.564 13.2255 400.119 11.3284C399.779 11.908 399.438 12.4087 399.072 12.9093L398.233 11.8553C399.595 10.2217 400.564 7.79759 401.141 4.58302L402.503 4.68841C402.241 5.68967 401.979 6.66459 401.717 7.56045H406.248V8.77251H405.069V9.66837L405.122 9.69472ZM403.917 9.69472V8.79885H401.324L400.931 9.74742C401.324 11.7763 401.926 13.6734 402.764 15.4388C403.524 13.6998 403.917 11.8026 403.917 9.69472Z" fill="#49342E"/>
<path d="M410.936 20.1027C411.774 18.39 412.455 16.6246 412.927 14.7538L414.21 15.07C413.765 16.9935 413.136 18.8116 412.272 20.5506L410.91 20.1027H410.936ZM429.663 1.57935V12.0926H413.136V1.57935H429.663ZM420.836 6.21677V2.89679H414.42V6.21677H420.836ZM420.836 10.7751V7.42882H414.42V10.7751H420.836ZM426.127 16.651L427.436 16.9935V18.996C427.436 20.577 426.703 21.3674 425.236 21.3674H418.479C417.013 21.3674 416.279 20.6297 416.279 19.1541V13.7526H417.589V19.1805C417.589 19.7601 417.877 20.05 418.453 20.05H425.184C425.813 20.05 426.127 19.7338 426.127 19.1014V16.6246V16.651ZM420.915 12.6986C422.041 13.8843 423.036 15.07 423.848 16.2821L422.67 16.9935C421.936 15.8078 420.993 14.5957 419.841 13.3573L420.889 12.6986H420.915ZM422.12 2.89679V6.21677H428.353V2.89679H422.12ZM422.12 7.42882V10.7751H428.353V7.42882H422.12ZM429.427 14.2532C430.501 16.0186 431.365 17.784 432.072 19.4967L430.763 19.9446C430.16 18.3109 429.322 16.5456 428.196 14.7275L429.427 14.2796V14.2532Z" fill="#49342E"/>
<path d="M441.081 9.74738V21.947H439.798V12.1978C438.986 14.3584 437.912 16.3346 436.55 18.1L436.131 16.5718C437.624 14.7537 438.724 12.4613 439.457 9.72103H436.445V8.40358H439.771V0.656982H441.055V8.40358H443.962V9.72103H441.055L441.081 9.74738ZM437.676 2.10617C438.148 3.50267 438.462 4.97821 438.645 6.45376L437.519 6.6909C437.283 5.2417 436.943 3.81886 436.498 2.44871L437.702 2.13252L437.676 2.10617ZM441.998 12.0397C442.94 13.0937 443.726 14.174 444.355 15.228L443.569 16.3873C442.993 15.307 442.233 14.2004 441.29 13.041L441.971 12.0397H441.998ZM444.328 2.36966C444.04 3.97695 443.674 5.45249 443.176 6.74359L442.076 6.40106C442.548 5.13631 442.914 3.71346 443.124 2.10617L444.328 2.36966ZM457.607 3.66076H451.924V5.32075H457.267V6.5328H451.924V8.29818H457.79V9.51024H444.8V8.29818H450.614V6.5328H445.874V5.32075H450.614V3.66076H445.35V2.44871H450.614V0.683329H451.924V2.44871H457.607V3.66076ZM446.057 21.947V10.9858H456.507V19.9708C456.507 21.2355 455.931 21.8679 454.778 21.8679H451.793L451.452 20.6559H454.569C455.014 20.6559 455.224 20.4451 455.224 20.0235V18.1264H447.367V21.947H446.057ZM447.367 14.095H455.224V12.1978H447.367V14.095ZM455.198 15.228H447.34V16.9933H455.198V15.228Z" fill="#49342E"/>
<path d="M470.414 12.1717V21.8682H469.105V20.1555H463.945V21.8682H462.662V12.1717H470.414ZM463.945 13.3838V18.9171H469.105V13.3838H463.945ZM478.664 2.08008V9.51049H465.098V2.08008H478.664ZM477.355 3.29213H466.381V8.29844H477.355V3.29213ZM481.153 12.1717V21.8682H479.869V20.1555H474.605V21.8682H473.322V12.1717H481.153ZM474.605 13.3838V18.9171H479.869V13.3838H474.605Z" fill="#49342E"/>
<path d="M492.1 3.02843V19.2594H490.79V17.1251H488.328V20.2343H487.019V3.02843H492.1ZM488.328 4.31953V15.8077H490.79V4.31953H488.328ZM499.433 4.37223V16.9143C499.433 19.0223 499.249 20.3397 498.857 20.8667C498.464 21.3937 497.757 21.6572 496.761 21.6572H495.373L495.007 20.3661H496.683C497.311 20.3661 497.678 20.1816 497.888 19.7864C498.071 19.3911 498.176 18.2318 498.176 16.2556V5.71602H495.976V8.45632C495.976 14.4902 494.928 18.9696 492.833 21.9997L491.838 21.0775C493.723 18.3372 494.666 14.095 494.666 8.45632V5.71602H492.964V4.39858H494.666V0.709717H495.976V4.39858H499.459L499.433 4.37223ZM501.188 21.8679V3.13382H506.714V21.7889H505.404V19.1277H502.497V21.8679H501.188ZM502.497 4.39858V17.7839H505.404V4.39858H502.497Z" fill="#49342E"/>
<path d="M518.264 3.10744V19.5755H516.98V17.2832H513.785V20.3133H512.476V3.10744H518.264ZM513.811 4.39854V15.9921H517.007V4.39854H513.811ZM524.366 0.683329V12.4877C524.366 16.8089 523.318 19.9444 521.223 21.947L520.097 21.1828C521.407 19.8917 522.297 18.1527 522.742 16.0184C521.564 16.3346 520.333 16.6508 519.023 16.9143L518.735 15.5705C520.228 15.2807 521.616 14.9645 522.926 14.6219C523.004 13.9632 523.03 13.2254 523.03 12.4877V11.2756H519.364V9.95817H523.03V6.05852H519.18V4.74107H523.03V0.683329H524.34H524.366ZM533.035 16.3083H528.871V21.947H527.587V0.656982H528.871V4.71472H532.773V6.03217H528.871V9.93182H532.407V11.2493H528.871V14.9908H533.035V16.3083Z" fill="#49342E"/>
<path d="M537.384 6.32222C539.139 4.82033 540.658 2.89685 541.993 0.604492L543.277 1.07877L542.805 1.84289C544.062 3.00225 545.215 4.1616 546.21 5.4L545.293 6.45397C544.429 5.26826 543.355 4.08256 542.098 2.87051C540.841 4.63589 539.453 6.21682 537.934 7.66602L537.41 6.32222H537.384ZM538.693 7.92951H545.267V15.4653H539.898V19.8919L544.01 18.6799C543.67 17.9158 543.303 17.099 542.858 16.2558L543.931 15.7025C544.927 17.5205 545.686 19.2332 546.236 20.8142L545.031 21.4465C544.874 20.9459 544.691 20.3926 544.481 19.8129C541.836 20.577 539.95 21.2094 538.772 21.7627L538.143 20.3926C538.484 20.1818 538.667 19.8392 538.693 19.365V7.92951ZM539.898 11.1177H544.036V9.14156H539.898V11.1177ZM544.062 12.2507H539.924V14.2269H544.062V12.2507ZM540.448 5.26826H544.036V6.40127H540.448V5.26826ZM557.158 4.18795H547.624V7.00729H546.42V3.00225H551.919C551.789 2.34352 551.605 1.60575 551.343 0.867983L552.679 0.736238C552.915 1.55306 553.098 2.31718 553.203 3.0286H558.362V7.03364H557.158V4.2143V4.18795ZM547.834 21.8681V6.69111H556.66V12.3298H549.039V14.8066H557.655V21.8945H556.45V20.4716H549.065V21.8945H547.86L547.834 21.8681ZM555.429 7.90316H549.039V11.0914H555.429V7.90316ZM556.424 15.9923H549.039V19.2069H556.424V15.9923Z" fill="#49342E"/>
<g clip-path="url(#clip0_517_161)">
<path d="M3.3401 73.7374V77.2563C3.3401 77.7497 3.395 78.1127 3.49567 78.3361C3.59633 78.5596 3.77935 78.7085 4.03557 78.783C4.2918 78.8575 4.71274 78.9133 5.28925 78.9412V79.3322C4.62123 79.295 3.67868 79.2764 2.46161 79.2764C1.36349 79.2764 0.539906 79.295 0 79.3322V78.9412C0.457548 78.9133 0.796133 78.8668 1.00661 78.783C1.21708 78.7085 1.36349 78.5503 1.4367 78.3361C1.50991 78.1127 1.55566 77.759 1.55566 77.2563V67.5561C1.55566 67.0628 1.51906 66.6997 1.4367 66.4856C1.35434 66.2715 1.21708 66.1132 1.00661 66.0387C0.796133 65.9643 0.457548 65.9084 0 65.8805V65.4895C0.539906 65.5267 1.31774 65.5454 2.34264 65.5454L4.41991 65.5267C4.66699 65.5174 4.94152 65.5081 5.2435 65.5081C6.74426 65.5081 7.88812 65.8619 8.68426 66.5507C9.48039 67.2489 9.87388 68.1798 9.87388 69.3528C9.87388 70.0696 9.71832 70.7585 9.40718 71.4194C9.09605 72.0804 8.5653 72.6296 7.81492 73.0672C7.06454 73.514 6.06708 73.7281 4.82255 73.7281H3.3401V73.7374ZM3.87085 66.0108C3.66953 66.1039 3.53227 66.2622 3.45906 66.4949C3.38585 66.7276 3.3401 67.0814 3.3401 67.5468V73.3371H4.63038C5.88407 73.3371 6.75341 72.9927 7.22926 72.3131C7.71426 71.6335 7.95218 70.7119 7.95218 69.5669C7.95218 68.3009 7.70511 67.37 7.21095 66.7742C6.7168 66.1784 5.90237 65.8712 4.7585 65.8712C4.36501 65.8712 4.06302 65.9177 3.8617 66.0108H3.87085Z" fill="#5E4A45"/>
<path d="M13.873 77.5076C13.873 78.0382 13.9828 78.4106 14.2024 78.6154C14.4221 78.8202 14.7973 78.9226 15.3372 78.9226V79.3322C14.1567 79.2763 13.388 79.2577 13.0128 79.2577C12.6376 79.2577 11.869 79.2856 10.6885 79.3322V78.9226C11.2284 78.9226 11.6036 78.8202 11.8232 78.6154C12.0428 78.4106 12.1526 78.0475 12.1526 77.5076V66.3459C12.1526 65.7501 12.0428 65.3126 11.8232 65.0333C11.6036 64.7634 11.2284 64.6237 10.6885 64.6237V64.2141C11.082 64.2513 11.4846 64.27 11.8781 64.27C12.6834 64.27 13.3514 64.1769 13.873 64V77.5076Z" fill="#5E4A45"/>
<path d="M17.0944 78.8481C16.701 78.4385 16.5088 77.8707 16.5088 77.1353C16.5088 76.5488 16.6644 76.0647 16.9755 75.6923C17.2866 75.3107 17.6618 75.0128 18.0919 74.7894C18.522 74.5659 19.0894 74.3332 19.794 74.0819C20.5078 73.8305 21.0477 73.6071 21.3862 73.4023C21.7248 73.1975 21.9079 72.9089 21.9079 72.5645V71.3543C21.9079 70.6002 21.7523 70.0789 21.4412 69.7996C21.13 69.5204 20.6908 69.3807 20.1234 69.3807C19.2266 69.3807 18.5952 69.6135 18.22 70.0882C18.4762 70.1534 18.6867 70.293 18.8606 70.4978C19.0345 70.7026 19.1168 70.9633 19.1168 71.2798C19.1168 71.5963 19.0161 71.8663 18.8057 72.0525C18.6044 72.2386 18.339 72.3317 18.0187 72.3317C17.6618 72.3317 17.3873 72.22 17.2134 71.9873C17.0304 71.7639 16.948 71.4846 16.948 71.1588C16.948 70.833 17.0212 70.5816 17.1677 70.3768C17.3141 70.172 17.5337 69.9579 17.8265 69.7531C18.1377 69.5297 18.522 69.3528 18.9978 69.2039C19.4737 69.0642 19.9862 68.9897 20.5535 68.9897C21.551 68.9897 22.3105 69.2318 22.8229 69.7159C23.1432 70.0138 23.3537 70.3768 23.4635 70.805C23.5733 71.2333 23.6282 71.7825 23.6282 72.4807V77.9172C23.6282 78.2431 23.674 78.4758 23.7655 78.6247C23.857 78.7737 24.0126 78.8388 24.223 78.8388C24.3786 78.8388 24.525 78.8016 24.6531 78.7271C24.7904 78.6527 24.9277 78.5503 25.0832 78.4199L25.2937 78.7551C24.9643 79.0157 24.6806 79.2019 24.4427 79.3136C24.2047 79.4253 23.9119 79.4812 23.5459 79.4812C22.9328 79.4812 22.5027 79.3229 22.2556 79.0157C22.0085 78.6992 21.8896 78.2803 21.8896 77.7404C21.5052 78.392 21.066 78.8481 20.5627 79.0995C20.0594 79.3508 19.5012 79.4812 18.8697 79.4812C18.0645 79.4812 17.4605 79.2764 17.0761 78.8668L17.0944 78.8481ZM21.9079 77.2004V73.3651C21.7889 73.5512 21.6333 73.7002 21.432 73.8119C21.2307 73.9236 20.9104 74.0819 20.4895 74.2774C20.0045 74.4822 19.611 74.687 19.309 74.8731C19.007 75.0593 18.7508 75.32 18.5311 75.6458C18.3115 75.9716 18.2017 76.3905 18.2017 76.8932C18.2017 77.4797 18.339 77.9265 18.6227 78.2244C18.9063 78.5223 19.2724 78.6713 19.7391 78.6713C20.581 78.6713 21.3039 78.1779 21.9079 77.1818V77.2004Z" fill="#5E4A45"/>
<path d="M34.7092 69.2598V69.6508C34.453 69.6787 34.2242 69.7904 34.0229 70.0045C33.8216 70.2093 33.6386 70.5537 33.4556 71.0192L30.3076 79.4254L29.6579 81.1289C29.4108 81.7713 29.1363 82.2274 28.8343 82.4974C28.6422 82.6836 28.4134 82.8139 28.1388 82.8884C27.8643 82.9629 27.5989 83.0001 27.3336 83.0001C26.9492 83.0001 26.6381 82.8977 26.391 82.6836C26.1439 82.4788 26.025 82.1902 26.025 81.8271C26.025 81.5106 26.1165 81.2593 26.2904 81.0731C26.4642 80.8869 26.7204 80.7938 27.0407 80.7938C27.3244 80.7938 27.5532 80.8776 27.7454 81.0359C27.9284 81.1941 28.0199 81.4268 28.0199 81.7061C28.0199 82.0971 27.846 82.395 27.4983 82.5905C27.5257 82.5998 27.5623 82.6091 27.6172 82.6091C28.3219 82.6091 28.8709 82.1064 29.2553 81.0824L29.9233 79.3044L26.4459 70.7585C26.2263 70.321 26.0067 70.0231 25.7962 69.8835C25.5766 69.7438 25.357 69.6694 25.1465 69.6694V69.2598C25.6955 69.3342 26.327 69.3808 27.0316 69.3808C27.6721 69.3808 28.5049 69.3435 29.5298 69.2598V69.6694C29.0722 69.6694 28.7337 69.7066 28.5232 69.7904C28.3127 69.8649 28.2029 70.0604 28.2029 70.3582C28.2029 70.6282 28.2761 70.954 28.4317 71.3171L30.7377 77.1446L32.8699 71.494C33.0072 71.103 33.0804 70.8051 33.0804 70.591C33.0804 70.2931 32.9614 70.0697 32.7326 69.93C32.5039 69.7904 32.1378 69.6973 31.6345 69.6601V69.2691C32.3117 69.3063 32.8516 69.3249 33.2451 69.3249C33.8124 69.3249 34.2974 69.3063 34.7092 69.2691V69.2598Z" fill="#5E4A45"/>
<path d="M41.7377 64.568C42.1312 64.8938 42.3325 65.2941 42.3325 65.7782C42.3325 66.0761 42.2318 66.3274 42.0396 66.5229C41.8475 66.7184 41.6004 66.8208 41.3076 66.8208C41.0147 66.8208 40.7585 66.7277 40.5572 66.5415C40.3559 66.3553 40.2461 66.0947 40.2461 65.7689C40.2461 65.4989 40.3193 65.2755 40.4657 65.1079C40.6121 64.9403 40.8134 64.8286 41.0513 64.7728C41.0147 64.6424 40.9141 64.54 40.7402 64.4563C40.5663 64.3725 40.365 64.3352 40.1088 64.3352C39.8251 64.3352 39.578 64.4004 39.3584 64.5307C39.1388 64.6611 38.9741 64.8379 38.8551 65.0614C38.7179 65.322 38.6172 65.7037 38.5806 66.2157C38.5348 66.7277 38.5165 67.5748 38.5165 68.7757V69.2784H40.5755V69.6694H38.5165V77.3122C38.5165 77.908 38.6904 78.3269 39.029 78.5596C39.3676 78.7924 39.88 78.9134 40.5572 78.9134V79.323L40.0996 79.3044C38.7911 79.2671 37.9583 79.2485 37.6014 79.2485C37.272 79.2485 36.5125 79.2765 35.332 79.323V78.9134C35.8719 78.9134 36.2471 78.811 36.4667 78.6062C36.6863 78.4014 36.7961 78.0383 36.7961 77.4984V69.6694H35.2588V69.2784H36.7961C36.7961 68.1334 36.8694 67.249 37.0066 66.616C37.1439 65.983 37.4001 65.4523 37.7753 65.0148C38.0315 64.7169 38.361 64.4749 38.7545 64.298C39.1479 64.1211 39.5872 64.0374 40.063 64.0374C40.7311 64.0374 41.2893 64.2142 41.7377 64.568Z" fill="#5E4A45"/>
<path d="M42.4792 78.8481C42.0857 78.4385 41.8936 77.8707 41.8936 77.1353C41.8936 76.5488 42.0491 76.0647 42.3603 75.6923C42.6714 75.3107 43.0466 75.0128 43.4767 74.7894C43.9068 74.5659 44.4741 74.3332 45.1787 74.0819C45.8925 73.8305 46.4324 73.6071 46.771 73.4023C47.1096 73.1975 47.2926 72.9089 47.2926 72.5645V71.3543C47.2926 70.6002 47.1371 70.0789 46.8259 69.7996C46.5148 69.5204 46.0755 69.3807 45.5082 69.3807C44.6114 69.3807 43.98 69.6135 43.6048 70.0882C43.861 70.1534 44.0715 70.293 44.2454 70.4978C44.4192 70.7026 44.5016 70.9633 44.5016 71.2798C44.5016 71.5963 44.4009 71.8663 44.1904 72.0525C43.9891 72.2386 43.7237 72.3317 43.4035 72.3317C43.0466 72.3317 42.772 72.22 42.5982 71.9873C42.4152 71.7639 42.3328 71.4846 42.3328 71.1588C42.3328 70.833 42.406 70.5816 42.5524 70.3768C42.6988 70.172 42.9185 69.9579 43.2113 69.7531C43.5224 69.5297 43.9068 69.3528 44.3826 69.2039C44.8585 69.0642 45.3709 68.9897 45.9383 68.9897C46.9357 68.9897 47.6953 69.2318 48.2077 69.7159C48.528 70.0138 48.7385 70.3768 48.8483 70.805C48.9581 71.2333 49.013 71.7825 49.013 72.4807V77.9172C49.013 78.2431 49.0588 78.4758 49.1503 78.6247C49.2418 78.7737 49.3973 78.8388 49.6078 78.8388C49.7634 78.8388 49.9098 78.8016 50.0379 78.7271C50.1752 78.6527 50.3124 78.5503 50.468 78.4199L50.6785 78.7551C50.349 79.0157 50.0654 79.2019 49.8274 79.3136C49.5895 79.4253 49.2967 79.4812 48.9306 79.4812C48.3175 79.4812 47.8874 79.3229 47.6404 79.0157C47.3933 78.6992 47.2743 78.2803 47.2743 77.7404C46.89 78.392 46.4507 78.8481 45.9474 79.0995C45.4441 79.3508 44.8859 79.4812 44.2545 79.4812C43.4492 79.4812 42.8453 79.2764 42.4609 78.8668L42.4792 78.8481ZM47.2926 77.2004V73.3651C47.1737 73.5512 47.0181 73.7002 46.8168 73.8119C46.6154 73.9236 46.2952 74.0819 45.8742 74.2774C45.3892 74.4822 44.9957 74.687 44.6937 74.8731C44.3918 75.0593 44.1355 75.32 43.9159 75.6458C43.6963 75.9716 43.5865 76.3905 43.5865 76.8932C43.5865 77.4797 43.7237 77.9265 44.0074 78.2244C44.2911 78.5223 44.6571 78.6713 45.1238 78.6713C45.9657 78.6713 46.6887 78.1779 47.2926 77.1818V77.2004Z" fill="#5E4A45"/>
<path d="M54.457 77.5075C54.457 78.0382 54.5668 78.4105 54.7864 78.6153C55.0061 78.8201 55.3812 78.9225 55.9211 78.9225V79.3321C54.7407 79.2763 53.9628 79.2577 53.5968 79.2577C53.2308 79.2577 52.4529 79.2856 51.2725 79.3321V78.9225C51.8124 78.9225 52.1876 78.8201 52.4072 78.6153C52.6268 78.4105 52.7366 78.0475 52.7366 77.5075V71.3914C52.7366 70.7956 52.6268 70.3581 52.4072 70.0788C52.1876 69.7996 51.8124 69.6692 51.2725 69.6692V69.2596C51.6843 69.2969 52.0777 69.3155 52.4621 69.3155C53.2674 69.3155 53.9354 69.2224 54.457 69.0455V77.5075ZM54.3289 64.7447C54.576 64.996 54.6949 65.2846 54.6949 65.6197C54.6949 65.9549 54.576 66.2528 54.3289 66.5041C54.0818 66.7555 53.7981 66.8765 53.4595 66.8765C53.121 66.8765 52.8373 66.7555 52.5902 66.5041C52.3431 66.2528 52.2242 65.9642 52.2242 65.6197C52.2242 65.2753 52.3431 64.9867 52.5902 64.7447C52.8373 64.4933 53.121 64.3723 53.4595 64.3723C53.7981 64.3723 54.0818 64.4933 54.3289 64.7447Z" fill="#5E4A45"/>
<path d="M64.1388 69.4366C64.4682 69.7345 64.6329 70.0976 64.6329 70.5351C64.6329 70.8795 64.5323 71.1681 64.331 71.4102C64.1296 71.6522 63.8643 71.7732 63.5348 71.7732C63.2512 71.7732 63.0132 71.6801 62.8119 71.5033C62.6106 71.3171 62.5099 71.075 62.5099 70.7585C62.5099 70.3303 62.7295 69.9765 63.1596 69.7066C63.0681 69.5763 62.9309 69.5111 62.757 69.5111C62.2537 69.5111 61.8053 69.7066 61.3935 70.1069C60.9817 70.5072 60.6614 70.9912 60.4327 71.5591C60.2039 72.127 60.0849 72.6762 60.0849 73.1789V77.3215C60.0849 77.9173 60.2588 78.3362 60.5974 78.5689C60.936 78.8016 61.4484 78.9227 62.1256 78.9227V79.3323L61.668 79.3136C60.3595 79.2764 59.5267 79.2578 59.1698 79.2578C58.8404 79.2578 58.0809 79.2857 56.9004 79.3323V78.9227C57.4403 78.9227 57.8155 78.8203 58.0351 78.6155C58.2547 78.4107 58.3645 78.0476 58.3645 77.5077V71.3915C58.3645 70.7958 58.2547 70.3582 58.0351 70.079C57.8155 69.7997 57.4403 69.6693 56.9004 69.6693V69.2597C57.3122 69.297 57.7057 69.3156 58.09 69.3156C58.8953 69.3156 59.5633 69.2225 60.0849 69.0456V71.4846C60.3137 70.833 60.6797 70.2558 61.1922 69.7438C61.6955 69.2411 62.2628 68.9805 62.876 68.9805C63.3884 68.9805 63.8094 69.1294 64.1388 69.4273V69.4366Z" fill="#5E4A45"/>
<path d="M80.419 67.221C81.5445 68.3753 82.1119 70.051 82.1119 72.2573C82.1119 73.6816 81.8374 74.9197 81.2883 75.9902C80.7392 77.0608 79.9431 77.88 78.8999 78.4665C77.8567 79.0436 76.6122 79.3415 75.1663 79.3415L74.0499 79.3229C73.3361 79.295 72.8054 79.2857 72.4759 79.2857C71.4236 79.2857 70.6274 79.3043 70.0967 79.3415V78.9506C70.5542 78.9226 70.8928 78.8761 71.1033 78.7923C71.3138 78.7178 71.4602 78.5596 71.5334 78.3455C71.6066 78.122 71.6523 77.7683 71.6523 77.2656V67.5561C71.6523 67.0628 71.6157 66.6997 71.5334 66.4856C71.451 66.2715 71.3138 66.1132 71.1033 66.0387C70.8928 65.9643 70.5542 65.9084 70.0967 65.8805V65.4895C70.5451 65.5267 71.1673 65.5454 71.9635 65.5454L73.6015 65.5267C74.4708 65.4988 75.0565 65.4895 75.3493 65.4895C77.6188 65.4895 79.3117 66.0667 80.4373 67.221H80.419ZM73.9584 65.9736C73.7571 66.0667 73.6198 66.2249 73.5466 66.467C73.4734 66.709 73.4276 67.0534 73.4276 67.5189V77.2935C73.4276 77.759 73.4642 78.1127 73.5466 78.3455C73.629 78.5782 73.7571 78.7457 73.9584 78.8388C74.1597 78.9319 74.4617 78.9785 74.8735 78.9785C76.2278 78.9785 77.2985 78.7271 78.0855 78.2244C78.8633 77.7217 79.4124 76.9863 79.7235 76.0275C80.0346 75.0593 80.1902 73.8305 80.1902 72.3317C80.1902 70.833 80.0163 69.6135 79.6686 68.6639C79.3208 67.7144 78.7626 67.0162 77.9848 66.5414C77.207 66.0667 76.1638 65.8339 74.846 65.8339C74.4525 65.8339 74.1506 65.8805 73.9492 65.9736H73.9584Z" fill="#5E4A45"/>
<path d="M86.916 77.5075C86.916 78.0382 87.0258 78.4105 87.2454 78.6153C87.465 78.8201 87.8402 78.9225 88.3801 78.9225V79.3321C87.1997 79.2763 86.4218 79.2577 86.0558 79.2577C85.6898 79.2577 84.9119 79.2856 83.7314 79.3321V78.9225C84.2714 78.9225 84.6465 78.8201 84.8662 78.6153C85.0858 78.4105 85.1956 78.0475 85.1956 77.5075V71.3914C85.1956 70.7956 85.0858 70.3581 84.8662 70.0788C84.6465 69.7996 84.2714 69.6692 83.7314 69.6692V69.2596C84.1432 69.2969 84.5367 69.3155 84.9211 69.3155C85.7264 69.3155 86.3944 69.2224 86.916 69.0455V77.5075ZM86.7787 64.7447C87.0258 64.996 87.1448 65.2846 87.1448 65.6197C87.1448 65.9549 87.0258 66.2528 86.7787 66.5041C86.5316 66.7555 86.248 66.8765 85.9094 66.8765C85.5708 66.8765 85.2871 66.7555 85.04 66.5041C84.793 66.2528 84.674 65.9642 84.674 65.6197C84.674 65.2753 84.793 64.9867 85.04 64.7447C85.2871 64.4933 85.5708 64.3723 85.9094 64.3723C86.248 64.3723 86.5316 64.4933 86.7787 64.7447Z" fill="#5E4A45"/>
<path d="M94.0265 69.2038C94.3834 69.3434 94.6762 69.5203 94.8958 69.7158C95.0331 69.8182 95.1521 69.8741 95.2436 69.8741C95.4724 69.8741 95.6188 69.5855 95.6645 69.0176H96.1038C96.0489 69.6599 96.0306 70.7677 96.0306 72.341H95.5913C95.454 71.4845 95.1795 70.7677 94.7769 70.2092C94.3742 69.6506 93.7703 69.3714 92.9833 69.3714C92.5257 69.3714 92.1414 69.5017 91.8486 69.7717C91.5557 70.0416 91.4093 70.4047 91.4093 70.8794C91.4093 71.3542 91.5649 71.7173 91.8669 72.0245C92.178 72.3317 92.6722 72.6947 93.3493 73.1323C93.4683 73.1974 93.6422 73.3091 93.8709 73.4674C94.4566 73.8584 94.9324 74.2028 95.2893 74.5007C95.6462 74.7986 95.939 75.143 96.1678 75.534C96.3966 75.925 96.5064 76.3718 96.5064 76.8839C96.5064 77.7403 96.1861 78.4106 95.5547 78.8946C94.9233 79.3787 94.1455 79.6207 93.2212 79.6207C92.6447 79.6207 92.1414 79.5277 91.7022 79.3508C91.4185 79.2111 91.1531 79.0343 90.9152 78.8202C90.8603 78.7643 90.8054 78.7457 90.7413 78.7457C90.6498 78.7457 90.5674 78.8108 90.5034 78.9412C90.4302 79.0715 90.3753 79.2577 90.3387 79.4904H89.8994C89.9543 78.7457 89.9726 77.4424 89.9726 75.5806H90.4119C90.5491 76.8094 90.8054 77.7217 91.1805 78.3268C91.5557 78.9319 92.1872 79.2391 93.084 79.2391C93.5323 79.2391 93.9258 79.0901 94.2736 78.7922C94.6213 78.4943 94.7952 78.0196 94.7952 77.3865C94.7952 76.8745 94.6213 76.4463 94.2827 76.0926C93.9441 75.7388 93.3859 75.3199 92.6172 74.8172C91.9858 74.4169 91.51 74.0818 91.1623 73.8211C90.8237 73.5605 90.54 73.244 90.3112 72.8623C90.0824 72.4806 89.9635 72.0431 89.9635 71.5311C89.9635 70.7119 90.2289 70.0882 90.7688 69.6506C91.3087 69.2224 91.9858 69.0083 92.8094 69.0083C93.267 69.0083 93.6788 69.0828 94.0357 69.2224L94.0265 69.2038Z" fill="#5E4A45"/>
<path d="M105.913 69.5483C106.453 69.93 106.883 70.4792 107.194 71.2146C107.505 71.9408 107.651 72.8158 107.651 73.8305C107.651 74.8452 107.496 75.7761 107.185 76.6419C106.874 77.5169 106.379 78.2244 105.721 78.7737C105.062 79.3229 104.238 79.5929 103.25 79.5929C102.765 79.5929 102.316 79.4998 101.923 79.3043C101.529 79.1088 101.218 78.8575 100.999 78.5409V81.0451C100.999 81.5757 101.154 81.9481 101.456 82.1529C101.758 82.3577 102.225 82.4601 102.838 82.4601V82.8697L102.399 82.8511C101.209 82.8139 100.431 82.7952 100.074 82.7952C99.7634 82.7952 99.077 82.8232 97.9972 82.8697V82.4601C98.4731 82.4601 98.8025 82.3763 98.9855 82.1994C99.1685 82.0226 99.2601 81.7061 99.2601 81.2499V71.3915C99.2601 70.7957 99.1502 70.3582 98.9306 70.0789C98.711 69.809 98.3358 69.6693 97.7959 69.6693V69.2597C98.1894 69.2969 98.592 69.3156 98.9855 69.3156C99.7908 69.3156 100.459 69.2225 100.98 69.0456V71.1215C101.264 70.442 101.676 69.9207 102.207 69.5483C102.747 69.1759 103.36 68.9897 104.055 68.9897C104.751 68.9897 105.345 69.1759 105.894 69.5576L105.913 69.5483ZM105.785 74.1098C105.785 71.0843 105.043 69.5762 103.552 69.5762C102.975 69.5762 102.454 69.7903 101.996 70.2092C101.539 70.6282 101.2 71.2426 100.999 72.0338V77.8986C101.182 78.2803 101.438 78.5782 101.786 78.8109C102.133 79.0343 102.545 79.1554 103.039 79.1554C104.87 79.1554 105.785 77.4704 105.785 74.1098Z" fill="#5E4A45"/>
<path d="M112.173 77.5076C112.173 78.0382 112.283 78.4106 112.502 78.6154C112.722 78.8202 113.097 78.9226 113.637 78.9226V79.3322C112.456 79.2763 111.688 79.2577 111.313 79.2577C110.937 79.2577 110.169 79.2856 108.988 79.3322V78.9226C109.528 78.9226 109.903 78.8202 110.123 78.6154C110.343 78.4106 110.452 78.0475 110.452 77.5076V66.3459C110.452 65.7501 110.343 65.3126 110.123 65.0333C109.903 64.7634 109.528 64.6237 108.988 64.6237V64.2141C109.382 64.2513 109.784 64.27 110.178 64.27C110.983 64.27 111.651 64.1769 112.173 64V77.5076Z" fill="#5E4A45"/>
<path d="M115.384 78.8481C114.991 78.4385 114.799 77.8707 114.799 77.1353C114.799 76.5488 114.954 76.0647 115.266 75.6923C115.577 75.3107 115.952 75.0128 116.382 74.7894C116.812 74.5659 117.379 74.3332 118.084 74.0819C118.798 73.8305 119.338 73.6071 119.676 73.4023C120.015 73.1975 120.198 72.9089 120.198 72.5645V71.3543C120.198 70.6002 120.042 70.0789 119.731 69.7996C119.42 69.5204 118.981 69.3807 118.413 69.3807C117.517 69.3807 116.885 69.6135 116.51 70.0882C116.766 70.1534 116.977 70.293 117.151 70.4978C117.324 70.7026 117.407 70.9633 117.407 71.2798C117.407 71.5963 117.306 71.8663 117.096 72.0525C116.894 72.2386 116.629 72.3317 116.309 72.3317C115.952 72.3317 115.677 72.22 115.503 71.9873C115.32 71.7639 115.238 71.4846 115.238 71.1588C115.238 70.833 115.311 70.5816 115.458 70.3768C115.604 70.172 115.824 69.9579 116.117 69.7531C116.428 69.5297 116.812 69.3528 117.288 69.2039C117.764 69.0642 118.276 68.9897 118.844 68.9897C119.841 68.9897 120.601 69.2318 121.113 69.7159C121.433 70.0138 121.644 70.3768 121.754 70.805C121.863 71.2333 121.918 71.7825 121.918 72.4807V77.9172C121.918 78.2431 121.964 78.4758 122.056 78.6247C122.147 78.7737 122.303 78.8388 122.513 78.8388C122.669 78.8388 122.815 78.8016 122.943 78.7271C123.08 78.6527 123.218 78.5503 123.373 78.4199L123.584 78.7551C123.254 79.0157 122.971 79.2019 122.733 79.3136C122.495 79.4253 122.202 79.4812 121.836 79.4812C121.223 79.4812 120.793 79.3229 120.546 79.0157C120.299 78.6992 120.18 78.2803 120.18 77.7404C119.795 78.392 119.356 78.8481 118.853 79.0995C118.349 79.3508 117.791 79.4812 117.16 79.4812C116.354 79.4812 115.751 79.2764 115.366 78.8668L115.384 78.8481ZM120.198 77.2004V73.3651C120.079 73.5512 119.923 73.7002 119.722 73.8119C119.521 73.9236 119.2 74.0819 118.779 74.2774C118.294 74.4822 117.901 74.687 117.599 74.8731C117.297 75.0593 117.041 75.32 116.821 75.6458C116.602 75.9716 116.492 76.3905 116.492 76.8932C116.492 77.4797 116.629 77.9265 116.913 78.2244C117.196 78.5223 117.562 78.6713 118.029 78.6713C118.871 78.6713 119.594 78.1779 120.198 77.1818V77.2004Z" fill="#5E4A45"/>
<path d="M133 69.2598V69.6508C132.744 69.6787 132.515 69.7904 132.314 70.0045C132.113 70.2093 131.93 70.5537 131.747 71.0192L128.599 79.4254L127.949 81.1289C127.702 81.7713 127.427 82.2274 127.125 82.4974C126.933 82.6836 126.704 82.8139 126.43 82.8884C126.155 82.9629 125.89 83.0001 125.625 83.0001C125.24 83.0001 124.929 82.8977 124.682 82.6836C124.435 82.4788 124.316 82.1902 124.316 81.8271C124.316 81.5106 124.408 81.2593 124.581 81.0731C124.755 80.8869 125.011 80.7938 125.332 80.7938C125.615 80.7938 125.844 80.8776 126.036 81.0359C126.219 81.1941 126.311 81.4268 126.311 81.7061C126.311 82.0971 126.137 82.395 125.789 82.5905C125.817 82.5998 125.853 82.6091 125.908 82.6091C126.613 82.6091 127.162 82.1064 127.546 81.0824L128.214 79.3044L124.737 70.7585C124.517 70.321 124.298 70.0231 124.087 69.8835C123.868 69.7438 123.648 69.6694 123.438 69.6694V69.2598C123.987 69.3342 124.618 69.3808 125.323 69.3808C125.963 69.3808 126.796 69.3435 127.821 69.2598V69.6694C127.363 69.6694 127.025 69.7066 126.814 69.7904C126.604 69.8649 126.494 70.0604 126.494 70.3582C126.494 70.6282 126.567 70.954 126.723 71.3171L129.029 77.1446L131.161 71.494C131.298 71.103 131.371 70.8051 131.371 70.591C131.371 70.2931 131.252 70.0697 131.024 69.93C130.795 69.7904 130.429 69.6973 129.926 69.6601V69.2691C130.603 69.3063 131.143 69.3249 131.536 69.3249C132.103 69.3249 132.588 69.3063 133 69.2691V69.2598Z" fill="#5E4A45"/>
</g>
<g clip-path="url(#clip1_517_161)">
<path d="M412.544 80.7304L412 79.8543C415.21 78.7897 417.645 77.6172 419.264 76.3773C419.114 76.229 418.965 76.1077 418.842 75.9595C417.142 74.2344 415.822 71.9298 414.897 69.0727H412.435V68.1562H419.169C419.06 67.5093 418.869 66.8355 418.652 66.1212L419.577 66.0269C419.808 66.7681 419.985 67.4824 420.094 68.1562H426.813V69.0727H424.188C423.454 72.3341 422.257 74.7735 420.611 76.3907C422.202 77.6306 424.365 78.8166 427.058 79.9487L426.405 80.7708C423.712 79.6252 421.563 78.3584 419.93 76.9837C418.189 78.3988 415.727 79.6522 412.517 80.7169L412.544 80.7304ZM415.768 69.0727C416.639 71.6738 417.836 73.7627 419.427 75.326L419.93 75.7977L420.175 75.5686C421.644 74.0592 422.705 71.9029 423.345 69.0727H415.768Z" fill="black"/>
<path d="M431.942 67.1994V74.1132H436.281V80.9056H435.356V77.3073H433.044V77.8194C433.044 79.2614 432.214 80.3127 430.527 80.973L429.97 80.1914C431.384 79.6523 432.105 78.8706 432.105 77.8194V77.3073H430.065V76.4717H435.356V74.9892H431.031V67.1994H431.942ZM441.26 66.4043V73.0215H433.887V66.4043H441.26ZM434.812 68.4124H440.321V67.2668H434.812V68.4124ZM434.812 70.2318H440.321V69.1806H434.812V70.2318ZM440.335 71.0269H434.826V72.159H440.335V71.0269ZM444.117 67.1994V74.9757H439.791V76.4582H444.375V80.973H443.45V77.3073H439.791V80.9056H438.866V74.1132H443.205V67.1994H444.117Z" fill="black"/>
<path d="M454.509 73.9245V80.9057H453.584V80.0836H449.735V80.9057H448.81V73.9245H454.523H454.509ZM449.721 76.6739H453.571V74.7871H449.721V76.6739ZM453.571 77.4555H449.721V79.221H453.571V77.4555ZM460.358 66.7278V72.496H450.7V66.7278H460.358ZM451.625 69.221H459.42V67.5903H451.625V69.221ZM459.433 70.0027H451.639V71.6469H459.433V70.0027ZM462.331 73.9245V80.9057H461.406V80.0836H457.42V80.9057H456.509V73.9245H462.331ZM457.42 76.6739H461.406V74.7871H457.42V76.6739ZM461.406 77.4555H457.42V79.221H461.406V77.4555Z" fill="black"/>
<path d="M466.166 80.5689C466.901 79.5311 467.499 78.4395 468.016 77.267L468.819 77.5904C468.356 78.8034 467.785 79.9354 467.091 80.9866L466.18 80.5689H466.166ZM466.751 66.6335H473.838V67.55H471.702V69.5042H473.389V73.3856H471.648V75.3397H473.906V76.2562H466.778V66.6335H466.751ZM467.676 67.55V75.3397H470.696V73.3856H468.955V69.5042H470.764V67.55H467.676ZM472.505 70.3667H469.798V72.5365H472.505V70.3667ZM471.512 77.523C472.015 78.6416 472.423 79.7063 472.709 80.7441L471.757 80.9327C471.526 79.9354 471.158 78.8573 470.641 77.7117L471.512 77.523ZM475.266 77.3209C475.824 78.4395 476.259 79.5042 476.586 80.5419L475.634 80.771C475.375 79.7737 474.967 78.6955 474.409 77.55L475.253 77.3209H475.266ZM479.946 73.143L480.857 73.3856V74.895C480.857 75.8519 480.449 76.337 479.633 76.337H476.218C475.253 76.337 474.763 75.9327 474.763 75.1241V66.6335H480.272V71.5931H475.688V74.9759C475.688 75.2724 475.838 75.4071 476.123 75.4071H479.361C479.742 75.4071 479.932 75.2319 479.932 74.8546V73.143H479.946ZM479.361 67.55H475.702V70.6767H479.361V67.55ZM478.953 77.1322C479.714 78.2912 480.34 79.4233 480.843 80.5419L479.932 80.8788C479.51 79.8007 478.912 78.6416 478.136 77.4556L478.953 77.1322Z" fill="black"/>
<path d="M484.177 80.5688C484.83 79.6793 485.387 78.7224 485.823 77.7116L486.625 78.0485C486.217 79.0998 485.714 80.0836 485.088 81L484.177 80.5688ZM497.412 66.6604V72.0647H491.93V73.7493H497.956V74.5849H491.93V76.3235H498.65V77.186H484.19V76.3235H491.005V74.5849H484.884V73.7493H491.005V72.0647H485.523V66.6604H497.399H497.412ZM491.019 71.2022V67.5229H486.448V71.2022H491.019ZM488.897 70.6227C488.57 70.0297 488.162 69.3423 487.659 68.6011L488.38 68.1968C489.019 69.1671 489.427 69.841 489.618 70.2453L488.897 70.6227ZM489.659 78.062C489.999 79.0054 490.257 79.9084 490.448 80.7844L489.55 80.9192C489.4 80.0836 489.155 79.1671 488.802 78.2103L489.672 78.0755L489.659 78.062ZM491.93 67.5229V71.2022H496.501V67.5229H491.93ZM493.345 77.8868C493.821 78.8033 494.216 79.7197 494.501 80.5957L493.617 80.8248C493.372 79.9623 492.991 79.0863 492.488 78.1294L493.331 77.8868H493.345ZM493.331 70.124C493.753 69.5849 494.216 68.965 494.705 68.2103L495.358 68.6954C494.719 69.6523 494.243 70.2857 493.971 70.6227L493.331 70.124ZM497.113 77.6173C497.78 78.6011 498.337 79.5715 498.773 80.5283L497.875 80.8787C497.48 79.9623 496.95 78.9919 496.242 77.9812L497.113 77.6038V77.6173Z" fill="black"/>
<path d="M502.567 80.9057V73.655H501.806V71.0404H502.567V66.5391H507.383V71.027H508.022V73.4528H507.451V79.4771C507.451 80.3666 507.043 80.7978 506.227 80.7978H504.975L504.717 79.8814H506.159C506.458 79.8814 506.594 79.7332 506.594 79.4501V78.4124H503.438V80.9057H502.567ZM507.152 71.8625H502.663V73.2237H507.152V71.8625ZM503.424 67.3881V71.027H504.567V68.8437H506.512V67.3881H503.424ZM506.58 74.0863H503.424V75.4744H506.58V74.0863ZM506.58 76.2695H503.424V77.6307H506.58V76.2695ZM505.37 69.6388V71.027H506.512V69.6388H505.37ZM516.293 75.0431V78.2237H515.218L514.66 79.7062H516.986V80.5013H508.199V79.7062H510.647L510.131 78.2237H509.002V75.0431H516.293ZM508.457 73.1429H516.742V73.9245H508.457V73.1429ZM516.497 72.0243H508.743V67.1321H511.042V66H511.885V67.1321H513.327V66H514.198V67.1321H516.497V72.0243ZM511.042 69.1806V67.9137H509.6V69.1806H511.042ZM511.042 71.2426V69.9218H509.6V71.2426H511.042ZM515.436 75.8248H509.859V77.4286H515.436V75.8248ZM514.347 78.2237H511.056L511.545 79.7062H513.803L514.361 78.2237H514.347ZM513.327 69.1806V67.9137H511.885V69.1806H513.327ZM513.327 71.2426V69.9218H511.885V71.2426H513.327ZM514.198 67.9272V69.1941H515.64V67.9272H514.198ZM514.198 69.9084V71.2291H515.64V69.9084H514.198Z" fill="black"/>
</g>
<path d="M5.1454 19.6468C5.1454 20.3765 5.30763 20.89 5.60504 21.1602C5.90244 21.4305 6.44319 21.5926 7.20023 21.5926V22.1601C5.55096 22.0791 4.44244 22.052 3.92873 22.052C3.41502 22.052 2.3065 22.0791 0.657227 22.1601V21.5926C1.41427 21.5926 1.95501 21.4575 2.25242 21.1602C2.54983 20.863 2.71205 20.3765 2.71205 19.6468V11.1881C2.71205 10.3504 2.54983 9.75585 2.25242 9.37751C1.95501 8.99916 1.41427 8.80998 0.657227 8.80998V8.24247C1.22501 8.29652 1.79279 8.32355 2.33353 8.32355C3.4691 8.32355 4.4154 8.18842 5.1454 7.9452V19.6468ZM4.95614 1.9998C5.30763 2.35112 5.46985 2.75648 5.46985 3.2159C5.46985 3.67532 5.30763 4.08069 4.95614 4.43201C4.60466 4.78333 4.1991 4.94548 3.73947 4.94548C3.27984 4.94548 2.87428 4.78333 2.52279 4.43201C2.17131 4.08069 2.00909 3.67532 2.00909 3.2159C2.00909 2.75648 2.17131 2.35112 2.52279 1.9998C2.87428 1.64848 3.27984 1.48633 3.73947 1.48633C4.1991 1.48633 4.60466 1.64848 4.95614 1.9998Z" fill="#49342E"/>
<path d="M39.4825 3.02686V3.56735C38.4821 3.81057 37.7521 4.59428 37.3466 5.91848L32.2365 22.2954H31.8039L27.0995 8.37772L22.8006 22.2954H22.368L16.6361 5.29692C16.2576 4.18891 15.6357 3.59437 14.7705 3.56735V3.02686C15.5005 3.0809 16.4739 3.10794 17.6635 3.10794C18.9613 3.10794 19.9346 3.10793 20.5835 3.02686V3.56735C20.0968 3.59437 19.7454 3.70247 19.5561 3.83759C19.3668 3.97271 19.2587 4.21593 19.2587 4.5132C19.2587 4.81047 19.3668 5.24287 19.5561 5.83741L23.5035 17.8904L26.8021 7.43186L26.0721 5.29692C25.7206 4.18891 25.1798 3.59437 24.4769 3.56735V3.02686C25.1258 3.0809 25.9909 3.10794 27.0995 3.10794C28.6406 3.10794 29.8032 3.10793 30.5602 3.02686V3.56735C29.8843 3.59437 29.3976 3.67545 29.1273 3.78355C28.8569 3.89165 28.7217 4.13487 28.7217 4.54024C28.7217 4.86453 28.8028 5.29692 28.9921 5.83741L32.8854 17.8633L36.211 7.40484C36.5084 6.51303 36.6436 5.78337 36.6436 5.21585C36.6436 4.64833 36.4543 4.18891 36.1029 3.94569C35.7514 3.70247 35.1566 3.56735 34.3454 3.56735V3.02686C35.3729 3.0809 36.4003 3.10794 37.4547 3.10794C38.2658 3.10794 38.9418 3.10793 39.4825 3.02686Z" fill="#49342E"/>
<path d="M45.4579 19.6468C45.4579 20.3765 45.6201 20.89 45.9175 21.1602C46.2149 21.4305 46.7557 21.5926 47.5127 21.5926V22.1601C45.8635 22.0791 44.7549 22.052 44.2412 22.052C43.7275 22.052 42.619 22.0791 40.9697 22.1601V21.5926C41.7268 21.5926 42.2675 21.4575 42.5649 21.1602C42.8623 20.863 43.0246 20.3765 43.0246 19.6468V11.1881C43.0246 10.3504 42.8623 9.75585 42.5649 9.37751C42.2675 8.99916 41.7268 8.80998 40.9697 8.80998V8.24247C41.5375 8.29652 42.1053 8.32355 42.646 8.32355C43.7816 8.32355 44.7279 8.18842 45.4579 7.9452V19.6468ZM45.2686 1.9998C45.6201 2.35112 45.7823 2.75648 45.7823 3.2159C45.7823 3.67532 45.6201 4.08069 45.2686 4.43201C44.9172 4.78333 44.5116 4.94548 44.052 4.94548C43.5923 4.94548 43.1868 4.78333 42.8353 4.43201C42.4838 4.08069 42.3216 3.67532 42.3216 3.2159C42.3216 2.75648 42.4838 2.35112 42.8353 1.9998C43.1868 1.64848 43.5923 1.48633 44.052 1.48633C44.5116 1.48633 44.9172 1.64848 45.2686 1.9998Z" fill="#49342E"/>
<path d="M56.1372 8.16153C56.6509 8.3507 57.0565 8.59392 57.3539 8.86416C57.5432 8.99929 57.7054 9.08037 57.8406 9.08037C58.165 9.08037 58.3543 8.67499 58.4354 7.89128H59.0572C58.9761 8.78309 58.9491 10.2965 58.9491 12.4855H58.3272C58.138 11.2964 57.7595 10.3235 57.1917 9.53978C56.6239 8.75607 55.7857 8.37772 54.6502 8.37772C54.0013 8.37772 53.4605 8.5669 53.055 8.94524C52.6494 9.32359 52.4331 9.81002 52.4331 10.4586C52.4331 11.1072 52.6494 11.6207 53.082 12.026C53.5146 12.4584 54.2176 12.9449 55.1639 13.5664C55.3261 13.6475 55.5694 13.8097 55.8939 14.0259C56.732 14.5663 57.3809 15.0528 57.8946 15.4582C58.4083 15.8635 58.8139 16.35 59.1383 16.8905C59.4628 17.431 59.598 18.0525 59.598 18.7552C59.598 19.9442 59.1384 20.8631 58.2461 21.5387C57.3539 22.2143 56.2454 22.5386 54.9746 22.5386C54.1635 22.5386 53.4605 22.4035 52.8387 22.1603C52.4331 21.9711 52.0816 21.7279 51.7302 21.4306C51.649 21.3495 51.5679 21.3225 51.4868 21.3225C51.3516 21.3225 51.2435 21.4036 51.1624 21.5927C51.0542 21.7819 50.9731 22.0251 50.9461 22.3494H50.3242C50.4053 21.3225 50.4324 19.5118 50.4324 16.9445H51.0542C51.2435 18.6471 51.622 19.8902 52.1357 20.7279C52.6494 21.5657 53.5416 21.9981 54.8124 21.9981C55.4343 21.9981 56.002 21.7819 56.4887 21.3765C56.9754 20.9712 57.2187 20.3226 57.2187 19.4308C57.2187 18.7281 56.9754 18.1336 56.4887 17.6471C56.002 17.1607 55.245 16.5662 54.1635 15.8906C53.2713 15.323 52.5953 14.8636 52.1087 14.5123C51.622 14.161 51.2435 13.7016 50.919 13.1881C50.5946 12.6746 50.4324 12.0531 50.4324 11.3504C50.4324 10.2154 50.8109 9.35061 51.5679 8.75607C52.325 8.16153 53.2713 7.86426 54.4339 7.86426C55.0828 7.86426 55.6505 7.97236 56.1643 8.16153H56.1372Z" fill="#49342E"/>
<path d="M66.304 11.1072C66.7636 9.97216 67.3855 9.13439 68.1695 8.62093C68.9807 8.10746 69.8729 7.83722 70.8733 7.83722C72.144 7.83722 73.0903 8.18854 73.7392 8.86415C74.0907 9.21547 74.334 9.67489 74.4692 10.2154C74.6044 10.7559 74.6855 11.4855 74.6855 12.4044V19.6199C74.6855 20.3496 74.8477 20.8631 75.1451 21.1333C75.4425 21.4036 75.9833 21.5657 76.7403 21.5657V22.1332C75.0911 22.0521 74.0096 22.0251 73.4959 22.0251C72.9822 22.0251 71.9818 22.0521 70.4677 22.1332V21.5657C71.1436 21.5657 71.6033 21.4306 71.8466 21.1333C72.0899 20.836 72.2522 20.3496 72.2522 19.6199V11.8098C72.2522 10.8099 72.117 10.0262 71.8196 9.51274C71.5222 8.99928 70.9544 8.72903 70.0621 8.72903C69.3321 8.72903 68.6832 8.94522 68.1155 9.35059C67.5477 9.75596 67.0881 10.3505 66.7636 11.1072C66.4392 11.8639 66.2769 12.7016 66.2769 13.6205V19.647C66.2769 20.3766 66.4121 20.8901 66.6555 21.1603C66.8988 21.4306 67.3855 21.5927 68.0344 21.5927V22.1602C66.5203 22.0792 65.5199 22.0521 65.0062 22.0521C64.4925 22.0521 63.411 22.0792 61.7617 22.1602V21.5927C62.5188 21.5927 63.0595 21.4576 63.3569 21.1603C63.6543 20.8631 63.8165 20.3766 63.8165 19.647V4.24295C63.8165 3.40519 63.6543 2.81065 63.3569 2.43231C63.0595 2.05397 62.5188 1.86479 61.7617 1.86479V1.29727C62.3295 1.35132 62.8973 1.37834 63.438 1.37834C64.5736 1.37834 65.5199 1.24322 66.2499 1V11.1072H66.304Z" fill="#49342E"/>
<path d="M97.1264 3.10801C97.8835 3.40528 98.6135 3.83767 99.3435 4.40519C99.5328 4.56733 99.722 4.64841 99.8572 4.64841C100.209 4.64841 100.452 4.10791 100.56 3.02693H101.182C101.101 4.18898 101.074 6.26987 101.074 9.24258H100.452C100.263 8.08052 100.073 7.21574 99.9113 6.7293C99.749 6.21584 99.4787 5.72939 99.1002 5.26997C98.5594 4.56733 97.8564 4.02684 97.0453 3.70254C96.2072 3.35122 95.2879 3.16205 94.3416 3.16205C93.179 3.16205 92.1516 3.54039 91.2594 4.32411C90.3942 5.10782 89.7182 6.21584 89.2316 7.64814C88.7449 9.08044 88.5016 10.756 88.5016 12.7017C88.5016 14.6475 88.7719 16.35 89.2856 17.7553C89.7994 19.1606 90.5294 20.2416 91.4486 20.9712C92.3679 21.7009 93.4223 22.0792 94.612 22.0792C95.5042 22.0792 96.3964 21.9171 97.2346 21.5658C98.0727 21.2145 98.7487 20.701 99.2353 20.0254C99.5868 19.5119 99.8572 18.9714 100.019 18.4039C100.182 17.8364 100.344 16.9446 100.479 15.7555H101.101C101.101 18.8633 101.128 21.0253 101.209 22.2414H100.587C100.533 21.6739 100.452 21.2415 100.371 20.9983C100.263 20.755 100.128 20.6469 99.9383 20.6469C99.8031 20.6469 99.6139 20.728 99.3705 20.8631C98.5594 21.4307 97.7753 21.8901 97.0453 22.1603C96.3153 22.4576 95.4231 22.6197 94.3686 22.6197C92.6653 22.6197 91.1512 22.2414 89.8534 21.4577C88.5556 20.674 87.5553 19.566 86.8523 18.0796C86.1493 16.6203 85.7979 14.8637 85.7979 12.8098C85.7979 10.756 86.1493 9.08044 86.8793 7.54004C87.6093 5.99964 88.6368 4.81056 89.9345 3.97279C91.2323 3.13503 92.7194 2.70264 94.3686 2.70264C95.4501 2.70264 96.3694 2.86478 97.1264 3.16205V3.10801Z" fill="#49342E"/>
<path d="M105.291 21.4845C104.751 20.917 104.453 20.1332 104.453 19.1063C104.453 18.2956 104.669 17.62 105.129 17.1065C105.589 16.593 106.102 16.1606 106.697 15.8634C107.292 15.5661 108.103 15.2418 109.076 14.8905C110.077 14.5392 110.834 14.2419 111.321 13.9446C111.807 13.6474 112.051 13.269 112.051 12.7826V11.107C112.051 10.0531 111.834 9.35044 111.375 8.9721C110.915 8.59376 110.32 8.40459 109.509 8.40459C108.238 8.40459 107.346 8.72888 106.832 9.37747C107.184 9.45855 107.508 9.64772 107.725 9.94499C107.968 10.2423 108.076 10.5936 108.076 11.026C108.076 11.4584 107.941 11.8367 107.644 12.1069C107.346 12.3772 106.995 12.4853 106.535 12.4853C106.021 12.4853 105.643 12.3231 105.399 12.0259C105.156 11.7016 105.021 11.3232 105.021 10.8908C105.021 10.4584 105.129 10.1071 105.345 9.80987C105.562 9.5126 105.859 9.24235 106.265 8.94508C106.697 8.64781 107.238 8.37756 107.914 8.18839C108.59 7.99921 109.32 7.89111 110.104 7.89111C111.51 7.89111 112.564 8.21542 113.294 8.89103C113.754 9.2964 114.051 9.80986 114.187 10.3774C114.322 10.9449 114.403 11.7286 114.403 12.7015V20.2143C114.403 20.6737 114.457 20.998 114.592 21.1872C114.727 21.3764 114.944 21.4845 115.241 21.4845C115.457 21.4845 115.674 21.4304 115.836 21.3223C116.025 21.2142 116.241 21.0791 116.458 20.917L116.755 21.3764C116.295 21.7277 115.89 21.9979 115.565 22.1601C115.241 22.3222 114.808 22.3763 114.295 22.3763C113.429 22.3763 112.835 22.1601 112.483 21.7277C112.132 21.2953 111.969 20.7008 111.969 19.9711C111.429 20.8629 110.807 21.5115 110.104 21.8628C109.401 22.2141 108.617 22.4033 107.725 22.4033C106.589 22.4033 105.751 22.106 105.21 21.5385L105.291 21.4845ZM112.078 19.2144V13.9176C111.915 14.1608 111.699 14.377 111.402 14.5392C111.104 14.7013 110.672 14.9175 110.077 15.1877C109.401 15.485 108.833 15.7553 108.401 15.9985C107.968 16.2687 107.616 16.6201 107.319 17.0795C107.022 17.5389 106.859 18.1064 106.859 18.809C106.859 19.6198 107.049 20.2413 107.454 20.6467C107.86 21.0521 108.374 21.2683 109.022 21.2683C110.212 21.2683 111.239 20.5927 112.078 19.2144Z" fill="#49342E"/>
<path d="M127.975 1.75652C128.543 2.21594 128.814 2.75643 128.814 3.43204C128.814 3.83741 128.678 4.18873 128.408 4.45898C128.138 4.72922 127.786 4.86434 127.381 4.86434C126.975 4.86434 126.624 4.72922 126.326 4.486C126.029 4.21575 125.894 3.86443 125.894 3.40501C125.894 3.02667 126.002 2.7294 126.191 2.48617C126.407 2.24295 126.678 2.10784 127.029 2.02676C126.975 1.83759 126.84 1.70247 126.597 1.59437C126.353 1.48627 126.056 1.43222 125.704 1.43222C125.299 1.43222 124.947 1.5133 124.65 1.70247C124.353 1.89164 124.109 2.13486 123.947 2.43213C123.758 2.78345 123.623 3.32395 123.568 4.02658C123.514 4.72922 123.46 5.9183 123.46 7.5668V8.26944H126.353V8.80992H123.46V19.3765C123.46 20.2143 123.704 20.7818 124.163 21.1061C124.623 21.4304 125.353 21.5926 126.299 21.5926V22.1601H125.65C123.812 22.079 122.649 22.052 122.135 22.052C121.676 22.052 120.594 22.079 118.945 22.1601V21.5926C119.702 21.5926 120.243 21.4574 120.54 21.1602C120.838 20.8629 121 20.3764 121 19.6468V8.80992H118.837V8.26944H121C121 6.67499 121.108 5.45888 121.297 4.5941C121.487 3.72931 121.865 2.99965 122.379 2.37808C122.73 1.97272 123.19 1.64842 123.758 1.4052C124.325 1.16198 124.92 1.02686 125.596 1.02686C126.543 1.02686 127.327 1.27008 127.948 1.75652H127.975Z" fill="#49342E"/>
<path d="M139.331 18.9173C139.007 19.9172 138.412 20.755 137.52 21.4846C136.627 22.1873 135.546 22.5386 134.275 22.5386C133.004 22.5386 131.896 22.2413 130.95 21.6738C130.003 21.0793 129.3 20.2685 128.814 19.2146C128.327 18.1606 128.057 16.9445 128.057 15.5392C128.057 13.9718 128.3 12.6206 128.814 11.4585C129.327 10.2965 130.03 9.43168 130.95 8.78309C131.869 8.16153 132.95 7.86426 134.167 7.86426C135.789 7.86426 137.033 8.3507 137.925 9.32359C138.79 10.2965 139.223 11.8098 139.223 13.8097H130.76C130.706 14.3231 130.679 14.8906 130.679 15.5392C130.679 16.7283 130.869 17.7553 131.247 18.6471C131.626 19.5389 132.139 20.2145 132.788 20.6739C133.437 21.1333 134.113 21.3765 134.816 21.3765C135.681 21.3765 136.438 21.1603 137.114 20.755C137.79 20.3496 138.331 19.647 138.79 18.6741L139.331 18.8903V18.9173ZM131.869 9.62086C131.247 10.4586 130.869 11.6747 130.733 13.2962H136.627C136.654 11.8909 136.465 10.7289 136.033 9.783C135.6 8.83714 134.924 8.37772 134.059 8.37772C133.194 8.37772 132.491 8.7831 131.869 9.62086Z" fill="#49342E"/>
<defs>
<clipPath id="clip0_517_161">
<rect width="133" height="19" fill="white" transform="translate(0 64)"/>
</clipPath>
<clipPath id="clip1_517_161">
<rect width="105" height="15" fill="white" transform="translate(412 66)"/>
</clipPath>
</defs>
</svg>
