<svg width="319" height="75" viewBox="0 0 319 75" fill="none" xmlns="http://www.w3.org/2000/svg">
<g clip-path="url(#clip0_223_56)">
<path d="M138.974 63.036C138.974 63.5477 139.071 63.8889 139.289 64.0838C139.507 64.2787 139.87 64.3762 140.378 64.3762V64.7661C139.24 64.7173 138.489 64.693 138.126 64.693C137.763 64.693 137.012 64.693 135.874 64.7661V64.3762C136.382 64.3762 136.77 64.2787 136.963 64.0838C137.157 63.8889 137.278 63.5477 137.278 63.036V57.1881C137.278 56.6033 137.181 56.1891 136.963 55.9454C136.745 55.7017 136.382 55.5555 135.874 55.5555V55.1657C136.261 55.2144 136.649 55.2144 137.036 55.2144C137.811 55.2144 138.465 55.1169 138.974 54.9464V63.036ZM138.828 50.8528C139.071 51.0965 139.192 51.3645 139.192 51.6813C139.192 51.998 139.071 52.2904 138.828 52.5097C138.586 52.7534 138.32 52.8752 138.005 52.8752C137.69 52.8752 137.399 52.7534 137.181 52.5097C136.939 52.2661 136.818 51.998 136.818 51.6813C136.818 51.3645 136.939 51.0721 137.181 50.8528C137.424 50.6335 137.69 50.4873 138.005 50.4873C138.32 50.4873 138.61 50.6091 138.828 50.8528Z" fill="#49342E"/>
<path d="M162.54 51.5596V51.9251C161.837 52.0956 161.353 52.6317 161.062 53.5576L157.551 64.8637H157.26L154.039 55.2633L151.084 64.8637H150.793L146.87 53.119C146.603 52.3393 146.191 51.9494 145.586 51.9251V51.5596C146.095 51.6083 146.748 51.6083 147.572 51.6083C148.468 51.6083 149.122 51.6083 149.582 51.5596V51.9251C149.243 51.9494 149.025 52.0225 148.88 52.12C148.735 52.2175 148.686 52.388 148.686 52.583C148.686 52.7779 148.759 53.0947 148.88 53.5089L151.592 61.8422L153.845 54.6297L153.336 53.1434C153.094 52.3637 152.731 51.9738 152.246 51.9494V51.5839C152.682 51.6327 153.288 51.6327 154.039 51.6327C155.104 51.6327 155.904 51.6327 156.412 51.5839V51.9494C155.952 51.9738 155.613 52.0225 155.419 52.12C155.225 52.1931 155.129 52.3637 155.129 52.6317C155.129 52.851 155.201 53.1434 155.322 53.5333L157.987 61.8422L160.263 54.6297C160.457 54.0206 160.554 53.5089 160.554 53.119C160.554 52.7292 160.433 52.4124 160.191 52.2418C159.948 52.0713 159.537 51.9738 158.98 51.9738V51.6083C159.682 51.657 160.384 51.657 161.111 51.657C161.668 51.657 162.128 51.657 162.516 51.6083L162.54 51.5596Z" fill="#49342E"/>
<path d="M166.827 63.036C166.827 63.5477 166.924 63.8889 167.142 64.0838C167.36 64.2787 167.723 64.3762 168.231 64.3762V64.7661C167.093 64.7173 166.342 64.693 165.979 64.693C165.616 64.693 164.865 64.693 163.727 64.7661V64.3762C164.235 64.3762 164.623 64.2787 164.816 64.0838C165.01 63.8889 165.131 63.5477 165.131 63.036V57.1881C165.131 56.6033 165.034 56.1891 164.816 55.9454C164.598 55.7017 164.235 55.5555 163.727 55.5555V55.1657C164.114 55.2144 164.502 55.2144 164.889 55.2144C165.664 55.2144 166.318 55.1169 166.827 54.9464V63.036ZM166.706 50.8528C166.948 51.0965 167.069 51.3645 167.069 51.6813C167.069 51.998 166.948 52.2904 166.706 52.5097C166.463 52.7534 166.197 52.8752 165.882 52.8752C165.567 52.8752 165.277 52.7534 165.059 52.5097C164.816 52.2661 164.695 51.998 164.695 51.6813C164.695 51.3645 164.816 51.0721 165.059 50.8528C165.301 50.6335 165.567 50.4873 165.882 50.4873C166.197 50.4873 166.488 50.6091 166.706 50.8528Z" fill="#49342E"/>
<path d="M174.359 55.117C174.698 55.2632 174.989 55.4094 175.183 55.6043C175.328 55.7018 175.425 55.7505 175.522 55.7505C175.74 55.7505 175.885 55.4825 175.933 54.9221H176.369C176.321 55.5312 176.297 56.579 176.297 58.0897H175.861C175.715 57.2613 175.449 56.579 175.062 56.0673C174.674 55.5312 174.093 55.2632 173.318 55.2632C172.882 55.2632 172.518 55.385 172.228 55.6531C171.937 55.9211 171.792 56.2622 171.792 56.7008C171.792 57.1394 171.937 57.5049 172.228 57.7973C172.518 58.0897 173.003 58.4308 173.657 58.8451C173.778 58.9182 173.947 59.0156 174.165 59.1618C174.722 59.5273 175.183 59.8685 175.546 60.1609C175.909 60.4533 176.176 60.77 176.394 61.1599C176.612 61.5254 176.708 61.964 176.708 62.4513C176.708 63.2798 176.394 63.9133 175.788 64.3763C175.183 64.8392 174.432 65.0585 173.536 65.0585C172.979 65.0585 172.494 64.9611 172.058 64.7905C171.792 64.6443 171.525 64.4981 171.307 64.2788C171.259 64.2301 171.211 64.2057 171.138 64.2057C171.041 64.2057 170.968 64.2788 170.896 64.4006C170.823 64.5225 170.775 64.693 170.75 64.9123H170.314C170.363 64.2057 170.387 62.963 170.387 61.1843H170.823C170.968 62.3538 171.211 63.231 171.574 63.8158C171.937 64.4006 172.543 64.693 173.415 64.693C173.851 64.693 174.238 64.5468 174.553 64.2544C174.892 63.962 175.062 63.5234 175.062 62.9143C175.062 62.4269 174.892 62.0127 174.577 61.6716C174.262 61.3305 173.705 60.9406 172.979 60.4533C172.373 60.0634 171.913 59.7466 171.574 59.503C171.235 59.2593 170.968 58.9425 170.75 58.577C170.532 58.2115 170.411 57.7973 170.411 57.31C170.411 56.5303 170.678 55.9211 171.186 55.5069C171.695 55.0926 172.373 54.8977 173.148 54.8977C173.584 54.8977 173.996 54.9708 174.335 55.0926L174.359 55.117Z" fill="#49342E"/>
<path d="M181.528 57.1394C181.843 56.3596 182.255 55.7992 182.812 55.4337C183.369 55.0682 183.974 54.8977 184.677 54.8977C185.548 54.8977 186.202 55.1413 186.638 55.6043C186.881 55.8479 187.05 56.1647 187.147 56.5302C187.244 56.8957 187.292 57.4074 187.292 58.0409V63.0117C187.292 63.5234 187.389 63.8645 187.607 64.0595C187.825 64.2544 188.188 64.3518 188.697 64.3518V64.7417C187.559 64.693 186.808 64.6686 186.469 64.6686C186.13 64.6686 185.427 64.6686 184.386 64.7417V64.3518C184.846 64.3518 185.161 64.2544 185.33 64.0595C185.5 63.8645 185.597 63.5234 185.597 63.0117V57.6267C185.597 56.9201 185.5 56.4084 185.306 56.0185C185.113 55.653 184.701 55.4581 184.095 55.4581C183.587 55.4581 183.151 55.6043 182.739 55.8967C182.351 56.1891 182.037 56.5789 181.819 57.0906C181.601 57.6023 181.48 58.1871 181.48 58.845V63.0117C181.48 63.5234 181.576 63.8645 181.746 64.0595C181.915 64.2544 182.255 64.3518 182.691 64.3518V64.7417C181.649 64.693 180.971 64.6686 180.608 64.6686C180.244 64.6686 179.518 64.6686 178.379 64.7417V64.3518C178.888 64.3518 179.276 64.2544 179.469 64.0595C179.687 63.8645 179.784 63.5234 179.784 63.0117V52.3635C179.784 51.8031 179.687 51.3645 179.469 51.1209C179.251 50.8528 178.888 50.731 178.379 50.731V50.3411C178.767 50.3899 179.154 50.3899 179.518 50.3899C180.293 50.3899 180.947 50.2924 181.455 50.1218V57.0906L181.528 57.1394Z" fill="#49342E"/>
<path d="M202.672 51.6083C203.181 51.8276 203.689 52.12 204.198 52.5098C204.343 52.6317 204.44 52.6804 204.561 52.6804C204.803 52.6804 204.973 52.3149 205.046 51.5595H205.482C205.433 52.3636 205.409 53.8013 205.409 55.848H204.973C204.828 55.0439 204.707 54.4591 204.61 54.0937C204.513 53.7282 204.319 53.387 204.053 53.0703C203.689 52.5829 203.205 52.2174 202.624 51.9738C202.042 51.7301 201.437 51.6083 200.759 51.6083C199.96 51.6083 199.257 51.8763 198.652 52.4124C198.046 52.9484 197.586 53.7038 197.247 54.7028C196.908 55.7018 196.738 56.8471 196.738 58.1872C196.738 59.5274 196.908 60.697 197.271 61.6716C197.634 62.6463 198.119 63.3773 198.773 63.889C199.402 64.4007 200.129 64.6443 200.928 64.6443C201.558 64.6443 202.139 64.5225 202.721 64.2788C203.302 64.0352 203.762 63.694 204.101 63.2067C204.343 62.8656 204.537 62.4757 204.634 62.0859C204.755 61.696 204.852 61.0868 204.949 60.2584H205.385C205.385 62.4026 205.385 63.889 205.457 64.7418H205.021C204.973 64.3519 204.925 64.0595 204.852 63.889C204.779 63.7184 204.682 63.6453 204.561 63.6453C204.464 63.6453 204.343 63.694 204.174 63.7915C203.617 64.1814 203.084 64.4981 202.575 64.6931C202.067 64.888 201.461 65.0098 200.735 65.0098C199.548 65.0098 198.531 64.7418 197.634 64.2057C196.738 63.6697 196.06 62.8899 195.576 61.8909C195.091 60.8675 194.849 59.6736 194.849 58.2603C194.849 56.8471 195.091 55.6775 195.6 54.6297C196.109 53.582 196.811 52.7535 197.707 52.1687C198.603 51.5839 199.62 51.2915 200.759 51.2915C201.51 51.2915 202.139 51.389 202.648 51.6083H202.672Z" fill="#49342E"/>
<path d="M208.485 64.3275C208.097 63.9377 207.928 63.4016 207.928 62.695C207.928 62.1345 208.073 61.6716 208.388 61.3061C208.679 60.9406 209.042 60.6482 209.454 60.4533C209.865 60.234 210.422 60.0147 211.101 59.771C211.803 59.5273 212.312 59.308 212.651 59.1131C212.99 58.9182 213.159 58.6501 213.159 58.309V57.1638C213.159 56.4328 213.014 55.9455 212.699 55.6774C212.384 55.4094 211.972 55.2632 211.415 55.2632C210.543 55.2632 209.938 55.4825 209.575 55.9455C209.817 56.0186 210.035 56.1404 210.204 56.3353C210.374 56.5303 210.447 56.7739 210.447 57.0907C210.447 57.4075 210.35 57.6511 210.156 57.8217C209.962 57.9922 209.696 58.0897 209.405 58.0897C209.066 58.0897 208.8 57.9922 208.63 57.7729C208.461 57.5536 208.364 57.2856 208.364 56.9689C208.364 56.6521 208.436 56.4328 208.582 56.2135C208.727 56.0186 208.945 55.8236 209.211 55.6043C209.502 55.385 209.89 55.2145 210.35 55.0926C210.81 54.9464 211.319 54.8977 211.851 54.8977C212.82 54.8977 213.547 55.117 214.031 55.58C214.346 55.8724 214.54 56.2135 214.661 56.6277C214.758 57.042 214.83 57.5536 214.83 58.2115V63.4016C214.83 63.7184 214.879 63.9377 214.952 64.0839C215.048 64.2301 215.194 64.2788 215.387 64.2788C215.533 64.2788 215.678 64.2544 215.799 64.1813C215.92 64.1082 216.066 64.0108 216.211 63.8889L216.405 64.2057C216.09 64.4494 215.799 64.6199 215.581 64.7418C215.363 64.8392 215.073 64.9123 214.709 64.9123C214.104 64.9123 213.692 64.7661 213.474 64.4737C213.232 64.1813 213.111 63.7671 213.111 63.2554C212.747 63.8646 212.312 64.3032 211.827 64.5468C211.343 64.7905 210.81 64.9123 210.204 64.9123C209.429 64.9123 208.848 64.7174 208.461 64.3275H208.485ZM213.135 62.7437V59.0887C213.014 59.2593 212.869 59.4055 212.675 59.5273C212.481 59.6492 212.166 59.7954 211.754 59.9659C211.294 60.1609 210.907 60.3558 210.616 60.5264C210.326 60.6969 210.083 60.9406 209.865 61.2574C209.647 61.5741 209.55 61.964 209.55 62.4513C209.55 63.0117 209.696 63.426 209.962 63.7184C210.229 64.0108 210.592 64.157 211.028 64.157C211.851 64.157 212.554 63.694 213.135 62.7437Z" fill="#49342E"/>
<path d="M224.203 50.6823C224.591 50.9991 224.785 51.389 224.785 51.8276C224.785 52.12 224.688 52.3393 224.494 52.5342C224.3 52.7291 224.082 52.8022 223.792 52.8022C223.501 52.8022 223.259 52.7048 223.065 52.5342C222.871 52.3636 222.774 52.12 222.774 51.8032C222.774 51.5352 222.847 51.3402 222.992 51.1697C223.138 50.9991 223.331 50.9017 223.549 50.8529C223.501 50.7311 223.404 50.6336 223.259 50.5605C223.089 50.4874 222.895 50.4387 222.653 50.4387C222.387 50.4387 222.145 50.5118 221.927 50.6336C221.709 50.7555 221.563 50.926 221.442 51.1453C221.297 51.389 221.224 51.7545 221.176 52.2418C221.127 52.7291 221.103 53.5332 221.103 54.6785V55.1658H223.089V55.5313H221.103V62.8169C221.103 63.4016 221.273 63.7915 221.588 64.0108C221.902 64.2301 222.411 64.3519 223.065 64.3519V64.7418H222.629C221.37 64.6931 220.57 64.6687 220.207 64.6687C219.892 64.6687 219.166 64.6687 218.027 64.7418V64.3519C218.536 64.3519 218.923 64.2545 219.117 64.0595C219.311 63.8646 219.432 63.5235 219.432 63.0118V55.5313H217.955V55.1658H219.432C219.432 54.0693 219.505 53.2165 219.626 52.6317C219.771 52.0225 220.013 51.5352 220.377 51.0966C220.619 50.8042 220.934 50.5849 221.321 50.4143C221.709 50.2438 222.12 50.1707 222.581 50.1707C223.21 50.1707 223.767 50.3412 224.203 50.6823Z" fill="#49342E"/>
<path d="M232.244 62.5244C232.027 63.2066 231.615 63.7914 230.985 64.2787C230.355 64.7661 229.629 65.0097 228.757 65.0097C227.885 65.0097 227.11 64.8148 226.48 64.4006C225.85 63.9864 225.342 63.4259 225.003 62.6949C224.664 61.9639 224.494 61.1355 224.494 60.1608C224.494 59.0887 224.664 58.1384 225.003 57.3343C225.342 56.5302 225.826 55.921 226.48 55.5068C227.11 55.0682 227.836 54.8733 228.684 54.8733C229.798 54.8733 230.646 55.2144 231.251 55.8967C231.857 56.5789 232.148 57.6023 232.148 58.9912H226.335C226.286 59.3324 226.286 59.7466 226.286 60.1852C226.286 61.0136 226.407 61.7203 226.674 62.3294C226.94 62.9386 227.304 63.4016 227.74 63.7427C228.176 64.0594 228.636 64.23 229.12 64.23C229.726 64.23 230.234 64.0838 230.694 63.7914C231.155 63.499 231.542 63.0361 231.833 62.3538L232.196 62.5L232.244 62.5244ZM227.11 56.116C226.698 56.6764 226.432 57.5292 226.335 58.6501H230.38C230.38 57.6754 230.258 56.8713 229.968 56.2134C229.653 55.5556 229.217 55.2388 228.612 55.2388C228.006 55.2388 227.522 55.5312 227.11 56.0916V56.116Z" fill="#49342E"/>
<path d="M52.8234 14.9609C33.835 4.65388 18.2859 16.6666 15.985 18.5915C16.0819 18.6402 16.1787 18.689 16.2514 18.7621C16.6874 19.1032 17.0991 19.4687 17.5108 19.8342C17.8741 20.151 18.2374 20.4677 18.6249 20.7845C18.7945 20.9307 19.0367 20.9794 19.2547 21.0525C19.3031 21.0525 19.3758 21.0769 19.4242 21.1013C19.4484 21.1013 19.4726 21.1013 19.5211 21.1013C19.5695 21.1013 19.6422 21.1013 19.7148 21.1013C19.7391 21.1013 19.7633 21.1013 19.7875 21.1013C20.9016 21.2231 21.6524 20.9063 22.2337 20.5652C23.2994 19.9804 24.6799 19.5905 26.3753 19.42C27.8285 19.2738 29.2575 19.2981 30.6622 19.4931C32.0912 19.688 33.5202 20.0535 34.8765 20.5896C35.6515 20.9063 36.4023 21.2962 37.1289 21.7104C37.2258 21.7591 37.2742 21.8322 37.2742 21.881C37.2742 21.9784 37.1774 22.149 36.9352 22.2952C35.3609 23.2211 33.6655 23.7572 31.7037 23.9034C30.3231 24.0252 28.9426 23.9765 27.6105 23.8059C25.8425 23.5623 24.0986 23.0506 22.4517 22.2952C22.3548 22.2465 22.2821 22.1977 22.1853 22.149C21.9673 22.0028 21.7009 21.8566 21.3376 21.8079C21.168 21.8079 20.9743 21.8079 20.7805 21.8079C20.6594 21.8079 20.5625 21.9297 20.5383 22.0272C20.5141 22.149 20.5383 22.2708 20.6594 22.3439C20.8532 22.4901 21.0227 22.612 21.2165 22.7582C21.6282 23.0506 21.9915 23.343 22.4032 23.611L22.6454 23.7816C23.6142 24.4395 24.6073 25.0974 25.6487 25.7309C26.7628 26.4131 27.9254 27.071 29.0637 27.7046C29.5239 27.9726 30.0083 28.2406 30.4685 28.5087C30.5169 28.5087 30.5411 28.533 30.5653 28.5574C30.9771 28.8742 31.4373 29.0691 31.9701 29.1422C32.4545 29.2153 32.9873 29.1666 33.6897 29.0204C33.9561 28.9716 34.1983 28.9229 34.4163 28.9229C34.9976 28.9229 35.264 28.6549 35.482 28.4356C36.3539 27.534 37.4922 26.8761 38.8728 26.4619C41.0768 25.804 43.3777 25.609 45.727 25.9258C46.0176 25.9745 46.284 25.9989 46.5747 26.0476C47.7615 26.2669 48.9724 26.6324 50.1108 26.9979L50.5952 27.1441C50.9585 27.266 51.0311 27.3634 51.0554 27.4122C51.0796 27.4853 51.0311 27.6071 50.91 27.7777C50.4983 28.3381 49.917 28.8254 49.1178 29.2884C47.6888 30.1168 45.9207 30.5798 43.741 30.726C42.5057 30.7991 41.2463 30.7504 40.0353 30.6042C38.7517 30.4336 37.4438 30.1168 36.2086 29.6782C36.1117 29.6539 36.0148 29.6295 35.8937 29.6051C35.7484 29.6051 35.6031 29.6051 35.4335 29.6051C35.1429 29.6051 34.8765 29.6539 34.5374 29.7026C34.3921 29.7026 34.2468 29.7514 34.0772 29.7757C33.9319 29.7757 33.835 29.8975 33.8108 30.0437C33.8108 30.1899 33.8592 30.3118 34.0046 30.3605C34.5132 30.5798 34.9976 30.7991 35.482 31.0184C36.5476 31.5057 37.5649 31.9443 38.6306 32.3342C40.9314 33.187 43.305 34.0155 45.6059 34.7952L47.3739 35.4044C47.9068 35.5993 48.6091 35.8186 49.3357 35.9648C49.36 35.9648 49.4084 35.9648 49.4568 35.9648C49.7959 36.0135 50.1834 35.9648 50.5225 35.8917C51.3218 35.7455 52.121 35.5506 52.7992 35.38C52.9929 35.3313 53.2594 35.2094 53.3562 34.9901C53.6469 34.3566 54.2282 33.7718 55.197 33.1383C56.0931 32.5535 57.2072 32.1149 58.4666 31.8469C60.4527 31.4326 62.5114 31.3595 64.5458 31.6276C65.6115 31.7738 66.7014 32.0174 67.7671 32.3342C68.1788 32.456 68.2757 32.5779 68.2999 32.6266C68.3241 32.6753 68.2999 32.7728 68.2515 32.919C67.3553 34.8439 65.224 36.0135 61.7605 36.5009C60.2105 36.7202 58.6362 36.7202 56.9408 36.5009C56.1415 36.4034 55.2938 36.2328 54.4219 36.0135C54.3735 36.0135 54.325 36.0135 54.2766 35.9892C53.9375 35.9404 53.5984 35.9892 53.2594 36.0623C53.114 36.0866 52.9445 36.111 52.7992 36.1354C52.7023 36.1354 52.6296 36.1841 52.5812 36.2572C52.5328 36.3303 52.5085 36.4034 52.5085 36.5009V36.6471C52.557 36.7689 52.6539 36.8664 52.775 36.8907C53.1383 36.9638 53.4773 37.0613 53.8406 37.1344C54.6157 37.3293 55.4149 37.5243 56.2142 37.6705C57.5705 37.9385 58.951 38.1821 60.2831 38.4258C61.3488 38.6207 62.3903 38.8157 63.4559 39.0106C63.577 39.0106 63.6739 39.0593 63.7708 39.0593C64.4974 39.1568 65.1513 39.1081 65.8295 38.8888C68.1061 38.1821 70.5039 37.9872 72.9259 38.304C74.5729 38.5233 76.244 38.9862 77.9394 39.6685C79.4653 40.302 80.6036 41.0087 81.3544 41.8859C81.3544 41.8859 81.3544 41.8859 81.3544 41.9102C81.3544 41.9102 81.3544 41.9102 81.3302 41.9102C80.4099 42.495 79.1746 42.8605 77.455 43.0554C75.8807 43.2504 74.2822 43.2504 72.7321 43.0554C71.2305 42.8605 69.7289 42.4706 68.2757 41.8859C67.0163 41.3985 65.9264 40.7894 65.0544 40.0827C64.8607 39.9365 64.57 39.8147 64.3036 39.766C60.4769 39.2299 56.6986 38.4989 53.0898 37.5974C51.9757 37.3293 50.8374 37.0126 49.7475 36.7202C49.2631 36.5983 48.7545 36.4521 48.2701 36.3303C48.149 36.3059 48.0279 36.2572 47.8826 36.2328L47.6888 36.1841C47.6888 36.1841 47.6646 36.1841 47.6404 36.1841C47.5435 36.1841 47.4224 36.1841 47.3497 36.2816C47.2771 36.379 47.2528 36.5009 47.3013 36.5983C47.7372 37.4512 48.0763 37.7192 49.1904 38.0603C51.564 38.7669 53.4531 39.8147 54.8579 41.1792C55.2212 41.5447 55.4876 41.9346 55.7782 42.3975C56.5533 43.6402 56.5775 44.8829 55.8509 46.3205C55.7298 46.5642 55.3423 46.7835 54.761 46.7104C54.6883 46.7104 54.6399 46.7104 54.5672 46.686C52.121 46.1012 50.1834 45.2728 48.6576 44.1032C46.284 42.3001 45.6059 40.3995 46.5505 38.304C46.6473 38.109 46.6716 37.7923 46.502 37.573L46.3567 37.4024C45.7996 36.7202 45.2184 35.9892 44.5644 35.3069C44.3707 35.112 44.0316 35.0145 43.7167 34.917C43.5956 34.8683 43.4503 34.8439 43.3534 34.7952C42.5542 34.4784 41.7307 34.1617 40.9314 33.8449C38.8728 33.0408 36.7414 32.2124 34.6585 31.3839C33.7381 31.0184 32.8178 30.5798 31.9459 30.1412C31.5341 29.9463 31.1224 29.7513 30.7349 29.5564C30.7107 29.5564 30.6622 29.5564 30.638 29.5321C30.5896 29.5321 30.5169 29.5321 30.4685 29.5321C30.3716 29.5564 30.3231 29.6295 30.2989 29.727C30.0083 30.6773 31.0013 31.2133 31.4857 31.457C32.624 32.0662 33.5444 32.8459 34.3194 33.8449C35.4093 35.2582 35.5789 36.6471 34.8038 38.109C34.3921 38.8888 33.6413 39.571 32.5756 40.1071C32.406 40.1802 32.2123 40.2289 31.9943 40.1802C31.8248 40.1802 31.631 40.1071 31.4373 40.0096C30.0567 39.3517 29.0153 38.6695 28.1918 37.9141C26.2784 36.1354 25.9151 34.3079 27.0535 32.3829C27.223 32.1149 27.4894 31.8712 27.8043 31.6276C27.998 31.4814 28.1676 31.3108 28.3371 31.1402C28.5309 30.9453 28.7731 30.6529 28.7004 30.3361C28.6035 29.7513 28.5066 29.0691 28.216 28.4112C28.0949 28.1188 27.7316 27.9239 27.3925 27.7289C27.2957 27.6802 27.1988 27.6315 27.1261 27.5827C26.5691 27.2416 26.0362 26.9005 25.4792 26.5837C24.3893 25.9258 23.2509 25.2436 22.2337 24.5369C20.4172 23.2942 18.6976 21.9784 17.0022 20.7114L16.8085 20.5652C16.4209 20.2728 16.0576 19.956 15.6943 19.6393C16.3241 26.8761 23.4689 59.0642 56.3595 58.187C95.3293 57.1393 95.3293 19.2738 95.3293 19.2738C80.5067 28.7523 72.5142 25.6334 52.7992 14.9122L52.8234 14.9609Z" fill="#8C6B4D"/>
<path d="M15.985 18.5916C15.985 18.5916 15.7428 18.4941 15.6217 18.4941C15.4522 18.4941 15.3069 18.4941 15.1373 18.5185C14.8467 18.5916 14.7256 18.7134 14.7256 18.7622C14.7256 18.7622 14.7256 18.8109 14.774 18.8353C14.9436 18.9815 15.0889 19.1277 15.2584 19.2739C15.428 19.4201 15.5975 19.5663 15.767 19.7368C15.7428 19.3957 15.7186 19.1033 15.7186 18.884C15.7186 18.884 15.8155 18.7865 16.0092 18.616L15.985 18.5916Z" fill="white"/>
<path d="M56.8198 12.768C56.8198 12.768 78.5451 7.11502 95.1599 14.5224C95.1599 14.5224 88.9596 22.5634 76.0746 20.9795C66.1929 19.7612 56.8198 12.768 56.8198 12.768Z" fill="#E4BD74"/>
<path d="M84.842 59.9659C93.2463 54.3372 99.3497 46.1501 102.837 35.6725C107.294 22.2953 106.325 9.01556 105.986 4.65396C105.962 4.2641 105.913 3.80113 105.913 3.65493C105.962 1.70562 104.436 0.0974297 102.498 0.0243303C100.537 -0.0487691 98.8895 1.48632 98.8169 3.43564C98.8169 3.84987 98.8169 4.28846 98.8896 5.19002C100.512 26.9493 95.8863 54.2154 64.7153 60.5019C59.3627 61.574 53.7679 61.6471 48.1005 60.6725C35.3124 58.5039 25.6971 52.8996 19.4968 44.0058C7.99237 27.4366 11.8918 4.58086 11.9402 4.21536C12.3035 2.26605 11.0198 0.414194 9.08226 0.0486967C7.14467 -0.3168 5.30396 0.974623 4.94066 2.92394C4.7469 3.9717 0.387325 28.9473 13.684 48.075C17.0022 52.8265 21.1195 56.7982 25.9877 59.9415C10.3659 61.3791 -0.0244141 63.9376 -0.0244141 66.8372C-0.0244141 71.345 24.7525 74.9756 55.3422 74.9756C85.9319 74.9756 110.709 71.3206 110.709 66.8372C110.709 63.9376 100.391 61.3791 84.842 59.9415V59.9659Z" fill="#A88F78"/>
<path d="M109.595 32.3098C109.135 32.3098 108.674 32.3098 108.214 32.2611C106.858 32.1636 105.841 30.9697 105.938 29.6052C106.034 28.2406 107.197 27.1685 108.578 27.3147C114.802 27.802 120.155 24.0009 120.518 18.8839C120.881 13.7669 116.134 9.25915 109.934 8.79618C108.577 8.69872 107.56 7.50476 107.657 6.14024C107.754 4.77572 108.892 3.70359 110.297 3.84979C119.21 4.50769 126.016 11.4278 125.435 19.2494C124.902 26.6812 117.926 32.3098 109.595 32.3098Z" fill="#A88F78"/>
<path d="M148.129 30.3117L149.34 30.6528V31.3838C149.34 32.8458 148.661 33.5768 147.305 33.5768H142.607C142.413 33.5768 142.243 33.5768 142.098 33.5768L142.534 33.9667L141.299 35.2337H151.398V36.3546C150.115 37.646 148.468 38.7181 146.433 39.6197C148.879 40.3507 151.689 40.7405 154.91 40.7649L154.547 42.0563C150.744 42.0076 147.45 41.4472 144.617 40.3019C141.977 41.1791 138.756 41.7639 135.026 42.0563L134.638 40.838C137.811 40.5943 140.572 40.1314 142.921 39.5222C141.541 38.7912 140.281 37.914 139.192 36.8906C138.126 37.6216 137.012 38.2795 135.801 38.8643L135.195 37.8409C137.787 36.6713 139.894 35.2093 141.541 33.455C140.887 33.1626 140.572 32.529 140.572 31.6031V29.8H141.759V31.7006C141.759 32.2366 142.025 32.5047 142.558 32.5047H147.233C147.814 32.5047 148.104 32.2123 148.104 31.6275V30.3604L148.129 30.3117ZM152.706 28.6304H136.745V30.7259H135.534V27.5095H139.095C138.852 26.9978 138.538 26.3887 138.15 25.6821L139.264 25.414C139.7 26.1694 140.063 26.8516 140.354 27.5095H144.544C144.302 26.9004 143.963 26.2425 143.575 25.5359L144.689 25.2678C145.125 26.0475 145.513 26.8273 145.804 27.5339H149.001L150.575 24.878L151.786 25.0729L150.236 27.5339H153.941V30.7503H152.73V28.6548L152.706 28.6304ZM135.728 23.6109C141.686 23.6109 147.426 23.1967 152.924 22.3926L153.457 23.5134C147.717 24.3906 141.928 24.8049 136.019 24.8049L135.728 23.6109ZM135.825 33.3331C136.818 32.4803 137.738 31.53 138.562 30.4579L139.482 31.1645C138.683 32.261 137.763 33.26 136.745 34.1372L135.825 33.3575V33.3331ZM140.233 36.3058C141.492 37.378 142.97 38.2552 144.689 38.9618C146.748 38.2552 148.395 37.3536 149.703 36.3058H140.233ZM144.544 29.069C145.319 29.7025 145.997 30.3604 146.53 30.9696L145.586 31.6518C145.15 31.0914 144.471 30.4579 143.624 29.7025L144.568 29.069H144.544ZM151.011 29.9218C152.052 31.0183 152.948 32.0661 153.675 33.1626L152.682 33.7717C151.98 32.6996 151.108 31.6275 150.042 30.531L150.987 29.9218H151.011Z" fill="#49342E"/>
<path d="M161.91 41.9833H160.723V35.3556C160.19 35.9648 159.609 36.5252 158.979 37.0856L158.35 36.0135C160.239 34.4053 161.644 32.6509 162.54 30.7503L163.508 31.2133C163.048 32.1392 162.515 33.0408 161.886 33.8936V41.9589L161.91 41.9833ZM158.471 30.1655C160.118 28.9716 161.377 27.6314 162.249 26.1207L163.194 26.6324C162.176 28.3868 160.796 29.9219 159.028 31.262L158.446 30.1412L158.471 30.1655ZM171.501 26.1451V24.6587H165.47V26.1451H164.283V24.6587H158.81V23.5379H164.283V22.417H165.47V23.5379H171.501V22.417H172.688V23.5379H178.21V24.6587H172.688V26.1451H171.501ZM166.245 35.5505V36.9881C166.245 39.0593 165.47 40.7649 163.944 42.0564L163.121 41.0817C164.405 40.034 165.034 38.6694 165.034 36.9881V35.5505H166.245ZM163.944 33.0895H170.75V34.2104H163.944V33.0895ZM163.993 31.4813V27.6314H165.107V30.3361H166.899V26.4618H168.013V30.3361H169.806V27.534H170.92V31.457H163.993V31.4813ZM169.878 35.5505V38.8644L172.01 37.9141L172.179 39.108C170.581 39.8878 169.467 40.4726 168.788 40.9111L168.183 39.6441C168.522 39.4492 168.692 39.1324 168.716 38.6938V35.5749H169.903L169.878 35.5505ZM177.29 30.726C177.29 33.1626 176.781 35.38 175.788 37.3536C176.539 38.6451 177.435 39.8634 178.476 41.0086L177.604 41.9345C176.66 40.838 175.836 39.6685 175.134 38.4501C174.311 39.7416 173.269 40.9355 171.961 41.9833L171.138 40.9842C172.542 39.8634 173.632 38.6207 174.48 37.2318C173.705 35.648 173.075 33.9911 172.664 32.2367C172.349 32.7727 172.034 33.2357 171.695 33.6987L170.92 32.724C172.179 31.2133 173.075 28.9716 173.608 25.9989L174.868 26.0963C174.625 27.0223 174.383 27.9238 174.141 28.7523H178.331V29.8731H177.241V30.7016L177.29 30.726ZM176.175 30.726V29.8975H173.778L173.414 30.7747C173.778 32.6509 174.335 34.4053 175.11 36.0379C175.812 34.4297 176.175 32.6753 176.175 30.726Z" fill="#49342E"/>
<path d="M182.666 40.3508C183.441 38.767 184.071 37.1344 184.507 35.4044L185.694 35.6968C185.282 37.4756 184.701 39.1569 183.902 40.7651L182.642 40.3508H182.666ZM199.984 23.2212V32.9434H184.701V23.2212H199.984ZM191.821 27.5097V24.4395H185.888V27.5097H191.821ZM191.821 31.7251V28.6305H185.888V31.7251H191.821ZM196.714 37.1588L197.925 37.4756V39.3274C197.925 40.7894 197.247 41.5204 195.89 41.5204H189.642C188.285 41.5204 187.607 40.8382 187.607 39.4736V34.4785H188.818V39.498C188.818 40.0341 189.085 40.3021 189.617 40.3021H195.842C196.423 40.3021 196.714 40.0097 196.714 39.4249V37.1344V37.1588ZM191.894 33.5038C192.936 34.6003 193.856 35.6968 194.607 36.8177L193.517 37.4756C192.839 36.3791 191.967 35.2582 190.901 34.113L191.87 33.5038H191.894ZM193.008 24.4395V27.5097H198.773V24.4395H193.008ZM193.008 28.6305V31.7251H198.773V28.6305H193.008ZM199.766 34.9415C200.759 36.574 201.558 38.2066 202.212 39.7904L201.001 40.2046C200.444 38.6939 199.669 37.0613 198.627 35.3801L199.766 34.9658V34.9415Z" fill="#49342E"/>
<path d="M210.543 30.7748V42.0565H209.357V33.0409C208.606 35.039 207.613 36.8665 206.353 38.499L205.966 37.0858C207.346 35.4045 208.364 33.2846 209.042 30.7505H206.256V29.5321H209.332V22.3684H210.519V29.5321H213.208V30.7505H210.519L210.543 30.7748ZM207.395 23.7086C207.831 25 208.121 26.3645 208.291 27.729L207.249 27.9483C207.031 26.6082 206.717 25.2924 206.305 24.0253L207.419 23.7329L207.395 23.7086ZM211.391 32.8947C212.263 33.8694 212.99 34.8684 213.571 35.8431L212.844 36.9152C212.311 35.9162 211.609 34.8928 210.737 33.8206L211.367 32.8947H211.391ZM213.547 23.9522C213.28 25.4386 212.941 26.8031 212.481 27.9971L211.464 27.6803C211.9 26.5107 212.239 25.1949 212.433 23.7086L213.547 23.9522ZM225.826 25.1462H220.57V26.6813H225.511V27.8021H220.57V29.4347H225.996V30.5555H213.983V29.4347H219.359V27.8021H214.976V26.6813H219.359V25.1462H214.491V24.0253H219.359V22.3928H220.57V24.0253H225.826V25.1462ZM215.145 42.0565V31.9201H224.809V40.229C224.809 41.3986 224.276 41.9834 223.21 41.9834H220.449L220.134 40.8626H223.017C223.428 40.8626 223.622 40.6676 223.622 40.2778V38.5234H216.356V42.0565H215.145ZM216.356 34.7953H223.622V33.0409H216.356V34.7953ZM223.598 35.8431H216.332V37.4756H223.598V35.8431Z" fill="#49342E"/>
<path d="M237.67 33.0164V41.9833H236.459V40.3995H231.687V41.9833H230.5V33.0164H237.67ZM231.687 34.1373V39.2543H236.459V34.1373H231.687ZM245.299 23.6841V30.5554H232.753V23.6841H245.299ZM244.088 24.8049H233.94V29.4346H244.088V24.8049ZM247.6 33.0164V41.9833H246.413V40.3995H241.545V41.9833H240.358V33.0164H247.6ZM241.545 34.1373V39.2543H246.413V34.1373H241.545Z" fill="#49342E"/>
<path d="M257.724 24.5612V39.571H256.513V37.5973H254.236V40.4725H253.025V24.5612H257.724ZM254.236 25.7552V36.379H256.513V25.7552H254.236ZM264.505 25.8039V37.4024C264.505 39.3517 264.336 40.57 263.972 41.0573C263.609 41.5447 262.955 41.7883 262.035 41.7883H260.751L260.412 40.5944H261.962C262.543 40.5944 262.882 40.4238 263.076 40.0583C263.246 39.6928 263.343 38.6207 263.343 36.7932V27.0466H261.308V29.5807C261.308 35.1607 260.339 39.303 258.402 42.1051L257.481 41.2523C259.225 38.7182 260.097 34.7952 260.097 29.5807V27.0466H258.523V25.8283H260.097V22.417H261.308V25.8283H264.529L264.505 25.8039ZM266.128 41.9833V24.6587H271.238V41.9102H270.027V39.4492H267.339V41.9833H266.128ZM267.339 25.8283V38.2065H270.027V25.8283H267.339Z" fill="#49342E"/>
<path d="M281.919 24.6345V39.8635H280.732V37.7437H277.777V40.5458H276.566V24.6345H281.919ZM277.802 25.8284V36.5497H280.756V25.8284H277.802ZM287.562 22.3928V33.309C287.562 37.3051 286.593 40.2047 284.656 42.0565L283.614 41.3499C284.825 40.1559 285.649 38.5477 286.061 36.5741C284.971 36.8665 283.832 37.1589 282.621 37.4025L282.355 36.1598C283.735 35.8918 285.019 35.5994 286.23 35.2826C286.303 34.6735 286.327 33.9912 286.327 33.309V32.1881H282.936V30.9698H286.327V27.3635H282.767V26.1452H286.327V22.3928H287.538H287.562ZM295.579 36.8421H291.728V42.0565H290.541V22.3684H291.728V26.1208H295.337V27.3392H291.728V30.9454H294.998V32.1637H291.728V35.6238H295.579V36.8421Z" fill="#49342E"/>
<path d="M299.6 27.6071C301.222 26.2182 302.627 24.4395 303.862 22.3196L305.049 22.7582L304.613 23.4648C305.776 24.5369 306.841 25.6091 307.762 26.7543L306.914 27.7289C306.115 26.6324 305.122 25.536 303.959 24.4151C302.797 26.0477 301.513 27.5096 300.108 28.8498L299.624 27.6071H299.6ZM300.811 29.0935H306.89V36.0623H301.925V40.1558L305.727 39.035C305.412 38.3284 305.073 37.573 304.662 36.7933L305.655 36.2816C306.575 37.9629 307.277 39.5467 307.786 41.0087L306.672 41.5935C306.527 41.1305 306.357 40.6188 306.163 40.0827C303.717 40.7894 301.973 41.3742 300.883 41.8859L300.302 40.6188C300.617 40.4239 300.786 40.1071 300.811 39.6685V29.0935ZM301.925 32.0418H305.751V30.2143H301.925V32.0418ZM305.776 33.0896H301.949V34.917H305.776V33.0896ZM302.433 26.6324H305.751V27.6802H302.433V26.6324ZM317.886 25.6334H309.07V28.2406H307.955V24.5369H313.042C312.921 23.9278 312.751 23.2455 312.509 22.5632L313.744 22.4414C313.962 23.1968 314.132 23.9034 314.228 24.5613H319V28.265H317.886V25.6578V25.6334ZM309.263 41.9833V27.9482H317.425V33.1627H310.377V35.4531H318.346V42.0077H317.232V40.6919H310.402V42.0077H309.288L309.263 41.9833ZM316.287 29.0691H310.377V32.0174H316.287V29.0691ZM317.207 36.5496H310.377V39.5223H317.207V36.5496Z" fill="#49342E"/>
</g>
<defs>
<clipPath id="clip0_223_56">
<rect width="319" height="75" fill="white"/>
</clipPath>
</defs>
</svg>
