<svg width="179" height="122" viewBox="0 0 179 122" fill="none" xmlns="http://www.w3.org/2000/svg">
<g clip-path="url(#clip0_223_82)">
<path d="M55.2547 120.305C55.2547 120.734 55.3453 121.028 55.5263 121.209C55.7073 121.367 56.0241 121.457 56.454 121.457V121.796C55.481 121.751 54.8475 121.729 54.5307 121.729C54.2139 121.729 53.5804 121.729 52.6074 121.796V121.457C53.06 121.457 53.3541 121.367 53.5351 121.209C53.7161 121.051 53.8066 120.757 53.8066 120.305V115.355C53.8066 114.881 53.7161 114.519 53.5351 114.293C53.3541 114.067 53.0373 113.954 52.6074 113.954V113.615C52.9468 113.638 53.2636 113.66 53.5804 113.66C54.2365 113.66 54.8022 113.592 55.2321 113.434V120.282L55.2547 120.305ZM55.1416 109.976C55.3453 110.18 55.4358 110.406 55.4358 110.699C55.4358 110.993 55.3453 111.219 55.1416 111.423C54.938 111.626 54.7117 111.716 54.4176 111.716C54.1234 111.716 53.8971 111.626 53.6935 111.423C53.4899 111.219 53.3994 110.993 53.3994 110.699C53.3994 110.406 53.4899 110.18 53.6935 109.976C53.8971 109.773 54.1234 109.682 54.4176 109.682C54.7117 109.682 54.938 109.773 55.1416 109.976Z" fill="#49342E"/>
<path d="M75.3694 110.564V110.88C74.7811 111.016 74.3512 111.468 74.125 112.259L71.1382 121.842H70.8894L68.1289 113.683L65.6173 121.842H65.3684L62.0197 111.897C61.7934 111.242 61.4314 110.903 60.9336 110.88V110.564C61.3635 110.586 61.9292 110.609 62.6306 110.609C63.3999 110.609 63.9656 110.609 64.3502 110.564V110.88C64.0561 110.88 63.8751 110.948 63.7393 111.038C63.6262 111.129 63.5583 111.264 63.5583 111.423C63.5583 111.581 63.6262 111.852 63.7393 112.191L66.0472 119.243L67.9705 113.118L67.5406 111.875C67.337 111.219 67.0202 110.88 66.6129 110.858V110.541C66.9976 110.564 67.4953 110.586 68.1515 110.586C69.0566 110.586 69.7354 110.586 70.1879 110.541V110.858C69.7806 110.858 69.5091 110.925 69.3507 110.993C69.1923 111.061 69.1245 111.197 69.1245 111.423C69.1245 111.604 69.1697 111.875 69.2829 112.191L71.5682 119.243L73.5141 113.118C73.6724 112.598 73.7629 112.169 73.7629 111.83C73.7629 111.49 73.6498 111.242 73.4462 111.084C73.2425 110.948 72.8805 110.858 72.4053 110.858V110.541C73.0163 110.564 73.6272 110.586 74.2381 110.586C74.7133 110.586 75.0979 110.586 75.4147 110.541L75.3694 110.564Z" fill="#49342E"/>
<path d="M79.0809 120.305C79.0809 120.734 79.1714 121.028 79.3524 121.209C79.5335 121.367 79.8502 121.457 80.2801 121.457V121.796C79.3072 121.751 78.6736 121.729 78.3569 121.729C78.0401 121.729 77.4065 121.729 76.4336 121.796V121.457C76.8861 121.457 77.1803 121.367 77.3613 121.209C77.5423 121.051 77.6328 120.757 77.6328 120.305V115.355C77.6328 114.881 77.5423 114.519 77.3613 114.293C77.1803 114.067 76.8635 113.954 76.4336 113.954V113.615C76.773 113.638 77.0898 113.66 77.4065 113.66C78.0627 113.66 78.6284 113.592 79.0583 113.434V120.282L79.0809 120.305ZM78.9904 109.976C79.1941 110.18 79.2846 110.406 79.2846 110.699C79.2846 110.993 79.1941 111.219 78.9904 111.423C78.7868 111.626 78.5605 111.716 78.2664 111.716C77.9722 111.716 77.7459 111.626 77.5423 111.423C77.3387 111.219 77.2482 110.993 77.2482 110.699C77.2482 110.406 77.3387 110.18 77.5423 109.976C77.7459 109.773 77.9722 109.682 78.2664 109.682C78.5605 109.682 78.7868 109.773 78.9904 109.976Z" fill="#49342E"/>
<path d="M85.5516 113.57C85.8457 113.683 86.0946 113.818 86.253 113.977C86.3661 114.067 86.4566 114.112 86.5471 114.112C86.7282 114.112 86.8639 113.886 86.8865 113.412H87.2486C87.2033 113.931 87.1807 114.813 87.1807 116.101H86.8187C86.7055 115.401 86.4793 114.835 86.1399 114.383C85.8005 113.931 85.3027 113.705 84.6465 113.705C84.2618 113.705 83.9451 113.818 83.7188 114.022C83.4699 114.248 83.3568 114.542 83.3568 114.926C83.3568 115.31 83.4925 115.604 83.7414 115.853C83.9903 116.101 84.3976 116.395 84.9633 116.757C85.0538 116.802 85.1895 116.892 85.3932 117.028C85.8683 117.344 86.2756 117.615 86.5698 117.864C86.8639 118.113 87.1128 118.384 87.2938 118.7C87.4748 119.017 87.5653 119.378 87.5653 119.785C87.5653 120.486 87.2938 121.028 86.7734 121.412C86.253 121.797 85.6194 122 84.8501 122C84.375 122 83.9677 121.932 83.6057 121.774C83.3794 121.661 83.1531 121.525 82.9495 121.345C82.9042 121.299 82.859 121.277 82.8137 121.277C82.7458 121.277 82.678 121.322 82.6101 121.435C82.5422 121.548 82.5196 121.684 82.4743 121.887H82.1123C82.1576 121.277 82.1802 120.237 82.1802 118.723H82.5422C82.6553 119.717 82.859 120.463 83.1758 120.938C83.4699 121.435 84.0129 121.684 84.737 121.684C85.099 121.684 85.4384 121.571 85.71 121.322C85.9815 121.073 86.1399 120.689 86.1399 120.192C86.1399 119.785 86.0041 119.423 85.71 119.152C85.4384 118.858 84.9633 118.519 84.3297 118.113C83.8093 117.796 83.4247 117.525 83.1305 117.299C82.859 117.096 82.6101 116.824 82.4291 116.531C82.2481 116.237 82.1349 115.875 82.1349 115.446C82.1349 114.79 82.3612 114.27 82.7911 113.931C83.2436 113.592 83.7867 113.412 84.4655 113.412C84.8501 113.412 85.1895 113.479 85.4837 113.592L85.5516 113.57Z" fill="#49342E"/>
<path d="M91.7294 115.31C92.0009 114.655 92.3629 114.157 92.8381 113.864C93.3132 113.57 93.8336 113.412 94.4219 113.412C95.1686 113.412 95.7117 113.615 96.0963 114.022C96.3 114.225 96.4357 114.496 96.5262 114.813C96.6167 115.129 96.662 115.559 96.662 116.101V120.328C96.662 120.757 96.7525 121.051 96.9335 121.232C97.1145 121.39 97.4313 121.48 97.8612 121.48V121.819C96.8883 121.774 96.2547 121.751 95.9606 121.751C95.6664 121.751 95.0781 121.751 94.1957 121.819V121.48C94.5803 121.48 94.8519 121.39 95.0102 121.232C95.1686 121.073 95.2365 120.78 95.2365 120.328V115.762C95.2365 115.175 95.146 114.722 94.9876 114.406C94.8066 114.09 94.4672 113.931 93.9468 113.931C93.5169 113.931 93.1322 114.044 92.7928 114.293C92.4534 114.542 92.2045 114.881 92.0009 115.31C91.8199 115.74 91.7067 116.237 91.7067 116.802V120.328C91.7067 120.757 91.7746 121.051 91.933 121.232C92.0914 121.412 92.3629 121.48 92.7476 121.48V121.819C91.8651 121.774 91.2768 121.751 90.9827 121.751C90.6885 121.751 90.055 121.751 89.082 121.819V121.48C89.5346 121.48 89.8287 121.39 90.0097 121.232C90.1907 121.073 90.2813 120.78 90.2813 120.328V111.31C90.2813 110.835 90.1907 110.474 90.0097 110.248C89.8287 110.021 89.5119 109.908 89.082 109.908V109.569C89.4214 109.592 89.7382 109.615 90.055 109.615C90.7112 109.615 91.2768 109.547 91.7067 109.389V115.31H91.7294Z" fill="#49342E"/>
<path d="M109.785 110.609C110.238 110.79 110.668 111.039 111.075 111.378C111.188 111.468 111.301 111.513 111.369 111.513C111.573 111.513 111.709 111.197 111.777 110.564H112.139C112.093 111.242 112.071 112.462 112.071 114.203H111.709C111.596 113.525 111.482 113.027 111.392 112.734C111.301 112.44 111.143 112.146 110.917 111.875C110.6 111.468 110.193 111.152 109.695 110.948C109.197 110.745 108.677 110.632 108.111 110.632C107.432 110.632 106.821 110.858 106.324 111.31C105.803 111.762 105.418 112.417 105.124 113.253C104.83 114.09 104.694 115.084 104.694 116.214C104.694 117.344 104.853 118.339 105.147 119.175C105.441 119.989 105.871 120.621 106.414 121.051C106.957 121.48 107.568 121.684 108.269 121.684C108.79 121.684 109.31 121.593 109.808 121.39C110.306 121.186 110.69 120.893 110.985 120.486C111.188 120.192 111.347 119.876 111.437 119.537C111.528 119.198 111.618 118.678 111.709 117.977H112.071C112.071 119.785 112.071 121.051 112.139 121.774H111.777C111.754 121.435 111.709 121.186 111.641 121.051C111.573 120.915 111.505 120.847 111.392 120.847C111.301 120.847 111.188 120.893 111.052 120.983C110.577 121.322 110.125 121.571 109.695 121.751C109.265 121.932 108.745 122.023 108.134 122.023C107.138 122.023 106.256 121.797 105.486 121.345C104.74 120.893 104.151 120.237 103.721 119.378C103.314 118.52 103.088 117.502 103.088 116.305C103.088 115.107 103.292 114.112 103.721 113.231C104.151 112.327 104.74 111.626 105.509 111.152C106.278 110.654 107.138 110.406 108.111 110.406C108.745 110.406 109.288 110.496 109.718 110.677L109.785 110.609Z" fill="#49342E"/>
<path d="M114.808 121.39C114.491 121.051 114.333 120.599 114.333 120.011C114.333 119.536 114.469 119.152 114.718 118.836C114.967 118.519 115.283 118.293 115.645 118.113C116.007 117.932 116.46 117.751 117.048 117.548C117.637 117.344 118.089 117.163 118.361 116.983C118.655 116.802 118.79 116.598 118.79 116.305V115.333C118.79 114.722 118.655 114.293 118.406 114.067C118.157 113.841 117.795 113.728 117.32 113.728C116.573 113.728 116.053 113.909 115.758 114.293C115.962 114.338 116.143 114.451 116.279 114.632C116.415 114.79 116.483 115.016 116.483 115.265C116.483 115.514 116.392 115.74 116.234 115.898C116.053 116.056 115.849 116.124 115.577 116.124C115.283 116.124 115.057 116.033 114.921 115.853C114.763 115.672 114.695 115.446 114.695 115.174C114.695 114.903 114.763 114.7 114.876 114.542C114.989 114.361 115.17 114.203 115.419 114.044C115.668 113.864 115.985 113.728 116.392 113.592C116.777 113.479 117.207 113.412 117.682 113.412C118.496 113.412 119.13 113.615 119.56 113.999C119.831 114.248 119.99 114.542 120.08 114.881C120.171 115.22 120.216 115.672 120.216 116.237V120.644C120.216 120.915 120.261 121.096 120.329 121.209C120.397 121.322 120.533 121.39 120.714 121.39C120.85 121.39 120.963 121.367 121.076 121.299C121.189 121.232 121.302 121.164 121.438 121.051L121.619 121.322C121.347 121.525 121.121 121.684 120.917 121.774C120.714 121.864 120.465 121.91 120.171 121.91C119.673 121.91 119.311 121.774 119.107 121.525C118.904 121.277 118.813 120.938 118.813 120.486C118.496 121.006 118.134 121.39 117.727 121.593C117.32 121.797 116.845 121.91 116.324 121.91C115.668 121.91 115.17 121.751 114.853 121.412L114.808 121.39ZM118.768 120.056V116.96C118.677 117.096 118.542 117.231 118.383 117.322C118.202 117.412 117.953 117.548 117.614 117.706C117.207 117.887 116.89 118.045 116.641 118.18C116.392 118.339 116.188 118.542 116.007 118.813C115.826 119.084 115.736 119.423 115.736 119.83C115.736 120.305 115.849 120.667 116.075 120.915C116.302 121.164 116.618 121.277 117.003 121.277C117.704 121.277 118.293 120.87 118.79 120.079L118.768 120.056Z" fill="#49342E"/>
<path d="M128.294 109.818C128.61 110.089 128.791 110.406 128.791 110.79C128.791 111.039 128.701 111.242 128.565 111.4C128.407 111.558 128.203 111.626 127.954 111.626C127.705 111.626 127.502 111.558 127.343 111.4C127.162 111.242 127.094 111.039 127.094 110.767C127.094 110.541 127.162 110.361 127.275 110.225C127.389 110.089 127.547 109.999 127.751 109.954C127.728 109.841 127.637 109.773 127.502 109.705C127.366 109.637 127.185 109.615 126.981 109.615C126.755 109.615 126.551 109.66 126.37 109.773C126.189 109.886 126.054 110.021 125.963 110.202C125.85 110.406 125.782 110.722 125.737 111.129C125.692 111.536 125.692 112.236 125.692 113.208V113.615H127.389V113.931H125.692V120.124C125.692 120.599 125.827 120.938 126.122 121.141C126.393 121.322 126.823 121.435 127.389 121.435V121.774H127.004C125.918 121.729 125.239 121.706 124.945 121.706C124.673 121.706 124.04 121.706 123.067 121.774V121.435C123.519 121.435 123.814 121.345 123.995 121.186C124.176 121.028 124.266 120.734 124.266 120.282V113.931H122.999V113.615H124.266C124.266 112.688 124.334 111.965 124.447 111.468C124.56 110.971 124.764 110.519 125.081 110.18C125.284 109.931 125.556 109.75 125.895 109.592C126.212 109.456 126.574 109.389 126.981 109.389C127.524 109.389 128 109.524 128.362 109.818H128.294Z" fill="#49342E"/>
<path d="M135.195 119.875C135.014 120.463 134.652 120.96 134.131 121.367C133.611 121.774 132.977 122 132.231 122C131.484 122 130.828 121.819 130.285 121.48C129.742 121.141 129.312 120.666 129.018 120.034C128.724 119.423 128.588 118.7 128.588 117.887C128.588 116.96 128.746 116.169 129.04 115.491C129.335 114.813 129.764 114.293 130.285 113.931C130.828 113.57 131.461 113.389 132.163 113.389C133.113 113.389 133.837 113.683 134.358 114.248C134.878 114.813 135.127 115.694 135.127 116.869H130.172C130.149 117.163 130.127 117.502 130.127 117.887C130.127 118.587 130.24 119.197 130.466 119.695C130.692 120.192 130.986 120.621 131.371 120.892C131.756 121.164 132.14 121.322 132.548 121.322C133.045 121.322 133.498 121.209 133.883 120.96C134.267 120.712 134.607 120.305 134.855 119.74L135.172 119.875H135.195ZM130.828 114.429C130.466 114.903 130.24 115.626 130.172 116.576H133.634C133.634 115.762 133.543 115.061 133.272 114.519C133.023 113.977 132.638 113.705 132.118 113.705C131.597 113.705 131.19 113.954 130.828 114.429Z" fill="#49342E"/>
<path d="M87.95 14.6229C69.2604 4.54289 53.9647 16.2728 51.6794 18.1713C51.7699 18.2165 51.8604 18.2617 51.9509 18.3295C52.3808 18.6685 52.7881 19.0301 53.1954 19.3691C53.5574 19.6855 53.9194 20.0019 54.3041 20.2958C54.4625 20.4314 54.7114 20.4992 54.9376 20.5444C54.9829 20.5444 55.0508 20.567 55.096 20.5896C55.1187 20.5896 55.1639 20.5896 55.1865 20.5896C55.2544 20.5896 55.2997 20.5896 55.3675 20.5896C55.3902 20.5896 55.4128 20.5896 55.4354 20.5896C56.5215 20.7026 57.2682 20.3862 57.8565 20.0698C58.8973 19.4821 60.2775 19.1205 61.9293 18.9623C63.3548 18.8267 64.7803 18.8493 66.1379 19.0301C67.5407 19.2109 68.9436 19.5725 70.2786 20.115C71.0479 20.4088 71.7719 20.793 72.496 21.1998C72.5865 21.245 72.6317 21.3128 72.6544 21.3806C72.6544 21.471 72.5639 21.6292 72.315 21.7648C70.7763 22.6689 69.0793 23.1887 67.1561 23.3469C65.7758 23.4599 64.4409 23.4147 63.1285 23.2565C61.3863 23.0305 59.6666 22.5333 58.0375 21.7874C57.947 21.7422 57.8791 21.697 57.7886 21.6518C57.5623 21.5162 57.3134 21.3806 56.974 21.3128C56.793 21.2902 56.6346 21.3128 56.431 21.3128C56.3179 21.3128 56.2047 21.4258 56.1821 21.5388C56.1595 21.6518 56.1821 21.7648 56.2952 21.8552C56.4763 21.9908 56.6573 22.1264 56.8383 22.262C57.2229 22.5559 57.6076 22.8271 58.0149 23.0983L58.2638 23.2565C59.2141 23.8893 60.2097 24.5447 61.2279 25.155C62.3366 25.8104 63.4679 26.4658 64.5766 27.076C65.0292 27.3247 65.5043 27.5959 65.9569 27.8445C66.0021 27.8445 66.0247 27.8897 66.07 27.8897C66.4773 28.2061 66.9298 28.3869 67.4502 28.4547C67.9254 28.5225 68.4684 28.4773 69.1472 28.3191C69.4187 28.2513 69.645 28.2287 69.8487 28.2287C70.4369 28.2287 70.6858 27.9801 70.8895 27.7541C71.7267 26.8952 72.858 26.2398 74.2382 25.833C76.4104 25.1776 78.6731 24.9968 80.981 25.3132C81.2525 25.3584 81.5467 25.4036 81.8182 25.4488C82.9948 25.6522 84.1714 26.0138 85.3027 26.3754L85.7779 26.511C86.1399 26.624 86.2078 26.737 86.2304 26.7596C86.253 26.8274 86.2078 26.963 86.0946 27.0986C85.6874 27.6411 85.0991 28.1157 84.3298 28.5677C82.9269 29.3813 81.1846 29.8334 79.0351 29.969C77.8133 30.0368 76.5914 29.9916 75.3922 29.856C74.1251 29.6978 72.858 29.3814 71.6362 28.9519C71.5457 28.9293 71.4325 28.9067 71.3194 28.8841C71.1836 28.8841 71.0252 28.8615 70.8669 28.8841C70.5953 28.8841 70.3012 28.9519 69.9844 28.9745C69.8487 28.9745 69.6903 29.0197 69.5319 29.0423C69.3961 29.0423 69.283 29.1553 69.2604 29.2909C69.2604 29.4266 69.3282 29.5622 69.4414 29.6074C69.9392 29.8108 70.4143 30.0368 70.8895 30.2402C71.9529 30.7148 72.9485 31.1442 73.9893 31.5284C76.252 32.3647 78.5826 33.1557 80.8452 33.9467L82.5875 34.5344C83.1079 34.7152 83.7867 34.9412 84.5108 35.0768C84.556 35.0768 84.5787 35.0768 84.6239 35.0768C84.9633 35.122 85.3253 35.0768 85.6874 35.009C86.4793 34.8508 87.2486 34.67 87.9274 34.5118C88.1084 34.4666 88.3799 34.331 88.4704 34.1276C88.7646 33.5173 89.3303 32.9297 90.2806 32.3195C91.163 31.7319 92.2491 31.325 93.4936 31.0538C95.4621 30.647 97.4759 30.5792 99.467 30.8504C100.508 30.986 101.571 31.212 102.635 31.551C103.019 31.664 103.133 31.7771 103.155 31.8449C103.178 31.9127 103.155 32.0031 103.11 32.1161C102.227 33.9919 100.123 35.1446 96.7292 35.6192C95.2132 35.8452 93.652 35.8226 91.9776 35.6192C91.1857 35.5062 90.3485 35.348 89.5113 35.1446C89.466 35.1446 89.4208 35.1446 89.3529 35.122C89.0361 35.0768 88.6967 35.122 88.3573 35.1898C88.1989 35.2124 88.0405 35.235 87.9048 35.2576C87.8143 35.2576 87.7464 35.3028 87.6785 35.3706C87.6333 35.4384 87.6106 35.5062 87.6106 35.5966V35.7322C87.6559 35.8452 87.7464 35.9582 87.8822 35.9808C88.2442 36.0712 88.5836 36.139 88.9456 36.2294C89.7149 36.4103 90.5068 36.5911 91.2988 36.7493C92.6338 36.9979 93.9914 37.2465 95.3037 37.4951C96.3445 37.6759 97.3854 37.8793 98.4262 38.0601C98.5393 38.0601 98.6525 38.1053 98.743 38.1053C99.4444 38.1957 100.101 38.1505 100.757 37.9471C102.997 37.2691 105.35 37.0657 107.748 37.3821C109.355 37.5855 111.007 38.0375 112.681 38.7155C114.197 39.3258 115.283 40.0264 116.03 40.8852C116.03 40.8852 116.03 40.8852 116.03 40.9078C116.03 40.9078 116.03 40.9078 116.007 40.9078C115.102 41.4729 113.88 41.8345 112.183 42.0379C110.622 42.2187 109.061 42.2187 107.545 42.0379C106.074 41.8345 104.603 41.4729 103.155 40.9078C101.911 40.4332 100.847 39.823 99.9874 39.145C99.8064 39.0094 99.5123 38.8738 99.2408 38.8512C95.4847 38.3313 91.7739 37.6081 88.1989 36.7493C87.0902 36.4781 85.9815 36.1842 84.8954 35.8904C84.4203 35.7548 83.9225 35.6192 83.4473 35.5062C83.3342 35.4836 83.1984 35.4384 83.0853 35.3932L82.8816 35.348C82.8816 35.348 82.859 35.348 82.8364 35.348C82.7233 35.348 82.6328 35.3706 82.5649 35.4384C82.4744 35.5288 82.4744 35.6418 82.5196 35.7548C82.9495 36.5911 83.2889 36.8397 84.375 37.1787C86.7056 37.8793 88.5836 38.8964 89.9412 40.2298C90.3032 40.5914 90.5747 40.9756 90.8463 41.4277C91.6156 42.6481 91.6382 43.8686 90.9141 45.2698C90.801 45.5184 90.4163 45.7219 89.8507 45.654C89.7828 45.654 89.7149 45.654 89.6697 45.6088C87.2486 45.0438 85.3706 44.2076 83.8546 43.0775C81.524 41.3147 80.8452 39.4614 81.7729 37.4273C81.8634 37.2239 81.9087 36.9301 81.7277 36.7267L81.5919 36.5459C81.0489 35.8678 80.4832 35.1672 79.827 34.5118C79.646 34.3084 79.3066 34.218 78.9898 34.1276C78.8541 34.0824 78.741 34.0597 78.6278 34.0145C77.8359 33.6981 77.044 33.4043 76.252 33.0879C74.2156 32.3195 72.134 31.5058 70.0975 30.6696C69.1925 30.308 68.2874 29.8786 67.4276 29.4492C67.0203 29.2683 66.6357 29.0649 66.2284 28.8841C66.2058 28.8841 66.1605 28.8615 66.1379 28.8615C66.07 28.8615 66.0247 28.8615 65.9795 28.8615C65.889 28.9067 65.8211 28.9745 65.7985 29.0423C65.5043 29.969 66.4999 30.4888 66.9524 30.7374C68.0838 31.325 68.9888 32.0935 69.7355 33.0653C70.799 34.444 70.9574 35.8 70.2107 37.2239C69.8034 37.9923 69.0793 38.6477 68.0385 39.1676C67.8801 39.258 67.6765 39.2806 67.4728 39.258C67.2918 39.2354 67.1108 39.1676 66.9298 39.0772C65.5722 38.4443 64.5314 37.7663 63.7394 37.0205C61.8614 35.2802 61.4768 33.5173 62.6081 31.6188C62.7665 31.3476 63.038 31.1216 63.3548 30.873C63.5358 30.7148 63.7168 30.5566 63.8752 30.3984C64.0788 30.195 64.2825 29.9238 64.2372 29.63C64.1467 29.0423 64.0336 28.3869 63.7621 27.7541C63.6263 27.4603 63.2869 27.2795 62.9475 27.076C62.857 27.0308 62.7665 26.9856 62.676 26.9178C62.1329 26.5788 61.5899 26.2624 61.0469 25.946C59.9834 25.3132 58.8747 24.6577 57.8565 23.9571C56.069 22.7593 54.372 21.471 52.7202 20.2054L52.5392 20.0698C52.1546 19.7759 51.7925 19.4595 51.4531 19.1657C52.064 26.2398 59.101 57.6778 91.4572 56.8189C129.809 55.8019 129.809 18.8041 129.809 18.8041C115.215 28.0705 107.364 25.0194 87.95 14.5551V14.6229Z" fill="#8C6B4D"/>
<path d="M51.7025 18.1711C51.5893 18.1259 51.4762 18.0807 51.3405 18.0581C51.1821 18.0581 51.0237 18.0581 50.8653 18.0807C50.5711 18.1485 50.458 18.2615 50.458 18.3067C50.458 18.3067 50.458 18.3519 50.5033 18.3745C50.6616 18.5101 50.82 18.6683 50.9784 18.8039C51.1368 18.9395 51.2952 19.0978 51.4762 19.256C51.4536 18.9169 51.431 18.6457 51.431 18.4197C51.431 18.4197 51.5215 18.3293 51.7251 18.1711H51.7025Z" fill="white"/>
<path d="M91.8877 12.4758C91.8877 12.4758 113.27 6.96115 129.629 14.1709C129.629 14.1709 123.52 22.0134 110.849 20.4765C101.119 19.3013 91.8877 12.4532 91.8877 12.4532V12.4758Z" fill="#E4BD74"/>
<path d="M119.469 58.5817C127.728 53.0896 133.747 45.0889 137.186 34.8507C141.576 21.7873 140.603 8.81436 140.286 4.54278C140.263 4.15856 140.218 3.70654 140.218 3.54833C140.263 1.64985 138.77 0.0677844 136.869 -1.85017e-05C134.946 -0.0678214 133.317 1.42384 133.226 3.34492C133.226 3.72914 133.226 4.18116 133.317 5.0626C134.901 26.3301 130.353 52.954 99.6936 59.1015C94.4216 60.1637 88.9233 60.2089 83.3571 59.2823C70.7766 57.1578 61.3187 51.6884 55.2094 43.0096C43.8282 26.8047 47.6747 4.47497 47.72 4.11336C48.0594 2.21488 46.8149 0.406799 44.9143 0.0451834C43.0136 -0.293831 41.2035 0.949222 40.8415 2.8477C40.6605 3.88735 36.3614 28.2738 49.4396 46.9648C52.6979 51.6206 56.7481 55.4853 61.5449 58.5591C46.1814 59.9603 35.9541 62.469 35.9541 65.3168C35.9541 69.7013 60.3457 73.2723 90.4166 73.2723C120.488 73.2723 144.879 69.7013 144.879 65.3168C144.879 62.469 134.72 59.9829 119.424 58.5817H119.469Z" fill="#A88F78"/>
<path d="M143.815 31.5734C143.363 31.5734 142.91 31.5734 142.458 31.5282C141.123 31.4378 140.127 30.2626 140.218 28.9291C140.308 27.5957 141.507 26.5786 142.82 26.6916C148.952 27.1211 154.201 23.4371 154.586 18.4649C154.767 16.1144 153.816 13.8091 151.938 11.9784C149.947 10.0347 147.187 8.83688 144.155 8.61087C142.82 8.52046 141.824 7.34521 141.915 6.01176C142.005 4.6783 143.182 3.68386 144.517 3.77426C148.703 4.06807 152.549 5.76315 155.355 8.52046C158.251 11.3682 159.699 15.0295 159.428 18.8039C158.885 26.0588 152.029 31.5508 143.838 31.5508L143.815 31.5734Z" fill="#A88F78"/>
<path d="M12.9199 90.7881L14.0738 91.1045V91.8051C14.0738 93.2064 13.4176 93.907 12.1053 93.907H7.60258C7.42156 93.907 7.26318 93.907 7.10479 93.907L7.5347 94.2686L6.35811 95.4665H16.065V96.5287C14.8431 97.7492 13.2593 98.7888 11.2907 99.6477C13.6439 100.348 16.3365 100.71 19.4364 100.755L19.097 101.976C15.4541 101.93 12.2637 101.388 9.5711 100.303C7.03691 101.139 3.95968 101.682 0.362028 101.976L0 100.823C3.03198 100.574 5.70193 100.145 7.96461 99.5573C6.62963 98.8566 5.43041 98.0204 4.38958 97.0485C3.37138 97.7492 2.2853 98.3594 1.13134 98.9244L0.543041 97.9526C3.03198 96.8225 5.06839 95.4439 6.62963 93.7488C5.99608 93.455 5.67931 92.8674 5.67931 91.9859V90.2683H6.81064V92.0763C6.81064 92.5736 7.08216 92.8448 7.57995 92.8448H12.06C12.6031 92.8448 12.8972 92.5736 12.8972 92.0085V90.8107L12.9199 90.7881ZM17.2868 89.206H1.96852V91.1949H0.814562V88.1212H4.2312C4.00493 87.624 3.71078 87.0589 3.32613 86.4035L4.38958 86.1323C4.81949 86.8329 5.15889 87.4883 5.43041 88.1212H9.43534C9.20908 87.5561 8.8923 86.9233 8.50765 86.2227L9.5711 85.9515C10.001 86.6973 10.363 87.4431 10.6572 88.0986H13.7344L15.2504 85.5673L16.4044 85.7481L14.911 88.0986H18.486V91.1723H17.3321V89.1834L17.2868 89.206ZM0.995576 84.4146C6.72014 84.4146 12.2184 84.0304 17.5131 83.262L18.0109 84.3242C12.5126 85.1604 6.92378 85.5673 1.2671 85.5673L0.972949 84.4372L0.995576 84.4146ZM1.10871 93.681C2.05903 92.8674 2.94147 91.9407 3.73341 90.9237L4.61585 91.6017C3.84654 92.6414 2.9641 93.5906 1.99115 94.4268L1.10871 93.681ZM5.33991 96.5061C6.53912 97.5232 7.96461 98.3594 9.61636 99.0374C11.5849 98.3594 13.1914 97.5232 14.4132 96.5061H5.33991ZM9.4806 89.6128C10.2273 90.2231 10.8608 90.8333 11.4039 91.4209L10.4988 92.0763C10.0689 91.5565 9.43534 90.9463 8.59815 90.2231L9.50322 89.6128H9.4806ZM15.6803 90.4039C16.6759 91.4435 17.5357 92.4606 18.2371 93.5002L17.2868 94.0878C16.608 93.0708 15.7708 92.0311 14.7526 90.9915L15.6803 90.4039Z" fill="#49342E"/>
<path d="M26.4284 101.908H25.297V95.6021C24.7766 96.1671 24.2109 96.7096 23.6226 97.252L23.0117 96.235C24.8219 94.6981 26.1795 93.0256 27.0393 91.2175L27.967 91.6696C27.5144 92.551 27.0166 93.3872 26.4284 94.2235V101.908ZM23.1249 90.6525C24.7087 89.5225 25.9079 88.2342 26.7451 86.8104L27.6728 87.3076C26.6999 88.98 25.3649 90.4491 23.6905 91.7148L23.1475 90.6525H23.1249ZM35.6374 86.8104V85.3865H29.845V86.8104H28.7137V85.3865H23.4643V84.3016H28.7137V83.2168H29.845V84.3016H35.6374V83.2168H36.7688V84.3016H42.0634V85.3865H36.7688V86.8104H35.6374ZM30.5917 95.7829V97.139C30.5917 99.1053 29.8676 100.733 28.3969 101.976L27.6049 101.049C28.8268 100.055 29.4377 98.7437 29.4377 97.139V95.7829H30.5917ZM28.3969 93.455H34.936V94.5399H28.3969V93.455ZM28.4421 91.8956V88.2342H29.5282V90.8107H31.2478V87.1268H32.3339V90.8107H34.0536V88.1438H35.117V91.8956H28.4874H28.4421ZM34.0762 95.7829V98.9471L36.1126 98.0204L36.271 99.1505C34.755 99.8737 33.6689 100.461 33.0127 100.868L32.4244 99.6703C32.7412 99.4895 32.9222 99.1731 32.9222 98.7437V95.7829H34.0536H34.0762ZM41.2036 91.1949C41.2036 93.5228 40.7058 95.6247 39.7555 97.5232C40.4795 98.7663 41.3394 99.9189 42.3349 101.004L41.4978 101.885C40.5701 100.846 39.8007 99.7381 39.1446 98.5629C38.3526 99.8059 37.3571 100.913 36.1126 101.93L35.3207 100.981C36.6556 99.9189 37.7191 98.7211 38.511 97.4102C37.7643 95.8959 37.176 94.3139 36.7914 92.6414C36.4746 93.1386 36.1805 93.5906 35.8637 94.0201L35.1396 93.0934C36.3389 91.647 37.2213 89.5225 37.7191 86.6747L38.9183 86.7651C38.692 87.6692 38.4431 88.528 38.2169 89.3191H42.2444V90.4039H41.2036V91.1949ZM40.1175 91.1949V90.4039H37.8096L37.4702 91.2401C37.8096 93.0256 38.3526 94.6981 39.0993 96.2576C39.7781 94.7433 40.1175 93.0482 40.1175 91.1949Z" fill="#49342E"/>
<path d="M46.6564 100.371C47.4031 98.8567 47.9914 97.2973 48.4213 95.6474L49.5526 95.9412C49.168 97.6363 48.6023 99.241 47.833 100.755L46.6338 100.371H46.6564ZM63.2871 84.0305V93.2969H48.6249V84.0305H63.2871ZM55.4582 88.1213V85.1832H49.7563V88.1213H55.4582ZM55.4582 92.1443V89.2061H49.7563V92.1443H55.4582ZM60.1419 97.3199L61.2959 97.6137V99.3766C61.2959 100.778 60.6397 101.478 59.35 101.478H53.3313C52.0189 101.478 51.3628 100.823 51.3628 99.5122V94.7434H52.5167V99.5348C52.5167 100.032 52.7883 100.303 53.286 100.303H59.2821C59.8252 100.303 60.1193 100.009 60.1193 99.467V97.2973L60.1419 97.3199ZM55.5261 93.8393C56.5217 94.879 57.4041 95.9412 58.1282 96.9809L57.0873 97.6137C56.4312 96.574 55.594 95.4892 54.5758 94.4044L55.5035 93.8393H55.5261ZM56.5895 85.1832V88.1213H62.1331V85.1832H56.5895ZM56.5895 89.2061V92.1443H62.1331V89.2061H56.5895ZM63.0834 95.1954C64.0337 96.7549 64.8257 98.3143 65.4366 99.806L64.2826 100.19C63.7622 98.7437 62.9929 97.2069 61.9973 95.6022L63.106 95.1954H63.0834Z" fill="#49342E"/>
<path d="M73.6951 91.2402V101.998H72.5637V93.4099C71.8623 95.331 70.8894 97.0487 69.6902 98.6082L69.3281 97.2747C70.6631 95.67 71.6361 93.6585 72.2922 91.2402H69.6223V90.0876H72.5637V83.2395H73.6951V90.0876H76.2745V91.2402H73.6951ZM70.6857 84.5052C71.093 85.7482 71.3872 87.0365 71.5455 88.3247L70.55 88.5281C70.3463 87.2399 70.0296 85.9742 69.6223 84.7764L70.6857 84.4826V84.5052ZM74.5323 93.2743C75.3695 94.201 76.0709 95.1502 76.6366 96.0768L75.9351 97.0939C75.4373 96.1446 74.7585 95.1502 73.9213 94.1558L74.5323 93.2743ZM76.5913 84.7312C76.3198 86.155 76.003 87.4433 75.5731 88.5959L74.6002 88.3021C75.0301 87.1721 75.3242 85.929 75.5279 84.5278L76.5913 84.7538V84.7312ZM88.3798 85.8612H83.3341V87.3303H88.0857V88.4151H83.3341V89.952H88.5382V91.0368H77.0212V89.952H82.1801V88.4151H77.9715V87.3303H82.1801V85.8612H77.4964V84.7764H82.1801V83.2395H83.3341V84.7764H88.3798V85.8612ZM78.1299 101.998V92.3251H87.4069V100.235C87.4069 101.343 86.8865 101.908 85.8683 101.908H83.2209L82.9042 100.823H85.6646C86.0493 100.823 86.2303 100.642 86.2303 100.281V98.6082H79.2613V101.976H78.1073L78.1299 101.998ZM79.2839 95.0824H86.2529V93.4099H79.2839V95.0824ZM86.2529 96.0768H79.2839V97.6137H86.2529V96.0768Z" fill="#49342E"/>
<path d="M100.055 93.3646V101.908H98.9013V100.393H94.3081V101.908H93.1768V93.3646H100.055ZM94.3081 94.4494V99.3313H98.9013V94.4494H94.3081ZM107.364 84.4824V91.0367H95.3037V84.4824H107.364ZM106.21 85.5221H96.4803V89.9293H106.21V85.5221ZM109.581 93.3646V101.908H108.45V100.393H103.789V101.908H102.657V93.3646H109.604H109.581ZM103.766 94.4494V99.3313H108.427V94.4494H103.766Z" fill="#49342E"/>
<path d="M119.583 85.3188V99.6252H118.429V97.7493H116.257V100.484H115.103V85.2962H119.605L119.583 85.3188ZM116.257 86.4488V96.574H118.429V86.4488H116.257ZM126.099 86.494V97.5459C126.099 99.3992 125.941 100.552 125.601 101.026C125.262 101.501 124.628 101.727 123.746 101.727H122.501L122.185 100.597H123.678C124.221 100.597 124.583 100.439 124.742 100.077C124.9 99.7382 124.99 98.6985 124.99 96.9583V87.6693H123.045V90.0876C123.045 95.3988 122.094 99.3766 120.261 102.043L119.379 101.23C121.053 98.8115 121.891 95.0824 121.891 90.1102V87.6919H120.375V86.5392H121.891V83.2847H123.045V86.5392H126.144L126.099 86.494ZM127.66 101.908V85.3866H132.57V101.817H131.416V99.467H128.837V101.885H127.683L127.66 101.908ZM128.814 86.5392V98.3369H131.394V86.5392H128.814Z" fill="#49342E"/>
<path d="M143.114 85.3866V99.919H141.982V97.9075H139.154V100.574H138V85.3866H143.136H143.114ZM139.154 86.5392V96.7549H141.982V86.5392H139.154ZM148.544 83.2395V93.6585C148.544 97.4555 147.616 100.235 145.761 101.998L144.765 101.32C145.919 100.19 146.711 98.6534 147.119 96.7549C146.078 97.0487 144.969 97.2973 143.815 97.5459L143.566 96.3707C144.879 96.0994 146.123 95.8508 147.3 95.5344C147.367 94.9468 147.39 94.314 147.39 93.6359V92.5511H144.132V91.3984H147.39V87.9631H143.973V86.8104H147.39V83.2395H148.544ZM156.215 97.0261H152.504V101.998H151.372V83.2395H152.504V86.8104H155.966V87.9631H152.504V91.3984H155.649V92.5511H152.504V95.8508H156.215V97.0035V97.0261Z" fill="#49342E"/>
<path d="M160.378 88.2116C161.917 86.9008 163.297 85.2057 164.474 83.1716L165.605 83.5784L165.175 84.2565C166.284 85.2735 167.324 86.3132 168.184 87.398L167.37 88.3247C166.6 87.285 165.65 86.2228 164.541 85.1605C163.41 86.6974 162.188 88.1212 160.831 89.3869L160.355 88.2116H160.378ZM161.532 89.6355H167.37V96.2802H162.596V100.19L166.238 99.1279C165.944 98.4499 165.605 97.7493 165.22 96.9808L166.171 96.4836C167.053 98.0883 167.709 99.6025 168.207 101.004L167.121 101.546C166.985 101.094 166.827 100.62 166.623 100.1C164.27 100.778 162.596 101.343 161.555 101.817L161.012 100.62C161.306 100.439 161.487 100.145 161.509 99.7155V89.6355H161.532ZM162.618 92.438H166.306V90.6978H162.618V92.438ZM166.306 93.4551H162.618V95.1953H166.306V93.4551ZM163.093 87.285H166.261V88.2795H163.093V87.285ZM177.936 86.3358H169.474V88.8219H168.388V85.2735H173.275C173.162 84.6859 172.981 84.0531 172.755 83.375L173.932 83.262C174.135 83.9627 174.294 84.6407 174.407 85.2735H179V88.8219H177.936V86.3358ZM169.655 101.908V88.5281H177.507V93.5003H170.741V95.67H178.389V101.908H177.303V100.642H170.741V101.908H169.655ZM176.398 89.6129H170.718V92.4154H176.398V89.6129ZM177.28 96.7548H170.718V99.5799H177.28V96.7548Z" fill="#49342E"/>
</g>
<defs>
<clipPath id="clip0_223_82">
<rect width="179" height="122" fill="white"/>
</clipPath>
</defs>
</svg>
